M48
;DRILL file {KiCad 5.0.2+dfsg1-1} date Fri 19 Apr 2019 11:16:48 NZST
;FORMAT={-:-/ absolute / metric / decimal}
FMAT,2
METRIC,TZ
T1C0.400
T2C0.762
T3C0.800
T4C1.200
T5C4.300
%
G90
G05
T1
X181.356Y-72.581
X181.546Y-88.646
X186.118Y-72.581
X186.436Y-88.709
T2
X116.649Y-52.006
X116.649Y-54.546
X116.649Y-57.087
X116.649Y-59.627
X116.649Y-62.166
X116.649Y-64.706
X116.649Y-67.246
X116.649Y-69.787
X116.649Y-72.326
X116.649Y-74.867
X116.649Y-77.406
X116.649Y-79.947
X116.649Y-82.486
X116.649Y-85.026
X116.649Y-87.566
X116.649Y-90.106
X142.049Y-50.736
X142.049Y-53.276
X142.049Y-55.816
X142.049Y-58.356
X142.049Y-60.896
X142.049Y-63.436
X142.049Y-65.977
X142.049Y-68.516
X142.049Y-71.056
X142.049Y-73.596
X165.322Y-52.895
X165.322Y-55.435
X165.322Y-57.975
X165.322Y-60.515
X165.322Y-63.055
X165.322Y-65.596
X165.322Y-68.135
X165.322Y-70.675
X165.322Y-73.215
X165.322Y-75.755
X165.322Y-78.295
X165.322Y-80.835
X165.322Y-83.376
X165.322Y-85.915
X165.322Y-88.456
X165.322Y-90.995
X165.322Y-93.535
X165.322Y-96.075
X165.322Y-98.615
X190.722Y-53.149
X190.722Y-55.689
X190.722Y-58.229
X190.722Y-60.77
X190.722Y-63.309
X190.722Y-65.849
X190.722Y-68.389
X190.722Y-70.929
X190.722Y-73.469
X190.722Y-76.01
X190.722Y-78.549
X190.722Y-81.09
X190.722Y-83.629
X190.722Y-86.169
X190.722Y-88.709
X190.722Y-91.249
X190.722Y-93.789
X190.722Y-96.329
X190.722Y-98.615
T3
X131.762Y-85.725
X131.762Y-95.885
X171.291Y-66.358
X171.291Y-76.517
X131.889Y-68.516
X131.889Y-78.676
X171.355Y-79.756
X171.355Y-89.916
T4
X174.91Y-53.594
X178.72Y-53.594
X182.53Y-53.594
X140.335Y-80.772
X140.335Y-84.582
X140.335Y-88.392
X177.768Y-65.786
X177.768Y-69.596
X177.768Y-73.406
X177.768Y-77.216
X177.768Y-81.026
X177.768Y-84.836
X177.768Y-88.646
X177.768Y-92.456
X124.46Y-68.58
X124.46Y-72.39
X124.46Y-76.2
X124.46Y-80.01
X124.46Y-83.82
X124.46Y-87.63
X124.46Y-91.44
X124.46Y-95.25
T5
X111.252Y-107.759
X147.511Y-51.181
X111.442Y-51.181
X198.85Y-51.054
X158.845Y-100.076
X147.256Y-107.759
X198.85Y-100.076
X158.845Y-51.054
T0
M30
