G04 #@! TF.GenerationSoftware,KiCad,Pcbnew,5.0.2+dfsg1-1*
G04 #@! TF.CreationDate,2019-04-19T11:15:25+12:00*
G04 #@! TF.ProjectId,esp_sens,6573705f-7365-46e7-932e-6b696361645f,rev?*
G04 #@! TF.SameCoordinates,Original*
G04 #@! TF.FileFunction,Copper,L2,Bot*
G04 #@! TF.FilePolarity,Positive*
%FSLAX46Y46*%
G04 Gerber Fmt 4.6, Leading zero omitted, Abs format (unit mm)*
G04 Created by KiCad (PCBNEW 5.0.2+dfsg1-1) date Fri 19 Apr 2019 11:15:25 NZST*
%MOMM*%
%LPD*%
G01*
G04 APERTURE LIST*
G04 #@! TA.AperFunction,ComponentPad*
%ADD10C,1.524000*%
G04 #@! TD*
G04 #@! TA.AperFunction,ComponentPad*
%ADD11O,3.600000X1.800000*%
G04 #@! TD*
G04 #@! TA.AperFunction,Conductor*
%ADD12C,0.100000*%
G04 #@! TD*
G04 #@! TA.AperFunction,ComponentPad*
%ADD13C,1.800000*%
G04 #@! TD*
G04 #@! TA.AperFunction,ComponentPad*
%ADD14C,7.500000*%
G04 #@! TD*
G04 #@! TA.AperFunction,ComponentPad*
%ADD15C,1.600000*%
G04 #@! TD*
G04 #@! TA.AperFunction,ComponentPad*
%ADD16O,1.600000X1.600000*%
G04 #@! TD*
G04 #@! TA.AperFunction,ComponentPad*
%ADD17O,1.800000X3.600000*%
G04 #@! TD*
G04 #@! TA.AperFunction,ViaPad*
%ADD18C,0.800000*%
G04 #@! TD*
G04 #@! TA.AperFunction,Conductor*
%ADD19C,0.500000*%
G04 #@! TD*
G04 #@! TA.AperFunction,Conductor*
%ADD20C,0.254000*%
G04 #@! TD*
G04 APERTURE END LIST*
D10*
G04 #@! TO.P,U1,1*
G04 #@! TO.N,Net-(U1-Pad1)*
X190722000Y-53149500D03*
G04 #@! TO.P,U1,2*
G04 #@! TO.N,Net-(U1-Pad2)*
X190722000Y-55689500D03*
G04 #@! TO.P,U1,3*
G04 #@! TO.N,Net-(U1-Pad3)*
X190722000Y-58229500D03*
G04 #@! TO.P,U1,4*
G04 #@! TO.N,Net-(U1-Pad4)*
X190722000Y-60769500D03*
G04 #@! TO.P,U1,5*
G04 #@! TO.N,Net-(U1-Pad5)*
X190722000Y-63309500D03*
G04 #@! TO.P,U1,6*
G04 #@! TO.N,Net-(U1-Pad6)*
X190722000Y-65849500D03*
G04 #@! TO.P,U1,7*
G04 #@! TO.N,Net-(U1-Pad7)*
X190722000Y-68389500D03*
G04 #@! TO.P,U1,8*
G04 #@! TO.N,Net-(U1-Pad8)*
X190722000Y-70929500D03*
G04 #@! TO.P,U1,9*
G04 #@! TO.N,Net-(U1-Pad9)*
X190722000Y-73469500D03*
G04 #@! TO.P,U1,10*
G04 #@! TO.N,Net-(U1-Pad10)*
X190722000Y-76009500D03*
G04 #@! TO.P,U1,11*
G04 #@! TO.N,Net-(U1-Pad11)*
X190722000Y-78549500D03*
G04 #@! TO.P,U1,12*
G04 #@! TO.N,Net-(U1-Pad12)*
X190722000Y-81089500D03*
G04 #@! TO.P,U1,13*
G04 #@! TO.N,Net-(U1-Pad13)*
X190722000Y-83629500D03*
G04 #@! TO.P,U1,14*
G04 #@! TO.N,IO_7*
X190722000Y-86169500D03*
G04 #@! TO.P,U1,15*
G04 #@! TO.N,Net-(U1-Pad15)*
X190722000Y-88709500D03*
G04 #@! TO.P,U1,16*
G04 #@! TO.N,Net-(U1-Pad16)*
X190722000Y-91249500D03*
G04 #@! TO.P,U1,17*
G04 #@! TO.N,IO_1*
X190722000Y-93789500D03*
G04 #@! TO.P,U1,18*
G04 #@! TO.N,Net-(U1-Pad18)*
X190722000Y-96329500D03*
G04 #@! TO.P,U1,19*
G04 #@! TO.N,Net-(U1-Pad19)*
X190722000Y-98615500D03*
G04 #@! TO.P,U1,20*
G04 #@! TO.N,+3V3*
X165322000Y-98615500D03*
G04 #@! TO.P,U1,21*
G04 #@! TO.N,Net-(U1-Pad21)*
X165322000Y-96075500D03*
G04 #@! TO.P,U1,22*
G04 #@! TO.N,Net-(U1-Pad22)*
X165322000Y-93535500D03*
G04 #@! TO.P,U1,23*
G04 #@! TO.N,Net-(U1-Pad23)*
X165322000Y-90995500D03*
G04 #@! TO.P,U1,24*
G04 #@! TO.N,Net-(U1-Pad24)*
X165322000Y-88455500D03*
G04 #@! TO.P,U1,25*
G04 #@! TO.N,Net-(U1-Pad25)*
X165322000Y-85915500D03*
G04 #@! TO.P,U1,26*
G04 #@! TO.N,IO_9*
X165322000Y-83375500D03*
G04 #@! TO.P,U1,27*
G04 #@! TO.N,IO_10*
X165322000Y-80835500D03*
G04 #@! TO.P,U1,28*
G04 #@! TO.N,DS1820*
X165322000Y-78295500D03*
G04 #@! TO.P,U1,29*
G04 #@! TO.N,IO_6*
X165322000Y-75755500D03*
G04 #@! TO.P,U1,30*
G04 #@! TO.N,Net-(U1-Pad30)*
X165322000Y-73215500D03*
G04 #@! TO.P,U1,31*
G04 #@! TO.N,Net-(U1-Pad31)*
X165322000Y-70675500D03*
G04 #@! TO.P,U1,32*
G04 #@! TO.N,Net-(U1-Pad32)*
X165322000Y-68135500D03*
G04 #@! TO.P,U1,33*
G04 #@! TO.N,GND*
X165322000Y-65595500D03*
G04 #@! TO.P,U1,34*
G04 #@! TO.N,Net-(U1-Pad34)*
X165322000Y-63055500D03*
G04 #@! TO.P,U1,35*
G04 #@! TO.N,Net-(U1-Pad35)*
X165322000Y-60515500D03*
G04 #@! TO.P,U1,36*
G04 #@! TO.N,Net-(U1-Pad36)*
X165322000Y-57975500D03*
G04 #@! TO.P,U1,37*
G04 #@! TO.N,Net-(U1-Pad37)*
X165322000Y-55435500D03*
G04 #@! TO.P,U1,38*
G04 #@! TO.N,+5V*
X165322000Y-52895500D03*
G04 #@! TD*
D11*
G04 #@! TO.P,P4,8*
G04 #@! TO.N,GND*
X177768000Y-92456000D03*
G04 #@! TO.P,P4,7*
G04 #@! TO.N,IO_1*
X177768000Y-88646000D03*
G04 #@! TO.P,P4,6*
G04 #@! TO.N,IO_9*
X177768000Y-84836000D03*
G04 #@! TO.P,P4,5*
G04 #@! TO.N,IO_10*
X177768000Y-81026000D03*
G04 #@! TO.P,P4,4*
G04 #@! TO.N,DS1820*
X177768000Y-77216000D03*
G04 #@! TO.P,P4,3*
G04 #@! TO.N,IO_6*
X177768000Y-73406000D03*
G04 #@! TO.P,P4,2*
G04 #@! TO.N,IO_7*
X177768000Y-69596000D03*
D12*
G04 #@! TD*
G04 #@! TO.N,+3V3*
G04 #@! TO.C,P4*
G36*
X179342504Y-64887204D02*
X179366773Y-64890804D01*
X179390571Y-64896765D01*
X179413671Y-64905030D01*
X179435849Y-64915520D01*
X179456893Y-64928133D01*
X179476598Y-64942747D01*
X179494777Y-64959223D01*
X179511253Y-64977402D01*
X179525867Y-64997107D01*
X179538480Y-65018151D01*
X179548970Y-65040329D01*
X179557235Y-65063429D01*
X179563196Y-65087227D01*
X179566796Y-65111496D01*
X179568000Y-65136000D01*
X179568000Y-66436000D01*
X179566796Y-66460504D01*
X179563196Y-66484773D01*
X179557235Y-66508571D01*
X179548970Y-66531671D01*
X179538480Y-66553849D01*
X179525867Y-66574893D01*
X179511253Y-66594598D01*
X179494777Y-66612777D01*
X179476598Y-66629253D01*
X179456893Y-66643867D01*
X179435849Y-66656480D01*
X179413671Y-66666970D01*
X179390571Y-66675235D01*
X179366773Y-66681196D01*
X179342504Y-66684796D01*
X179318000Y-66686000D01*
X176218000Y-66686000D01*
X176193496Y-66684796D01*
X176169227Y-66681196D01*
X176145429Y-66675235D01*
X176122329Y-66666970D01*
X176100151Y-66656480D01*
X176079107Y-66643867D01*
X176059402Y-66629253D01*
X176041223Y-66612777D01*
X176024747Y-66594598D01*
X176010133Y-66574893D01*
X175997520Y-66553849D01*
X175987030Y-66531671D01*
X175978765Y-66508571D01*
X175972804Y-66484773D01*
X175969204Y-66460504D01*
X175968000Y-66436000D01*
X175968000Y-65136000D01*
X175969204Y-65111496D01*
X175972804Y-65087227D01*
X175978765Y-65063429D01*
X175987030Y-65040329D01*
X175997520Y-65018151D01*
X176010133Y-64997107D01*
X176024747Y-64977402D01*
X176041223Y-64959223D01*
X176059402Y-64942747D01*
X176079107Y-64928133D01*
X176100151Y-64915520D01*
X176122329Y-64905030D01*
X176145429Y-64896765D01*
X176169227Y-64890804D01*
X176193496Y-64887204D01*
X176218000Y-64886000D01*
X179318000Y-64886000D01*
X179342504Y-64887204D01*
X179342504Y-64887204D01*
G37*
D13*
G04 #@! TO.P,P4,1*
G04 #@! TO.N,+3V3*
X177768000Y-65786000D03*
G04 #@! TD*
D14*
G04 #@! TO.P,P6,1*
G04 #@! TO.N,Net-(P6-Pad1)*
X198850000Y-100076000D03*
G04 #@! TD*
G04 #@! TO.P,P7,1*
G04 #@! TO.N,Net-(P7-Pad1)*
X158845000Y-51054000D03*
G04 #@! TD*
G04 #@! TO.P,P8,1*
G04 #@! TO.N,Net-(P8-Pad1)*
X147256500Y-107759500D03*
G04 #@! TD*
G04 #@! TO.P,P9,1*
G04 #@! TO.N,Net-(P9-Pad1)*
X158845000Y-100076000D03*
G04 #@! TD*
G04 #@! TO.P,P10,1*
G04 #@! TO.N,Net-(P10-Pad1)*
X198850000Y-51054000D03*
G04 #@! TD*
G04 #@! TO.P,P11,1*
G04 #@! TO.N,Net-(P11-Pad1)*
X147510500Y-51181000D03*
G04 #@! TD*
G04 #@! TO.P,P12,1*
G04 #@! TO.N,Net-(P12-Pad1)*
X111252000Y-107759500D03*
G04 #@! TD*
G04 #@! TO.P,P13,1*
G04 #@! TO.N,Net-(P13-Pad1)*
X111442500Y-51181000D03*
G04 #@! TD*
D15*
G04 #@! TO.P,R1,1*
G04 #@! TO.N,IO_9*
X171354500Y-89916000D03*
D16*
G04 #@! TO.P,R1,2*
G04 #@! TO.N,GND*
X171354500Y-79756000D03*
G04 #@! TD*
G04 #@! TO.P,R2,2*
G04 #@! TO.N,GNDA*
X131889500Y-78676500D03*
D15*
G04 #@! TO.P,R2,1*
G04 #@! TO.N,IO3*
X131889500Y-68516500D03*
G04 #@! TD*
D16*
G04 #@! TO.P,R3,2*
G04 #@! TO.N,DS1820*
X171291000Y-76517500D03*
D15*
G04 #@! TO.P,R3,1*
G04 #@! TO.N,+3V3*
X171291000Y-66357500D03*
G04 #@! TD*
G04 #@! TO.P,R4,1*
G04 #@! TO.N,+3.3VA*
X131762500Y-95885000D03*
D16*
G04 #@! TO.P,R4,2*
G04 #@! TO.N,DS1820a*
X131762500Y-85725000D03*
G04 #@! TD*
D10*
G04 #@! TO.P,U2,1*
G04 #@! TO.N,+5VA*
X116649500Y-90106500D03*
G04 #@! TO.P,U2,2*
G04 #@! TO.N,GNDA*
X116649500Y-87566500D03*
G04 #@! TO.P,U2,3*
X116649500Y-85026500D03*
G04 #@! TO.P,U2,4*
G04 #@! TO.N,+3.3VA*
X116649500Y-82486500D03*
G04 #@! TO.P,U2,5*
G04 #@! TO.N,Net-(U2-Pad5)*
X116649500Y-79946500D03*
G04 #@! TO.P,U2,6*
G04 #@! TO.N,Net-(U2-Pad6)*
X116649500Y-77406500D03*
G04 #@! TO.P,U2,7*
G04 #@! TO.N,DS1820a*
X116649500Y-74866500D03*
G04 #@! TO.P,U2,8*
G04 #@! TO.N,IO5*
X116649500Y-72326500D03*
G04 #@! TO.P,U2,9*
G04 #@! TO.N,Net-(U2-Pad9)*
X116649500Y-69786500D03*
G04 #@! TO.P,U2,10*
G04 #@! TO.N,IO3*
X116649500Y-67246500D03*
G04 #@! TO.P,U2,11*
G04 #@! TO.N,Net-(U2-Pad11)*
X116649500Y-64706500D03*
G04 #@! TO.P,U2,12*
G04 #@! TO.N,Net-(U2-Pad12)*
X116649500Y-62166500D03*
G04 #@! TO.P,U2,13*
G04 #@! TO.N,Net-(U2-Pad13)*
X116649500Y-59626500D03*
G04 #@! TO.P,U2,14*
G04 #@! TO.N,Net-(U2-Pad14)*
X116649500Y-57086500D03*
G04 #@! TO.P,U2,15*
G04 #@! TO.N,IO4*
X116649500Y-54546500D03*
G04 #@! TO.P,U2,16*
G04 #@! TO.N,Net-(U2-Pad16)*
X116649500Y-52006500D03*
G04 #@! TO.P,U2,17*
G04 #@! TO.N,Net-(U2-Pad17)*
X142049500Y-50736500D03*
G04 #@! TO.P,U2,18*
G04 #@! TO.N,IO2*
X142049500Y-53276500D03*
G04 #@! TO.P,U2,19*
G04 #@! TO.N,IO1*
X142049500Y-55816500D03*
G04 #@! TO.P,U2,20*
G04 #@! TO.N,Net-(U2-Pad20)*
X142049500Y-58356500D03*
G04 #@! TO.P,U2,21*
G04 #@! TO.N,Net-(U2-Pad21)*
X142049500Y-60896500D03*
G04 #@! TO.P,U2,22*
G04 #@! TO.N,Net-(U2-Pad22)*
X142049500Y-63436500D03*
G04 #@! TO.P,U2,23*
G04 #@! TO.N,Net-(U2-Pad23)*
X142049500Y-65976500D03*
G04 #@! TO.P,U2,24*
G04 #@! TO.N,Net-(U2-Pad24)*
X142049500Y-68516500D03*
G04 #@! TO.P,U2,25*
G04 #@! TO.N,Net-(U2-Pad25)*
X142049500Y-71056500D03*
G04 #@! TO.P,U2,26*
G04 #@! TO.N,Net-(U2-Pad26)*
X142049500Y-73596500D03*
G04 #@! TD*
D12*
G04 #@! TO.N,+5V*
G04 #@! TO.C,P1*
G36*
X175585004Y-51795204D02*
X175609273Y-51798804D01*
X175633071Y-51804765D01*
X175656171Y-51813030D01*
X175678349Y-51823520D01*
X175699393Y-51836133D01*
X175719098Y-51850747D01*
X175737277Y-51867223D01*
X175753753Y-51885402D01*
X175768367Y-51905107D01*
X175780980Y-51926151D01*
X175791470Y-51948329D01*
X175799735Y-51971429D01*
X175805696Y-51995227D01*
X175809296Y-52019496D01*
X175810500Y-52044000D01*
X175810500Y-55144000D01*
X175809296Y-55168504D01*
X175805696Y-55192773D01*
X175799735Y-55216571D01*
X175791470Y-55239671D01*
X175780980Y-55261849D01*
X175768367Y-55282893D01*
X175753753Y-55302598D01*
X175737277Y-55320777D01*
X175719098Y-55337253D01*
X175699393Y-55351867D01*
X175678349Y-55364480D01*
X175656171Y-55374970D01*
X175633071Y-55383235D01*
X175609273Y-55389196D01*
X175585004Y-55392796D01*
X175560500Y-55394000D01*
X174260500Y-55394000D01*
X174235996Y-55392796D01*
X174211727Y-55389196D01*
X174187929Y-55383235D01*
X174164829Y-55374970D01*
X174142651Y-55364480D01*
X174121607Y-55351867D01*
X174101902Y-55337253D01*
X174083723Y-55320777D01*
X174067247Y-55302598D01*
X174052633Y-55282893D01*
X174040020Y-55261849D01*
X174029530Y-55239671D01*
X174021265Y-55216571D01*
X174015304Y-55192773D01*
X174011704Y-55168504D01*
X174010500Y-55144000D01*
X174010500Y-52044000D01*
X174011704Y-52019496D01*
X174015304Y-51995227D01*
X174021265Y-51971429D01*
X174029530Y-51948329D01*
X174040020Y-51926151D01*
X174052633Y-51905107D01*
X174067247Y-51885402D01*
X174083723Y-51867223D01*
X174101902Y-51850747D01*
X174121607Y-51836133D01*
X174142651Y-51823520D01*
X174164829Y-51813030D01*
X174187929Y-51804765D01*
X174211727Y-51798804D01*
X174235996Y-51795204D01*
X174260500Y-51794000D01*
X175560500Y-51794000D01*
X175585004Y-51795204D01*
X175585004Y-51795204D01*
G37*
D13*
G04 #@! TD*
G04 #@! TO.P,P1,1*
G04 #@! TO.N,+5V*
X174910500Y-53594000D03*
D17*
G04 #@! TO.P,P1,2*
G04 #@! TO.N,GND*
X178720500Y-53594000D03*
G04 #@! TO.P,P1,3*
G04 #@! TO.N,+3V3*
X182530500Y-53594000D03*
G04 #@! TD*
D11*
G04 #@! TO.P,P2,3*
G04 #@! TO.N,GNDA*
X140335000Y-88392000D03*
G04 #@! TO.P,P2,2*
G04 #@! TO.N,+3.3VA*
X140335000Y-84582000D03*
D12*
G04 #@! TD*
G04 #@! TO.N,+5VA*
G04 #@! TO.C,P2*
G36*
X141909504Y-79873204D02*
X141933773Y-79876804D01*
X141957571Y-79882765D01*
X141980671Y-79891030D01*
X142002849Y-79901520D01*
X142023893Y-79914133D01*
X142043598Y-79928747D01*
X142061777Y-79945223D01*
X142078253Y-79963402D01*
X142092867Y-79983107D01*
X142105480Y-80004151D01*
X142115970Y-80026329D01*
X142124235Y-80049429D01*
X142130196Y-80073227D01*
X142133796Y-80097496D01*
X142135000Y-80122000D01*
X142135000Y-81422000D01*
X142133796Y-81446504D01*
X142130196Y-81470773D01*
X142124235Y-81494571D01*
X142115970Y-81517671D01*
X142105480Y-81539849D01*
X142092867Y-81560893D01*
X142078253Y-81580598D01*
X142061777Y-81598777D01*
X142043598Y-81615253D01*
X142023893Y-81629867D01*
X142002849Y-81642480D01*
X141980671Y-81652970D01*
X141957571Y-81661235D01*
X141933773Y-81667196D01*
X141909504Y-81670796D01*
X141885000Y-81672000D01*
X138785000Y-81672000D01*
X138760496Y-81670796D01*
X138736227Y-81667196D01*
X138712429Y-81661235D01*
X138689329Y-81652970D01*
X138667151Y-81642480D01*
X138646107Y-81629867D01*
X138626402Y-81615253D01*
X138608223Y-81598777D01*
X138591747Y-81580598D01*
X138577133Y-81560893D01*
X138564520Y-81539849D01*
X138554030Y-81517671D01*
X138545765Y-81494571D01*
X138539804Y-81470773D01*
X138536204Y-81446504D01*
X138535000Y-81422000D01*
X138535000Y-80122000D01*
X138536204Y-80097496D01*
X138539804Y-80073227D01*
X138545765Y-80049429D01*
X138554030Y-80026329D01*
X138564520Y-80004151D01*
X138577133Y-79983107D01*
X138591747Y-79963402D01*
X138608223Y-79945223D01*
X138626402Y-79928747D01*
X138646107Y-79914133D01*
X138667151Y-79901520D01*
X138689329Y-79891030D01*
X138712429Y-79882765D01*
X138736227Y-79876804D01*
X138760496Y-79873204D01*
X138785000Y-79872000D01*
X141885000Y-79872000D01*
X141909504Y-79873204D01*
X141909504Y-79873204D01*
G37*
D13*
G04 #@! TO.P,P2,1*
G04 #@! TO.N,+5VA*
X140335000Y-80772000D03*
G04 #@! TD*
D12*
G04 #@! TO.N,IO4*
G04 #@! TO.C,P5*
G36*
X126034504Y-67681204D02*
X126058773Y-67684804D01*
X126082571Y-67690765D01*
X126105671Y-67699030D01*
X126127849Y-67709520D01*
X126148893Y-67722133D01*
X126168598Y-67736747D01*
X126186777Y-67753223D01*
X126203253Y-67771402D01*
X126217867Y-67791107D01*
X126230480Y-67812151D01*
X126240970Y-67834329D01*
X126249235Y-67857429D01*
X126255196Y-67881227D01*
X126258796Y-67905496D01*
X126260000Y-67930000D01*
X126260000Y-69230000D01*
X126258796Y-69254504D01*
X126255196Y-69278773D01*
X126249235Y-69302571D01*
X126240970Y-69325671D01*
X126230480Y-69347849D01*
X126217867Y-69368893D01*
X126203253Y-69388598D01*
X126186777Y-69406777D01*
X126168598Y-69423253D01*
X126148893Y-69437867D01*
X126127849Y-69450480D01*
X126105671Y-69460970D01*
X126082571Y-69469235D01*
X126058773Y-69475196D01*
X126034504Y-69478796D01*
X126010000Y-69480000D01*
X122910000Y-69480000D01*
X122885496Y-69478796D01*
X122861227Y-69475196D01*
X122837429Y-69469235D01*
X122814329Y-69460970D01*
X122792151Y-69450480D01*
X122771107Y-69437867D01*
X122751402Y-69423253D01*
X122733223Y-69406777D01*
X122716747Y-69388598D01*
X122702133Y-69368893D01*
X122689520Y-69347849D01*
X122679030Y-69325671D01*
X122670765Y-69302571D01*
X122664804Y-69278773D01*
X122661204Y-69254504D01*
X122660000Y-69230000D01*
X122660000Y-67930000D01*
X122661204Y-67905496D01*
X122664804Y-67881227D01*
X122670765Y-67857429D01*
X122679030Y-67834329D01*
X122689520Y-67812151D01*
X122702133Y-67791107D01*
X122716747Y-67771402D01*
X122733223Y-67753223D01*
X122751402Y-67736747D01*
X122771107Y-67722133D01*
X122792151Y-67709520D01*
X122814329Y-67699030D01*
X122837429Y-67690765D01*
X122861227Y-67684804D01*
X122885496Y-67681204D01*
X122910000Y-67680000D01*
X126010000Y-67680000D01*
X126034504Y-67681204D01*
X126034504Y-67681204D01*
G37*
D13*
G04 #@! TD*
G04 #@! TO.P,P5,1*
G04 #@! TO.N,IO4*
X124460000Y-68580000D03*
D11*
G04 #@! TO.P,P5,2*
G04 #@! TO.N,IO2*
X124460000Y-72390000D03*
G04 #@! TO.P,P5,3*
G04 #@! TO.N,IO1*
X124460000Y-76200000D03*
G04 #@! TO.P,P5,4*
G04 #@! TO.N,IO3*
X124460000Y-80010000D03*
G04 #@! TO.P,P5,5*
G04 #@! TO.N,IO5*
X124460000Y-83820000D03*
G04 #@! TO.P,P5,6*
G04 #@! TO.N,DS1820a*
X124460000Y-87630000D03*
G04 #@! TO.P,P5,7*
G04 #@! TO.N,+3.3VA*
X124460000Y-91440000D03*
G04 #@! TO.P,P5,8*
G04 #@! TO.N,GNDA*
X124460000Y-95250000D03*
G04 #@! TD*
D18*
G04 #@! TO.N,IO_1*
X181546500Y-88646000D03*
X186436000Y-88709500D03*
G04 #@! TO.N,IO_7*
X181356000Y-72580500D03*
X186118500Y-72580500D03*
G04 #@! TD*
D19*
G04 #@! TO.N,IO_1*
X181546500Y-88646000D02*
X186372500Y-88646000D01*
X186372500Y-88646000D02*
X186436000Y-88709500D01*
G04 #@! TO.N,IO_7*
X181356000Y-72580500D02*
X186118500Y-72580500D01*
G04 #@! TD*
D20*
G04 #@! TO.N,GNDA*
G36*
X143793077Y-48697097D02*
X143254965Y-49996212D01*
X143233820Y-49945163D01*
X142840837Y-49552180D01*
X142327381Y-49339500D01*
X141771619Y-49339500D01*
X141258163Y-49552180D01*
X140865180Y-49945163D01*
X140652500Y-50458619D01*
X140652500Y-51014381D01*
X140865180Y-51527837D01*
X141258163Y-51920820D01*
X141465013Y-52006500D01*
X141258163Y-52092180D01*
X140865180Y-52485163D01*
X140652500Y-52998619D01*
X140652500Y-53554381D01*
X140865180Y-54067837D01*
X141258163Y-54460820D01*
X141465013Y-54546500D01*
X141258163Y-54632180D01*
X140865180Y-55025163D01*
X140652500Y-55538619D01*
X140652500Y-56094381D01*
X140865180Y-56607837D01*
X141258163Y-57000820D01*
X141465013Y-57086500D01*
X141258163Y-57172180D01*
X140865180Y-57565163D01*
X140652500Y-58078619D01*
X140652500Y-58634381D01*
X140865180Y-59147837D01*
X141258163Y-59540820D01*
X141465013Y-59626500D01*
X141258163Y-59712180D01*
X140865180Y-60105163D01*
X140652500Y-60618619D01*
X140652500Y-61174381D01*
X140865180Y-61687837D01*
X141258163Y-62080820D01*
X141465013Y-62166500D01*
X141258163Y-62252180D01*
X140865180Y-62645163D01*
X140652500Y-63158619D01*
X140652500Y-63714381D01*
X140865180Y-64227837D01*
X141258163Y-64620820D01*
X141465013Y-64706500D01*
X141258163Y-64792180D01*
X140865180Y-65185163D01*
X140652500Y-65698619D01*
X140652500Y-66254381D01*
X140865180Y-66767837D01*
X141258163Y-67160820D01*
X141465013Y-67246500D01*
X141258163Y-67332180D01*
X140865180Y-67725163D01*
X140652500Y-68238619D01*
X140652500Y-68794381D01*
X140865180Y-69307837D01*
X141258163Y-69700820D01*
X141465013Y-69786500D01*
X141258163Y-69872180D01*
X140865180Y-70265163D01*
X140652500Y-70778619D01*
X140652500Y-71334381D01*
X140865180Y-71847837D01*
X141258163Y-72240820D01*
X141465013Y-72326500D01*
X141258163Y-72412180D01*
X140865180Y-72805163D01*
X140652500Y-73318619D01*
X140652500Y-73874381D01*
X140865180Y-74387837D01*
X141258163Y-74780820D01*
X141771619Y-74993500D01*
X142327381Y-74993500D01*
X142840837Y-74780820D01*
X143233820Y-74387837D01*
X143446500Y-73874381D01*
X143446500Y-73318619D01*
X143233820Y-72805163D01*
X142840837Y-72412180D01*
X142633987Y-72326500D01*
X142840837Y-72240820D01*
X143233820Y-71847837D01*
X143446500Y-71334381D01*
X143446500Y-70778619D01*
X143233820Y-70265163D01*
X142840837Y-69872180D01*
X142633987Y-69786500D01*
X142840837Y-69700820D01*
X143233820Y-69307837D01*
X143446500Y-68794381D01*
X143446500Y-68238619D01*
X143233820Y-67725163D01*
X142840837Y-67332180D01*
X142633987Y-67246500D01*
X142840837Y-67160820D01*
X143233820Y-66767837D01*
X143446500Y-66254381D01*
X143446500Y-65698619D01*
X143233820Y-65185163D01*
X142840837Y-64792180D01*
X142633987Y-64706500D01*
X142840837Y-64620820D01*
X143233820Y-64227837D01*
X143446500Y-63714381D01*
X143446500Y-63158619D01*
X143233820Y-62645163D01*
X142840837Y-62252180D01*
X142633987Y-62166500D01*
X142840837Y-62080820D01*
X143233820Y-61687837D01*
X143446500Y-61174381D01*
X143446500Y-60618619D01*
X143233820Y-60105163D01*
X142840837Y-59712180D01*
X142633987Y-59626500D01*
X142840837Y-59540820D01*
X143233820Y-59147837D01*
X143446500Y-58634381D01*
X143446500Y-58078619D01*
X143233820Y-57565163D01*
X142840837Y-57172180D01*
X142633987Y-57086500D01*
X142840837Y-57000820D01*
X143233820Y-56607837D01*
X143446500Y-56094381D01*
X143446500Y-55538619D01*
X143233820Y-55025163D01*
X142840837Y-54632180D01*
X142633987Y-54546500D01*
X142840837Y-54460820D01*
X143233820Y-54067837D01*
X143446500Y-53554381D01*
X143446500Y-52998619D01*
X143233820Y-52485163D01*
X142840837Y-52092180D01*
X142633987Y-52006500D01*
X142840837Y-51920820D01*
X143125500Y-51636157D01*
X143125500Y-52053231D01*
X143793077Y-53664903D01*
X145026597Y-54898423D01*
X146638269Y-55566000D01*
X148382731Y-55566000D01*
X149994403Y-54898423D01*
X151003000Y-53889826D01*
X151003000Y-105345795D01*
X150973923Y-105275597D01*
X149740403Y-104042077D01*
X148128731Y-103374500D01*
X146384269Y-103374500D01*
X144772597Y-104042077D01*
X143539077Y-105275597D01*
X142871500Y-106887269D01*
X142871500Y-108631731D01*
X143539077Y-110243403D01*
X144091674Y-110796000D01*
X114416826Y-110796000D01*
X114969423Y-110243403D01*
X115637000Y-108631731D01*
X115637000Y-106887269D01*
X114969423Y-105275597D01*
X113735903Y-104042077D01*
X112124231Y-103374500D01*
X110379769Y-103374500D01*
X108768097Y-104042077D01*
X108215500Y-104594674D01*
X108215500Y-95614740D01*
X122068964Y-95614740D01*
X122093244Y-95720086D01*
X122384788Y-96245606D01*
X122855248Y-96619554D01*
X123433000Y-96785000D01*
X124333000Y-96785000D01*
X124333000Y-95377000D01*
X124587000Y-95377000D01*
X124587000Y-96785000D01*
X125487000Y-96785000D01*
X126064752Y-96619554D01*
X126535212Y-96245606D01*
X126826756Y-95720086D01*
X126851036Y-95614740D01*
X126843333Y-95599561D01*
X130327500Y-95599561D01*
X130327500Y-96170439D01*
X130545966Y-96697862D01*
X130949638Y-97101534D01*
X131477061Y-97320000D01*
X132047939Y-97320000D01*
X132575362Y-97101534D01*
X132979034Y-96697862D01*
X133197500Y-96170439D01*
X133197500Y-95599561D01*
X132979034Y-95072138D01*
X132575362Y-94668466D01*
X132047939Y-94450000D01*
X131477061Y-94450000D01*
X130949638Y-94668466D01*
X130545966Y-95072138D01*
X130327500Y-95599561D01*
X126843333Y-95599561D01*
X126730378Y-95377000D01*
X124587000Y-95377000D01*
X124333000Y-95377000D01*
X122189622Y-95377000D01*
X122068964Y-95614740D01*
X108215500Y-95614740D01*
X108215500Y-94885260D01*
X122068964Y-94885260D01*
X122189622Y-95123000D01*
X124333000Y-95123000D01*
X124333000Y-93715000D01*
X124587000Y-93715000D01*
X124587000Y-95123000D01*
X126730378Y-95123000D01*
X126851036Y-94885260D01*
X126826756Y-94779914D01*
X126535212Y-94254394D01*
X126064752Y-93880446D01*
X125487000Y-93715000D01*
X124587000Y-93715000D01*
X124333000Y-93715000D01*
X123433000Y-93715000D01*
X122855248Y-93880446D01*
X122384788Y-94254394D01*
X122093244Y-94779914D01*
X122068964Y-94885260D01*
X108215500Y-94885260D01*
X108215500Y-89828619D01*
X115252500Y-89828619D01*
X115252500Y-90384381D01*
X115465180Y-90897837D01*
X115858163Y-91290820D01*
X116371619Y-91503500D01*
X116927381Y-91503500D01*
X117080683Y-91440000D01*
X121994928Y-91440000D01*
X122114062Y-92038927D01*
X122453327Y-92546673D01*
X122961073Y-92885938D01*
X123408818Y-92975000D01*
X125511182Y-92975000D01*
X125958927Y-92885938D01*
X126466673Y-92546673D01*
X126805938Y-92038927D01*
X126925072Y-91440000D01*
X126805938Y-90841073D01*
X126466673Y-90333327D01*
X125958927Y-89994062D01*
X125511182Y-89905000D01*
X123408818Y-89905000D01*
X122961073Y-89994062D01*
X122453327Y-90333327D01*
X122114062Y-90841073D01*
X121994928Y-91440000D01*
X117080683Y-91440000D01*
X117440837Y-91290820D01*
X117833820Y-90897837D01*
X118046500Y-90384381D01*
X118046500Y-89828619D01*
X117833820Y-89315163D01*
X117440837Y-88922180D01*
X117249853Y-88843072D01*
X117380643Y-88788897D01*
X117450108Y-88546713D01*
X116649500Y-87746105D01*
X115848892Y-88546713D01*
X115918357Y-88788897D01*
X116058893Y-88839035D01*
X115858163Y-88922180D01*
X115465180Y-89315163D01*
X115252500Y-89828619D01*
X108215500Y-89828619D01*
X108215500Y-87358802D01*
X115240356Y-87358802D01*
X115268138Y-87913868D01*
X115427103Y-88297643D01*
X115669287Y-88367108D01*
X116469895Y-87566500D01*
X116829105Y-87566500D01*
X117629713Y-88367108D01*
X117871897Y-88297643D01*
X118058644Y-87774198D01*
X118051427Y-87630000D01*
X121994928Y-87630000D01*
X122114062Y-88228927D01*
X122453327Y-88736673D01*
X122961073Y-89075938D01*
X123408818Y-89165000D01*
X125511182Y-89165000D01*
X125958927Y-89075938D01*
X126436640Y-88756740D01*
X137943964Y-88756740D01*
X137968244Y-88862086D01*
X138259788Y-89387606D01*
X138730248Y-89761554D01*
X139308000Y-89927000D01*
X140208000Y-89927000D01*
X140208000Y-88519000D01*
X140462000Y-88519000D01*
X140462000Y-89927000D01*
X141362000Y-89927000D01*
X141939752Y-89761554D01*
X142410212Y-89387606D01*
X142701756Y-88862086D01*
X142726036Y-88756740D01*
X142605378Y-88519000D01*
X140462000Y-88519000D01*
X140208000Y-88519000D01*
X138064622Y-88519000D01*
X137943964Y-88756740D01*
X126436640Y-88756740D01*
X126466673Y-88736673D01*
X126805938Y-88228927D01*
X126846052Y-88027260D01*
X137943964Y-88027260D01*
X138064622Y-88265000D01*
X140208000Y-88265000D01*
X140208000Y-86857000D01*
X140462000Y-86857000D01*
X140462000Y-88265000D01*
X142605378Y-88265000D01*
X142726036Y-88027260D01*
X142701756Y-87921914D01*
X142410212Y-87396394D01*
X141939752Y-87022446D01*
X141362000Y-86857000D01*
X140462000Y-86857000D01*
X140208000Y-86857000D01*
X139308000Y-86857000D01*
X138730248Y-87022446D01*
X138259788Y-87396394D01*
X137968244Y-87921914D01*
X137943964Y-88027260D01*
X126846052Y-88027260D01*
X126925072Y-87630000D01*
X126805938Y-87031073D01*
X126466673Y-86523327D01*
X125958927Y-86184062D01*
X125511182Y-86095000D01*
X123408818Y-86095000D01*
X122961073Y-86184062D01*
X122453327Y-86523327D01*
X122114062Y-87031073D01*
X121994928Y-87630000D01*
X118051427Y-87630000D01*
X118030862Y-87219132D01*
X117871897Y-86835357D01*
X117629713Y-86765892D01*
X116829105Y-87566500D01*
X116469895Y-87566500D01*
X115669287Y-86765892D01*
X115427103Y-86835357D01*
X115240356Y-87358802D01*
X108215500Y-87358802D01*
X108215500Y-86006713D01*
X115848892Y-86006713D01*
X115918357Y-86248897D01*
X116041844Y-86292953D01*
X115918357Y-86344103D01*
X115848892Y-86586287D01*
X116649500Y-87386895D01*
X117450108Y-86586287D01*
X117380643Y-86344103D01*
X117257156Y-86300047D01*
X117380643Y-86248897D01*
X117450108Y-86006713D01*
X116649500Y-85206105D01*
X115848892Y-86006713D01*
X108215500Y-86006713D01*
X108215500Y-84818802D01*
X115240356Y-84818802D01*
X115268138Y-85373868D01*
X115427103Y-85757643D01*
X115669287Y-85827108D01*
X116469895Y-85026500D01*
X116829105Y-85026500D01*
X117629713Y-85827108D01*
X117871897Y-85757643D01*
X117883542Y-85725000D01*
X130299387Y-85725000D01*
X130410760Y-86284909D01*
X130727923Y-86759577D01*
X131202591Y-87076740D01*
X131621167Y-87160000D01*
X131903833Y-87160000D01*
X132322409Y-87076740D01*
X132797077Y-86759577D01*
X133114240Y-86284909D01*
X133225613Y-85725000D01*
X133114240Y-85165091D01*
X132797077Y-84690423D01*
X132634811Y-84582000D01*
X137869928Y-84582000D01*
X137989062Y-85180927D01*
X138328327Y-85688673D01*
X138836073Y-86027938D01*
X139283818Y-86117000D01*
X141386182Y-86117000D01*
X141833927Y-86027938D01*
X142341673Y-85688673D01*
X142680938Y-85180927D01*
X142800072Y-84582000D01*
X142680938Y-83983073D01*
X142341673Y-83475327D01*
X141833927Y-83136062D01*
X141386182Y-83047000D01*
X139283818Y-83047000D01*
X138836073Y-83136062D01*
X138328327Y-83475327D01*
X137989062Y-83983073D01*
X137869928Y-84582000D01*
X132634811Y-84582000D01*
X132322409Y-84373260D01*
X131903833Y-84290000D01*
X131621167Y-84290000D01*
X131202591Y-84373260D01*
X130727923Y-84690423D01*
X130410760Y-85165091D01*
X130299387Y-85725000D01*
X117883542Y-85725000D01*
X118058644Y-85234198D01*
X118030862Y-84679132D01*
X117871897Y-84295357D01*
X117629713Y-84225892D01*
X116829105Y-85026500D01*
X116469895Y-85026500D01*
X115669287Y-84225892D01*
X115427103Y-84295357D01*
X115240356Y-84818802D01*
X108215500Y-84818802D01*
X108215500Y-54155326D01*
X108958597Y-54898423D01*
X110570269Y-55566000D01*
X112314731Y-55566000D01*
X113926403Y-54898423D01*
X115159923Y-53664903D01*
X115503289Y-52835946D01*
X115858163Y-53190820D01*
X116065013Y-53276500D01*
X115858163Y-53362180D01*
X115465180Y-53755163D01*
X115252500Y-54268619D01*
X115252500Y-54824381D01*
X115465180Y-55337837D01*
X115858163Y-55730820D01*
X116065013Y-55816500D01*
X115858163Y-55902180D01*
X115465180Y-56295163D01*
X115252500Y-56808619D01*
X115252500Y-57364381D01*
X115465180Y-57877837D01*
X115858163Y-58270820D01*
X116065013Y-58356500D01*
X115858163Y-58442180D01*
X115465180Y-58835163D01*
X115252500Y-59348619D01*
X115252500Y-59904381D01*
X115465180Y-60417837D01*
X115858163Y-60810820D01*
X116065013Y-60896500D01*
X115858163Y-60982180D01*
X115465180Y-61375163D01*
X115252500Y-61888619D01*
X115252500Y-62444381D01*
X115465180Y-62957837D01*
X115858163Y-63350820D01*
X116065013Y-63436500D01*
X115858163Y-63522180D01*
X115465180Y-63915163D01*
X115252500Y-64428619D01*
X115252500Y-64984381D01*
X115465180Y-65497837D01*
X115858163Y-65890820D01*
X116065013Y-65976500D01*
X115858163Y-66062180D01*
X115465180Y-66455163D01*
X115252500Y-66968619D01*
X115252500Y-67524381D01*
X115465180Y-68037837D01*
X115858163Y-68430820D01*
X116065013Y-68516500D01*
X115858163Y-68602180D01*
X115465180Y-68995163D01*
X115252500Y-69508619D01*
X115252500Y-70064381D01*
X115465180Y-70577837D01*
X115858163Y-70970820D01*
X116065013Y-71056500D01*
X115858163Y-71142180D01*
X115465180Y-71535163D01*
X115252500Y-72048619D01*
X115252500Y-72604381D01*
X115465180Y-73117837D01*
X115858163Y-73510820D01*
X116065013Y-73596500D01*
X115858163Y-73682180D01*
X115465180Y-74075163D01*
X115252500Y-74588619D01*
X115252500Y-75144381D01*
X115465180Y-75657837D01*
X115858163Y-76050820D01*
X116065013Y-76136500D01*
X115858163Y-76222180D01*
X115465180Y-76615163D01*
X115252500Y-77128619D01*
X115252500Y-77684381D01*
X115465180Y-78197837D01*
X115858163Y-78590820D01*
X116065013Y-78676500D01*
X115858163Y-78762180D01*
X115465180Y-79155163D01*
X115252500Y-79668619D01*
X115252500Y-80224381D01*
X115465180Y-80737837D01*
X115858163Y-81130820D01*
X116065013Y-81216500D01*
X115858163Y-81302180D01*
X115465180Y-81695163D01*
X115252500Y-82208619D01*
X115252500Y-82764381D01*
X115465180Y-83277837D01*
X115858163Y-83670820D01*
X116049147Y-83749928D01*
X115918357Y-83804103D01*
X115848892Y-84046287D01*
X116649500Y-84846895D01*
X117450108Y-84046287D01*
X117385203Y-83820000D01*
X121994928Y-83820000D01*
X122114062Y-84418927D01*
X122453327Y-84926673D01*
X122961073Y-85265938D01*
X123408818Y-85355000D01*
X125511182Y-85355000D01*
X125958927Y-85265938D01*
X126466673Y-84926673D01*
X126805938Y-84418927D01*
X126925072Y-83820000D01*
X126805938Y-83221073D01*
X126466673Y-82713327D01*
X125958927Y-82374062D01*
X125511182Y-82285000D01*
X123408818Y-82285000D01*
X122961073Y-82374062D01*
X122453327Y-82713327D01*
X122114062Y-83221073D01*
X121994928Y-83820000D01*
X117385203Y-83820000D01*
X117380643Y-83804103D01*
X117240107Y-83753965D01*
X117440837Y-83670820D01*
X117833820Y-83277837D01*
X118046500Y-82764381D01*
X118046500Y-82208619D01*
X117833820Y-81695163D01*
X117440837Y-81302180D01*
X117233987Y-81216500D01*
X117440837Y-81130820D01*
X117833820Y-80737837D01*
X118046500Y-80224381D01*
X118046500Y-80010000D01*
X121994928Y-80010000D01*
X122114062Y-80608927D01*
X122453327Y-81116673D01*
X122961073Y-81455938D01*
X123408818Y-81545000D01*
X125511182Y-81545000D01*
X125958927Y-81455938D01*
X126466673Y-81116673D01*
X126805938Y-80608927D01*
X126902793Y-80122000D01*
X137887560Y-80122000D01*
X137887560Y-81422000D01*
X137955874Y-81765435D01*
X138150414Y-82056586D01*
X138441565Y-82251126D01*
X138785000Y-82319440D01*
X141885000Y-82319440D01*
X142228435Y-82251126D01*
X142519586Y-82056586D01*
X142714126Y-81765435D01*
X142782440Y-81422000D01*
X142782440Y-80122000D01*
X142714126Y-79778565D01*
X142519586Y-79487414D01*
X142228435Y-79292874D01*
X141885000Y-79224560D01*
X138785000Y-79224560D01*
X138441565Y-79292874D01*
X138150414Y-79487414D01*
X137955874Y-79778565D01*
X137887560Y-80122000D01*
X126902793Y-80122000D01*
X126925072Y-80010000D01*
X126805938Y-79411073D01*
X126548334Y-79025541D01*
X130497586Y-79025541D01*
X130737111Y-79531634D01*
X131152077Y-79907541D01*
X131540461Y-80068404D01*
X131762500Y-79946415D01*
X131762500Y-78803500D01*
X132016500Y-78803500D01*
X132016500Y-79946415D01*
X132238539Y-80068404D01*
X132626923Y-79907541D01*
X133041889Y-79531634D01*
X133281414Y-79025541D01*
X133160129Y-78803500D01*
X132016500Y-78803500D01*
X131762500Y-78803500D01*
X130618871Y-78803500D01*
X130497586Y-79025541D01*
X126548334Y-79025541D01*
X126466673Y-78903327D01*
X125958927Y-78564062D01*
X125511182Y-78475000D01*
X123408818Y-78475000D01*
X122961073Y-78564062D01*
X122453327Y-78903327D01*
X122114062Y-79411073D01*
X121994928Y-80010000D01*
X118046500Y-80010000D01*
X118046500Y-79668619D01*
X117833820Y-79155163D01*
X117440837Y-78762180D01*
X117233987Y-78676500D01*
X117440837Y-78590820D01*
X117704198Y-78327459D01*
X130497586Y-78327459D01*
X130618871Y-78549500D01*
X131762500Y-78549500D01*
X131762500Y-77406585D01*
X132016500Y-77406585D01*
X132016500Y-78549500D01*
X133160129Y-78549500D01*
X133281414Y-78327459D01*
X133041889Y-77821366D01*
X132626923Y-77445459D01*
X132238539Y-77284596D01*
X132016500Y-77406585D01*
X131762500Y-77406585D01*
X131540461Y-77284596D01*
X131152077Y-77445459D01*
X130737111Y-77821366D01*
X130497586Y-78327459D01*
X117704198Y-78327459D01*
X117833820Y-78197837D01*
X118046500Y-77684381D01*
X118046500Y-77128619D01*
X117833820Y-76615163D01*
X117440837Y-76222180D01*
X117387290Y-76200000D01*
X121994928Y-76200000D01*
X122114062Y-76798927D01*
X122453327Y-77306673D01*
X122961073Y-77645938D01*
X123408818Y-77735000D01*
X125511182Y-77735000D01*
X125958927Y-77645938D01*
X126466673Y-77306673D01*
X126805938Y-76798927D01*
X126925072Y-76200000D01*
X126805938Y-75601073D01*
X126466673Y-75093327D01*
X125958927Y-74754062D01*
X125511182Y-74665000D01*
X123408818Y-74665000D01*
X122961073Y-74754062D01*
X122453327Y-75093327D01*
X122114062Y-75601073D01*
X121994928Y-76200000D01*
X117387290Y-76200000D01*
X117233987Y-76136500D01*
X117440837Y-76050820D01*
X117833820Y-75657837D01*
X118046500Y-75144381D01*
X118046500Y-74588619D01*
X117833820Y-74075163D01*
X117440837Y-73682180D01*
X117233987Y-73596500D01*
X117440837Y-73510820D01*
X117833820Y-73117837D01*
X118046500Y-72604381D01*
X118046500Y-72390000D01*
X121994928Y-72390000D01*
X122114062Y-72988927D01*
X122453327Y-73496673D01*
X122961073Y-73835938D01*
X123408818Y-73925000D01*
X125511182Y-73925000D01*
X125958927Y-73835938D01*
X126466673Y-73496673D01*
X126805938Y-72988927D01*
X126925072Y-72390000D01*
X126805938Y-71791073D01*
X126466673Y-71283327D01*
X125958927Y-70944062D01*
X125511182Y-70855000D01*
X123408818Y-70855000D01*
X122961073Y-70944062D01*
X122453327Y-71283327D01*
X122114062Y-71791073D01*
X121994928Y-72390000D01*
X118046500Y-72390000D01*
X118046500Y-72048619D01*
X117833820Y-71535163D01*
X117440837Y-71142180D01*
X117233987Y-71056500D01*
X117440837Y-70970820D01*
X117833820Y-70577837D01*
X118046500Y-70064381D01*
X118046500Y-69508619D01*
X117833820Y-68995163D01*
X117440837Y-68602180D01*
X117233987Y-68516500D01*
X117440837Y-68430820D01*
X117833820Y-68037837D01*
X117878487Y-67930000D01*
X122012560Y-67930000D01*
X122012560Y-69230000D01*
X122080874Y-69573435D01*
X122275414Y-69864586D01*
X122566565Y-70059126D01*
X122910000Y-70127440D01*
X126010000Y-70127440D01*
X126353435Y-70059126D01*
X126644586Y-69864586D01*
X126839126Y-69573435D01*
X126907440Y-69230000D01*
X126907440Y-68231061D01*
X130454500Y-68231061D01*
X130454500Y-68801939D01*
X130672966Y-69329362D01*
X131076638Y-69733034D01*
X131604061Y-69951500D01*
X132174939Y-69951500D01*
X132702362Y-69733034D01*
X133106034Y-69329362D01*
X133324500Y-68801939D01*
X133324500Y-68231061D01*
X133106034Y-67703638D01*
X132702362Y-67299966D01*
X132174939Y-67081500D01*
X131604061Y-67081500D01*
X131076638Y-67299966D01*
X130672966Y-67703638D01*
X130454500Y-68231061D01*
X126907440Y-68231061D01*
X126907440Y-67930000D01*
X126839126Y-67586565D01*
X126644586Y-67295414D01*
X126353435Y-67100874D01*
X126010000Y-67032560D01*
X122910000Y-67032560D01*
X122566565Y-67100874D01*
X122275414Y-67295414D01*
X122080874Y-67586565D01*
X122012560Y-67930000D01*
X117878487Y-67930000D01*
X118046500Y-67524381D01*
X118046500Y-66968619D01*
X117833820Y-66455163D01*
X117440837Y-66062180D01*
X117233987Y-65976500D01*
X117440837Y-65890820D01*
X117833820Y-65497837D01*
X118046500Y-64984381D01*
X118046500Y-64428619D01*
X117833820Y-63915163D01*
X117440837Y-63522180D01*
X117233987Y-63436500D01*
X117440837Y-63350820D01*
X117833820Y-62957837D01*
X118046500Y-62444381D01*
X118046500Y-61888619D01*
X117833820Y-61375163D01*
X117440837Y-60982180D01*
X117233987Y-60896500D01*
X117440837Y-60810820D01*
X117833820Y-60417837D01*
X118046500Y-59904381D01*
X118046500Y-59348619D01*
X117833820Y-58835163D01*
X117440837Y-58442180D01*
X117233987Y-58356500D01*
X117440837Y-58270820D01*
X117833820Y-57877837D01*
X118046500Y-57364381D01*
X118046500Y-56808619D01*
X117833820Y-56295163D01*
X117440837Y-55902180D01*
X117233987Y-55816500D01*
X117440837Y-55730820D01*
X117833820Y-55337837D01*
X118046500Y-54824381D01*
X118046500Y-54268619D01*
X117833820Y-53755163D01*
X117440837Y-53362180D01*
X117233987Y-53276500D01*
X117440837Y-53190820D01*
X117833820Y-52797837D01*
X118046500Y-52284381D01*
X118046500Y-51728619D01*
X117833820Y-51215163D01*
X117440837Y-50822180D01*
X116927381Y-50609500D01*
X116371619Y-50609500D01*
X115858163Y-50822180D01*
X115827500Y-50852843D01*
X115827500Y-50308769D01*
X115159923Y-48697097D01*
X114162826Y-47700000D01*
X144790174Y-47700000D01*
X143793077Y-48697097D01*
X143793077Y-48697097D01*
G37*
X143793077Y-48697097D02*
X143254965Y-49996212D01*
X143233820Y-49945163D01*
X142840837Y-49552180D01*
X142327381Y-49339500D01*
X141771619Y-49339500D01*
X141258163Y-49552180D01*
X140865180Y-49945163D01*
X140652500Y-50458619D01*
X140652500Y-51014381D01*
X140865180Y-51527837D01*
X141258163Y-51920820D01*
X141465013Y-52006500D01*
X141258163Y-52092180D01*
X140865180Y-52485163D01*
X140652500Y-52998619D01*
X140652500Y-53554381D01*
X140865180Y-54067837D01*
X141258163Y-54460820D01*
X141465013Y-54546500D01*
X141258163Y-54632180D01*
X140865180Y-55025163D01*
X140652500Y-55538619D01*
X140652500Y-56094381D01*
X140865180Y-56607837D01*
X141258163Y-57000820D01*
X141465013Y-57086500D01*
X141258163Y-57172180D01*
X140865180Y-57565163D01*
X140652500Y-58078619D01*
X140652500Y-58634381D01*
X140865180Y-59147837D01*
X141258163Y-59540820D01*
X141465013Y-59626500D01*
X141258163Y-59712180D01*
X140865180Y-60105163D01*
X140652500Y-60618619D01*
X140652500Y-61174381D01*
X140865180Y-61687837D01*
X141258163Y-62080820D01*
X141465013Y-62166500D01*
X141258163Y-62252180D01*
X140865180Y-62645163D01*
X140652500Y-63158619D01*
X140652500Y-63714381D01*
X140865180Y-64227837D01*
X141258163Y-64620820D01*
X141465013Y-64706500D01*
X141258163Y-64792180D01*
X140865180Y-65185163D01*
X140652500Y-65698619D01*
X140652500Y-66254381D01*
X140865180Y-66767837D01*
X141258163Y-67160820D01*
X141465013Y-67246500D01*
X141258163Y-67332180D01*
X140865180Y-67725163D01*
X140652500Y-68238619D01*
X140652500Y-68794381D01*
X140865180Y-69307837D01*
X141258163Y-69700820D01*
X141465013Y-69786500D01*
X141258163Y-69872180D01*
X140865180Y-70265163D01*
X140652500Y-70778619D01*
X140652500Y-71334381D01*
X140865180Y-71847837D01*
X141258163Y-72240820D01*
X141465013Y-72326500D01*
X141258163Y-72412180D01*
X140865180Y-72805163D01*
X140652500Y-73318619D01*
X140652500Y-73874381D01*
X140865180Y-74387837D01*
X141258163Y-74780820D01*
X141771619Y-74993500D01*
X142327381Y-74993500D01*
X142840837Y-74780820D01*
X143233820Y-74387837D01*
X143446500Y-73874381D01*
X143446500Y-73318619D01*
X143233820Y-72805163D01*
X142840837Y-72412180D01*
X142633987Y-72326500D01*
X142840837Y-72240820D01*
X143233820Y-71847837D01*
X143446500Y-71334381D01*
X143446500Y-70778619D01*
X143233820Y-70265163D01*
X142840837Y-69872180D01*
X142633987Y-69786500D01*
X142840837Y-69700820D01*
X143233820Y-69307837D01*
X143446500Y-68794381D01*
X143446500Y-68238619D01*
X143233820Y-67725163D01*
X142840837Y-67332180D01*
X142633987Y-67246500D01*
X142840837Y-67160820D01*
X143233820Y-66767837D01*
X143446500Y-66254381D01*
X143446500Y-65698619D01*
X143233820Y-65185163D01*
X142840837Y-64792180D01*
X142633987Y-64706500D01*
X142840837Y-64620820D01*
X143233820Y-64227837D01*
X143446500Y-63714381D01*
X143446500Y-63158619D01*
X143233820Y-62645163D01*
X142840837Y-62252180D01*
X142633987Y-62166500D01*
X142840837Y-62080820D01*
X143233820Y-61687837D01*
X143446500Y-61174381D01*
X143446500Y-60618619D01*
X143233820Y-60105163D01*
X142840837Y-59712180D01*
X142633987Y-59626500D01*
X142840837Y-59540820D01*
X143233820Y-59147837D01*
X143446500Y-58634381D01*
X143446500Y-58078619D01*
X143233820Y-57565163D01*
X142840837Y-57172180D01*
X142633987Y-57086500D01*
X142840837Y-57000820D01*
X143233820Y-56607837D01*
X143446500Y-56094381D01*
X143446500Y-55538619D01*
X143233820Y-55025163D01*
X142840837Y-54632180D01*
X142633987Y-54546500D01*
X142840837Y-54460820D01*
X143233820Y-54067837D01*
X143446500Y-53554381D01*
X143446500Y-52998619D01*
X143233820Y-52485163D01*
X142840837Y-52092180D01*
X142633987Y-52006500D01*
X142840837Y-51920820D01*
X143125500Y-51636157D01*
X143125500Y-52053231D01*
X143793077Y-53664903D01*
X145026597Y-54898423D01*
X146638269Y-55566000D01*
X148382731Y-55566000D01*
X149994403Y-54898423D01*
X151003000Y-53889826D01*
X151003000Y-105345795D01*
X150973923Y-105275597D01*
X149740403Y-104042077D01*
X148128731Y-103374500D01*
X146384269Y-103374500D01*
X144772597Y-104042077D01*
X143539077Y-105275597D01*
X142871500Y-106887269D01*
X142871500Y-108631731D01*
X143539077Y-110243403D01*
X144091674Y-110796000D01*
X114416826Y-110796000D01*
X114969423Y-110243403D01*
X115637000Y-108631731D01*
X115637000Y-106887269D01*
X114969423Y-105275597D01*
X113735903Y-104042077D01*
X112124231Y-103374500D01*
X110379769Y-103374500D01*
X108768097Y-104042077D01*
X108215500Y-104594674D01*
X108215500Y-95614740D01*
X122068964Y-95614740D01*
X122093244Y-95720086D01*
X122384788Y-96245606D01*
X122855248Y-96619554D01*
X123433000Y-96785000D01*
X124333000Y-96785000D01*
X124333000Y-95377000D01*
X124587000Y-95377000D01*
X124587000Y-96785000D01*
X125487000Y-96785000D01*
X126064752Y-96619554D01*
X126535212Y-96245606D01*
X126826756Y-95720086D01*
X126851036Y-95614740D01*
X126843333Y-95599561D01*
X130327500Y-95599561D01*
X130327500Y-96170439D01*
X130545966Y-96697862D01*
X130949638Y-97101534D01*
X131477061Y-97320000D01*
X132047939Y-97320000D01*
X132575362Y-97101534D01*
X132979034Y-96697862D01*
X133197500Y-96170439D01*
X133197500Y-95599561D01*
X132979034Y-95072138D01*
X132575362Y-94668466D01*
X132047939Y-94450000D01*
X131477061Y-94450000D01*
X130949638Y-94668466D01*
X130545966Y-95072138D01*
X130327500Y-95599561D01*
X126843333Y-95599561D01*
X126730378Y-95377000D01*
X124587000Y-95377000D01*
X124333000Y-95377000D01*
X122189622Y-95377000D01*
X122068964Y-95614740D01*
X108215500Y-95614740D01*
X108215500Y-94885260D01*
X122068964Y-94885260D01*
X122189622Y-95123000D01*
X124333000Y-95123000D01*
X124333000Y-93715000D01*
X124587000Y-93715000D01*
X124587000Y-95123000D01*
X126730378Y-95123000D01*
X126851036Y-94885260D01*
X126826756Y-94779914D01*
X126535212Y-94254394D01*
X126064752Y-93880446D01*
X125487000Y-93715000D01*
X124587000Y-93715000D01*
X124333000Y-93715000D01*
X123433000Y-93715000D01*
X122855248Y-93880446D01*
X122384788Y-94254394D01*
X122093244Y-94779914D01*
X122068964Y-94885260D01*
X108215500Y-94885260D01*
X108215500Y-89828619D01*
X115252500Y-89828619D01*
X115252500Y-90384381D01*
X115465180Y-90897837D01*
X115858163Y-91290820D01*
X116371619Y-91503500D01*
X116927381Y-91503500D01*
X117080683Y-91440000D01*
X121994928Y-91440000D01*
X122114062Y-92038927D01*
X122453327Y-92546673D01*
X122961073Y-92885938D01*
X123408818Y-92975000D01*
X125511182Y-92975000D01*
X125958927Y-92885938D01*
X126466673Y-92546673D01*
X126805938Y-92038927D01*
X126925072Y-91440000D01*
X126805938Y-90841073D01*
X126466673Y-90333327D01*
X125958927Y-89994062D01*
X125511182Y-89905000D01*
X123408818Y-89905000D01*
X122961073Y-89994062D01*
X122453327Y-90333327D01*
X122114062Y-90841073D01*
X121994928Y-91440000D01*
X117080683Y-91440000D01*
X117440837Y-91290820D01*
X117833820Y-90897837D01*
X118046500Y-90384381D01*
X118046500Y-89828619D01*
X117833820Y-89315163D01*
X117440837Y-88922180D01*
X117249853Y-88843072D01*
X117380643Y-88788897D01*
X117450108Y-88546713D01*
X116649500Y-87746105D01*
X115848892Y-88546713D01*
X115918357Y-88788897D01*
X116058893Y-88839035D01*
X115858163Y-88922180D01*
X115465180Y-89315163D01*
X115252500Y-89828619D01*
X108215500Y-89828619D01*
X108215500Y-87358802D01*
X115240356Y-87358802D01*
X115268138Y-87913868D01*
X115427103Y-88297643D01*
X115669287Y-88367108D01*
X116469895Y-87566500D01*
X116829105Y-87566500D01*
X117629713Y-88367108D01*
X117871897Y-88297643D01*
X118058644Y-87774198D01*
X118051427Y-87630000D01*
X121994928Y-87630000D01*
X122114062Y-88228927D01*
X122453327Y-88736673D01*
X122961073Y-89075938D01*
X123408818Y-89165000D01*
X125511182Y-89165000D01*
X125958927Y-89075938D01*
X126436640Y-88756740D01*
X137943964Y-88756740D01*
X137968244Y-88862086D01*
X138259788Y-89387606D01*
X138730248Y-89761554D01*
X139308000Y-89927000D01*
X140208000Y-89927000D01*
X140208000Y-88519000D01*
X140462000Y-88519000D01*
X140462000Y-89927000D01*
X141362000Y-89927000D01*
X141939752Y-89761554D01*
X142410212Y-89387606D01*
X142701756Y-88862086D01*
X142726036Y-88756740D01*
X142605378Y-88519000D01*
X140462000Y-88519000D01*
X140208000Y-88519000D01*
X138064622Y-88519000D01*
X137943964Y-88756740D01*
X126436640Y-88756740D01*
X126466673Y-88736673D01*
X126805938Y-88228927D01*
X126846052Y-88027260D01*
X137943964Y-88027260D01*
X138064622Y-88265000D01*
X140208000Y-88265000D01*
X140208000Y-86857000D01*
X140462000Y-86857000D01*
X140462000Y-88265000D01*
X142605378Y-88265000D01*
X142726036Y-88027260D01*
X142701756Y-87921914D01*
X142410212Y-87396394D01*
X141939752Y-87022446D01*
X141362000Y-86857000D01*
X140462000Y-86857000D01*
X140208000Y-86857000D01*
X139308000Y-86857000D01*
X138730248Y-87022446D01*
X138259788Y-87396394D01*
X137968244Y-87921914D01*
X137943964Y-88027260D01*
X126846052Y-88027260D01*
X126925072Y-87630000D01*
X126805938Y-87031073D01*
X126466673Y-86523327D01*
X125958927Y-86184062D01*
X125511182Y-86095000D01*
X123408818Y-86095000D01*
X122961073Y-86184062D01*
X122453327Y-86523327D01*
X122114062Y-87031073D01*
X121994928Y-87630000D01*
X118051427Y-87630000D01*
X118030862Y-87219132D01*
X117871897Y-86835357D01*
X117629713Y-86765892D01*
X116829105Y-87566500D01*
X116469895Y-87566500D01*
X115669287Y-86765892D01*
X115427103Y-86835357D01*
X115240356Y-87358802D01*
X108215500Y-87358802D01*
X108215500Y-86006713D01*
X115848892Y-86006713D01*
X115918357Y-86248897D01*
X116041844Y-86292953D01*
X115918357Y-86344103D01*
X115848892Y-86586287D01*
X116649500Y-87386895D01*
X117450108Y-86586287D01*
X117380643Y-86344103D01*
X117257156Y-86300047D01*
X117380643Y-86248897D01*
X117450108Y-86006713D01*
X116649500Y-85206105D01*
X115848892Y-86006713D01*
X108215500Y-86006713D01*
X108215500Y-84818802D01*
X115240356Y-84818802D01*
X115268138Y-85373868D01*
X115427103Y-85757643D01*
X115669287Y-85827108D01*
X116469895Y-85026500D01*
X116829105Y-85026500D01*
X117629713Y-85827108D01*
X117871897Y-85757643D01*
X117883542Y-85725000D01*
X130299387Y-85725000D01*
X130410760Y-86284909D01*
X130727923Y-86759577D01*
X131202591Y-87076740D01*
X131621167Y-87160000D01*
X131903833Y-87160000D01*
X132322409Y-87076740D01*
X132797077Y-86759577D01*
X133114240Y-86284909D01*
X133225613Y-85725000D01*
X133114240Y-85165091D01*
X132797077Y-84690423D01*
X132634811Y-84582000D01*
X137869928Y-84582000D01*
X137989062Y-85180927D01*
X138328327Y-85688673D01*
X138836073Y-86027938D01*
X139283818Y-86117000D01*
X141386182Y-86117000D01*
X141833927Y-86027938D01*
X142341673Y-85688673D01*
X142680938Y-85180927D01*
X142800072Y-84582000D01*
X142680938Y-83983073D01*
X142341673Y-83475327D01*
X141833927Y-83136062D01*
X141386182Y-83047000D01*
X139283818Y-83047000D01*
X138836073Y-83136062D01*
X138328327Y-83475327D01*
X137989062Y-83983073D01*
X137869928Y-84582000D01*
X132634811Y-84582000D01*
X132322409Y-84373260D01*
X131903833Y-84290000D01*
X131621167Y-84290000D01*
X131202591Y-84373260D01*
X130727923Y-84690423D01*
X130410760Y-85165091D01*
X130299387Y-85725000D01*
X117883542Y-85725000D01*
X118058644Y-85234198D01*
X118030862Y-84679132D01*
X117871897Y-84295357D01*
X117629713Y-84225892D01*
X116829105Y-85026500D01*
X116469895Y-85026500D01*
X115669287Y-84225892D01*
X115427103Y-84295357D01*
X115240356Y-84818802D01*
X108215500Y-84818802D01*
X108215500Y-54155326D01*
X108958597Y-54898423D01*
X110570269Y-55566000D01*
X112314731Y-55566000D01*
X113926403Y-54898423D01*
X115159923Y-53664903D01*
X115503289Y-52835946D01*
X115858163Y-53190820D01*
X116065013Y-53276500D01*
X115858163Y-53362180D01*
X115465180Y-53755163D01*
X115252500Y-54268619D01*
X115252500Y-54824381D01*
X115465180Y-55337837D01*
X115858163Y-55730820D01*
X116065013Y-55816500D01*
X115858163Y-55902180D01*
X115465180Y-56295163D01*
X115252500Y-56808619D01*
X115252500Y-57364381D01*
X115465180Y-57877837D01*
X115858163Y-58270820D01*
X116065013Y-58356500D01*
X115858163Y-58442180D01*
X115465180Y-58835163D01*
X115252500Y-59348619D01*
X115252500Y-59904381D01*
X115465180Y-60417837D01*
X115858163Y-60810820D01*
X116065013Y-60896500D01*
X115858163Y-60982180D01*
X115465180Y-61375163D01*
X115252500Y-61888619D01*
X115252500Y-62444381D01*
X115465180Y-62957837D01*
X115858163Y-63350820D01*
X116065013Y-63436500D01*
X115858163Y-63522180D01*
X115465180Y-63915163D01*
X115252500Y-64428619D01*
X115252500Y-64984381D01*
X115465180Y-65497837D01*
X115858163Y-65890820D01*
X116065013Y-65976500D01*
X115858163Y-66062180D01*
X115465180Y-66455163D01*
X115252500Y-66968619D01*
X115252500Y-67524381D01*
X115465180Y-68037837D01*
X115858163Y-68430820D01*
X116065013Y-68516500D01*
X115858163Y-68602180D01*
X115465180Y-68995163D01*
X115252500Y-69508619D01*
X115252500Y-70064381D01*
X115465180Y-70577837D01*
X115858163Y-70970820D01*
X116065013Y-71056500D01*
X115858163Y-71142180D01*
X115465180Y-71535163D01*
X115252500Y-72048619D01*
X115252500Y-72604381D01*
X115465180Y-73117837D01*
X115858163Y-73510820D01*
X116065013Y-73596500D01*
X115858163Y-73682180D01*
X115465180Y-74075163D01*
X115252500Y-74588619D01*
X115252500Y-75144381D01*
X115465180Y-75657837D01*
X115858163Y-76050820D01*
X116065013Y-76136500D01*
X115858163Y-76222180D01*
X115465180Y-76615163D01*
X115252500Y-77128619D01*
X115252500Y-77684381D01*
X115465180Y-78197837D01*
X115858163Y-78590820D01*
X116065013Y-78676500D01*
X115858163Y-78762180D01*
X115465180Y-79155163D01*
X115252500Y-79668619D01*
X115252500Y-80224381D01*
X115465180Y-80737837D01*
X115858163Y-81130820D01*
X116065013Y-81216500D01*
X115858163Y-81302180D01*
X115465180Y-81695163D01*
X115252500Y-82208619D01*
X115252500Y-82764381D01*
X115465180Y-83277837D01*
X115858163Y-83670820D01*
X116049147Y-83749928D01*
X115918357Y-83804103D01*
X115848892Y-84046287D01*
X116649500Y-84846895D01*
X117450108Y-84046287D01*
X117385203Y-83820000D01*
X121994928Y-83820000D01*
X122114062Y-84418927D01*
X122453327Y-84926673D01*
X122961073Y-85265938D01*
X123408818Y-85355000D01*
X125511182Y-85355000D01*
X125958927Y-85265938D01*
X126466673Y-84926673D01*
X126805938Y-84418927D01*
X126925072Y-83820000D01*
X126805938Y-83221073D01*
X126466673Y-82713327D01*
X125958927Y-82374062D01*
X125511182Y-82285000D01*
X123408818Y-82285000D01*
X122961073Y-82374062D01*
X122453327Y-82713327D01*
X122114062Y-83221073D01*
X121994928Y-83820000D01*
X117385203Y-83820000D01*
X117380643Y-83804103D01*
X117240107Y-83753965D01*
X117440837Y-83670820D01*
X117833820Y-83277837D01*
X118046500Y-82764381D01*
X118046500Y-82208619D01*
X117833820Y-81695163D01*
X117440837Y-81302180D01*
X117233987Y-81216500D01*
X117440837Y-81130820D01*
X117833820Y-80737837D01*
X118046500Y-80224381D01*
X118046500Y-80010000D01*
X121994928Y-80010000D01*
X122114062Y-80608927D01*
X122453327Y-81116673D01*
X122961073Y-81455938D01*
X123408818Y-81545000D01*
X125511182Y-81545000D01*
X125958927Y-81455938D01*
X126466673Y-81116673D01*
X126805938Y-80608927D01*
X126902793Y-80122000D01*
X137887560Y-80122000D01*
X137887560Y-81422000D01*
X137955874Y-81765435D01*
X138150414Y-82056586D01*
X138441565Y-82251126D01*
X138785000Y-82319440D01*
X141885000Y-82319440D01*
X142228435Y-82251126D01*
X142519586Y-82056586D01*
X142714126Y-81765435D01*
X142782440Y-81422000D01*
X142782440Y-80122000D01*
X142714126Y-79778565D01*
X142519586Y-79487414D01*
X142228435Y-79292874D01*
X141885000Y-79224560D01*
X138785000Y-79224560D01*
X138441565Y-79292874D01*
X138150414Y-79487414D01*
X137955874Y-79778565D01*
X137887560Y-80122000D01*
X126902793Y-80122000D01*
X126925072Y-80010000D01*
X126805938Y-79411073D01*
X126548334Y-79025541D01*
X130497586Y-79025541D01*
X130737111Y-79531634D01*
X131152077Y-79907541D01*
X131540461Y-80068404D01*
X131762500Y-79946415D01*
X131762500Y-78803500D01*
X132016500Y-78803500D01*
X132016500Y-79946415D01*
X132238539Y-80068404D01*
X132626923Y-79907541D01*
X133041889Y-79531634D01*
X133281414Y-79025541D01*
X133160129Y-78803500D01*
X132016500Y-78803500D01*
X131762500Y-78803500D01*
X130618871Y-78803500D01*
X130497586Y-79025541D01*
X126548334Y-79025541D01*
X126466673Y-78903327D01*
X125958927Y-78564062D01*
X125511182Y-78475000D01*
X123408818Y-78475000D01*
X122961073Y-78564062D01*
X122453327Y-78903327D01*
X122114062Y-79411073D01*
X121994928Y-80010000D01*
X118046500Y-80010000D01*
X118046500Y-79668619D01*
X117833820Y-79155163D01*
X117440837Y-78762180D01*
X117233987Y-78676500D01*
X117440837Y-78590820D01*
X117704198Y-78327459D01*
X130497586Y-78327459D01*
X130618871Y-78549500D01*
X131762500Y-78549500D01*
X131762500Y-77406585D01*
X132016500Y-77406585D01*
X132016500Y-78549500D01*
X133160129Y-78549500D01*
X133281414Y-78327459D01*
X133041889Y-77821366D01*
X132626923Y-77445459D01*
X132238539Y-77284596D01*
X132016500Y-77406585D01*
X131762500Y-77406585D01*
X131540461Y-77284596D01*
X131152077Y-77445459D01*
X130737111Y-77821366D01*
X130497586Y-78327459D01*
X117704198Y-78327459D01*
X117833820Y-78197837D01*
X118046500Y-77684381D01*
X118046500Y-77128619D01*
X117833820Y-76615163D01*
X117440837Y-76222180D01*
X117387290Y-76200000D01*
X121994928Y-76200000D01*
X122114062Y-76798927D01*
X122453327Y-77306673D01*
X122961073Y-77645938D01*
X123408818Y-77735000D01*
X125511182Y-77735000D01*
X125958927Y-77645938D01*
X126466673Y-77306673D01*
X126805938Y-76798927D01*
X126925072Y-76200000D01*
X126805938Y-75601073D01*
X126466673Y-75093327D01*
X125958927Y-74754062D01*
X125511182Y-74665000D01*
X123408818Y-74665000D01*
X122961073Y-74754062D01*
X122453327Y-75093327D01*
X122114062Y-75601073D01*
X121994928Y-76200000D01*
X117387290Y-76200000D01*
X117233987Y-76136500D01*
X117440837Y-76050820D01*
X117833820Y-75657837D01*
X118046500Y-75144381D01*
X118046500Y-74588619D01*
X117833820Y-74075163D01*
X117440837Y-73682180D01*
X117233987Y-73596500D01*
X117440837Y-73510820D01*
X117833820Y-73117837D01*
X118046500Y-72604381D01*
X118046500Y-72390000D01*
X121994928Y-72390000D01*
X122114062Y-72988927D01*
X122453327Y-73496673D01*
X122961073Y-73835938D01*
X123408818Y-73925000D01*
X125511182Y-73925000D01*
X125958927Y-73835938D01*
X126466673Y-73496673D01*
X126805938Y-72988927D01*
X126925072Y-72390000D01*
X126805938Y-71791073D01*
X126466673Y-71283327D01*
X125958927Y-70944062D01*
X125511182Y-70855000D01*
X123408818Y-70855000D01*
X122961073Y-70944062D01*
X122453327Y-71283327D01*
X122114062Y-71791073D01*
X121994928Y-72390000D01*
X118046500Y-72390000D01*
X118046500Y-72048619D01*
X117833820Y-71535163D01*
X117440837Y-71142180D01*
X117233987Y-71056500D01*
X117440837Y-70970820D01*
X117833820Y-70577837D01*
X118046500Y-70064381D01*
X118046500Y-69508619D01*
X117833820Y-68995163D01*
X117440837Y-68602180D01*
X117233987Y-68516500D01*
X117440837Y-68430820D01*
X117833820Y-68037837D01*
X117878487Y-67930000D01*
X122012560Y-67930000D01*
X122012560Y-69230000D01*
X122080874Y-69573435D01*
X122275414Y-69864586D01*
X122566565Y-70059126D01*
X122910000Y-70127440D01*
X126010000Y-70127440D01*
X126353435Y-70059126D01*
X126644586Y-69864586D01*
X126839126Y-69573435D01*
X126907440Y-69230000D01*
X126907440Y-68231061D01*
X130454500Y-68231061D01*
X130454500Y-68801939D01*
X130672966Y-69329362D01*
X131076638Y-69733034D01*
X131604061Y-69951500D01*
X132174939Y-69951500D01*
X132702362Y-69733034D01*
X133106034Y-69329362D01*
X133324500Y-68801939D01*
X133324500Y-68231061D01*
X133106034Y-67703638D01*
X132702362Y-67299966D01*
X132174939Y-67081500D01*
X131604061Y-67081500D01*
X131076638Y-67299966D01*
X130672966Y-67703638D01*
X130454500Y-68231061D01*
X126907440Y-68231061D01*
X126907440Y-67930000D01*
X126839126Y-67586565D01*
X126644586Y-67295414D01*
X126353435Y-67100874D01*
X126010000Y-67032560D01*
X122910000Y-67032560D01*
X122566565Y-67100874D01*
X122275414Y-67295414D01*
X122080874Y-67586565D01*
X122012560Y-67930000D01*
X117878487Y-67930000D01*
X118046500Y-67524381D01*
X118046500Y-66968619D01*
X117833820Y-66455163D01*
X117440837Y-66062180D01*
X117233987Y-65976500D01*
X117440837Y-65890820D01*
X117833820Y-65497837D01*
X118046500Y-64984381D01*
X118046500Y-64428619D01*
X117833820Y-63915163D01*
X117440837Y-63522180D01*
X117233987Y-63436500D01*
X117440837Y-63350820D01*
X117833820Y-62957837D01*
X118046500Y-62444381D01*
X118046500Y-61888619D01*
X117833820Y-61375163D01*
X117440837Y-60982180D01*
X117233987Y-60896500D01*
X117440837Y-60810820D01*
X117833820Y-60417837D01*
X118046500Y-59904381D01*
X118046500Y-59348619D01*
X117833820Y-58835163D01*
X117440837Y-58442180D01*
X117233987Y-58356500D01*
X117440837Y-58270820D01*
X117833820Y-57877837D01*
X118046500Y-57364381D01*
X118046500Y-56808619D01*
X117833820Y-56295163D01*
X117440837Y-55902180D01*
X117233987Y-55816500D01*
X117440837Y-55730820D01*
X117833820Y-55337837D01*
X118046500Y-54824381D01*
X118046500Y-54268619D01*
X117833820Y-53755163D01*
X117440837Y-53362180D01*
X117233987Y-53276500D01*
X117440837Y-53190820D01*
X117833820Y-52797837D01*
X118046500Y-52284381D01*
X118046500Y-51728619D01*
X117833820Y-51215163D01*
X117440837Y-50822180D01*
X116927381Y-50609500D01*
X116371619Y-50609500D01*
X115858163Y-50822180D01*
X115827500Y-50852843D01*
X115827500Y-50308769D01*
X115159923Y-48697097D01*
X114162826Y-47700000D01*
X144790174Y-47700000D01*
X143793077Y-48697097D01*
G04 #@! TO.N,GND*
G36*
X192913000Y-103112500D02*
X162009826Y-103112500D01*
X162562423Y-102559903D01*
X163230000Y-100948231D01*
X163230000Y-99203769D01*
X162562423Y-97592097D01*
X161328903Y-96358577D01*
X159717231Y-95691000D01*
X157972769Y-95691000D01*
X157471382Y-95898681D01*
X157439877Y-67857619D01*
X163925000Y-67857619D01*
X163925000Y-68413381D01*
X164137680Y-68926837D01*
X164530663Y-69319820D01*
X164737513Y-69405500D01*
X164530663Y-69491180D01*
X164137680Y-69884163D01*
X163925000Y-70397619D01*
X163925000Y-70953381D01*
X164137680Y-71466837D01*
X164530663Y-71859820D01*
X164737513Y-71945500D01*
X164530663Y-72031180D01*
X164137680Y-72424163D01*
X163925000Y-72937619D01*
X163925000Y-73493381D01*
X164137680Y-74006837D01*
X164530663Y-74399820D01*
X164737513Y-74485500D01*
X164530663Y-74571180D01*
X164137680Y-74964163D01*
X163925000Y-75477619D01*
X163925000Y-76033381D01*
X164137680Y-76546837D01*
X164530663Y-76939820D01*
X164737513Y-77025500D01*
X164530663Y-77111180D01*
X164137680Y-77504163D01*
X163925000Y-78017619D01*
X163925000Y-78573381D01*
X164137680Y-79086837D01*
X164530663Y-79479820D01*
X164737513Y-79565500D01*
X164530663Y-79651180D01*
X164137680Y-80044163D01*
X163925000Y-80557619D01*
X163925000Y-81113381D01*
X164137680Y-81626837D01*
X164530663Y-82019820D01*
X164737513Y-82105500D01*
X164530663Y-82191180D01*
X164137680Y-82584163D01*
X163925000Y-83097619D01*
X163925000Y-83653381D01*
X164137680Y-84166837D01*
X164530663Y-84559820D01*
X164737513Y-84645500D01*
X164530663Y-84731180D01*
X164137680Y-85124163D01*
X163925000Y-85637619D01*
X163925000Y-86193381D01*
X164137680Y-86706837D01*
X164530663Y-87099820D01*
X164737513Y-87185500D01*
X164530663Y-87271180D01*
X164137680Y-87664163D01*
X163925000Y-88177619D01*
X163925000Y-88733381D01*
X164137680Y-89246837D01*
X164530663Y-89639820D01*
X164737513Y-89725500D01*
X164530663Y-89811180D01*
X164137680Y-90204163D01*
X163925000Y-90717619D01*
X163925000Y-91273381D01*
X164137680Y-91786837D01*
X164530663Y-92179820D01*
X164737513Y-92265500D01*
X164530663Y-92351180D01*
X164137680Y-92744163D01*
X163925000Y-93257619D01*
X163925000Y-93813381D01*
X164137680Y-94326837D01*
X164530663Y-94719820D01*
X164737513Y-94805500D01*
X164530663Y-94891180D01*
X164137680Y-95284163D01*
X163925000Y-95797619D01*
X163925000Y-96353381D01*
X164137680Y-96866837D01*
X164530663Y-97259820D01*
X164737513Y-97345500D01*
X164530663Y-97431180D01*
X164137680Y-97824163D01*
X163925000Y-98337619D01*
X163925000Y-98893381D01*
X164137680Y-99406837D01*
X164530663Y-99799820D01*
X165044119Y-100012500D01*
X165599881Y-100012500D01*
X166113337Y-99799820D01*
X166506320Y-99406837D01*
X166719000Y-98893381D01*
X166719000Y-98337619D01*
X166506320Y-97824163D01*
X166113337Y-97431180D01*
X165906487Y-97345500D01*
X166113337Y-97259820D01*
X166506320Y-96866837D01*
X166719000Y-96353381D01*
X166719000Y-95797619D01*
X166506320Y-95284163D01*
X166113337Y-94891180D01*
X165906487Y-94805500D01*
X166113337Y-94719820D01*
X166506320Y-94326837D01*
X166719000Y-93813381D01*
X166719000Y-93257619D01*
X166538040Y-92820740D01*
X175376964Y-92820740D01*
X175401244Y-92926086D01*
X175692788Y-93451606D01*
X176163248Y-93825554D01*
X176741000Y-93991000D01*
X177641000Y-93991000D01*
X177641000Y-92583000D01*
X177895000Y-92583000D01*
X177895000Y-93991000D01*
X178795000Y-93991000D01*
X179372752Y-93825554D01*
X179843212Y-93451606D01*
X180134756Y-92926086D01*
X180159036Y-92820740D01*
X180038378Y-92583000D01*
X177895000Y-92583000D01*
X177641000Y-92583000D01*
X175497622Y-92583000D01*
X175376964Y-92820740D01*
X166538040Y-92820740D01*
X166506320Y-92744163D01*
X166113337Y-92351180D01*
X165906487Y-92265500D01*
X166113337Y-92179820D01*
X166201897Y-92091260D01*
X175376964Y-92091260D01*
X175497622Y-92329000D01*
X177641000Y-92329000D01*
X177641000Y-90921000D01*
X177895000Y-90921000D01*
X177895000Y-92329000D01*
X180038378Y-92329000D01*
X180159036Y-92091260D01*
X180134756Y-91985914D01*
X179843212Y-91460394D01*
X179372752Y-91086446D01*
X178795000Y-90921000D01*
X177895000Y-90921000D01*
X177641000Y-90921000D01*
X176741000Y-90921000D01*
X176163248Y-91086446D01*
X175692788Y-91460394D01*
X175401244Y-91985914D01*
X175376964Y-92091260D01*
X166201897Y-92091260D01*
X166506320Y-91786837D01*
X166719000Y-91273381D01*
X166719000Y-90717619D01*
X166506320Y-90204163D01*
X166113337Y-89811180D01*
X165906487Y-89725500D01*
X166113337Y-89639820D01*
X166122596Y-89630561D01*
X169919500Y-89630561D01*
X169919500Y-90201439D01*
X170137966Y-90728862D01*
X170541638Y-91132534D01*
X171069061Y-91351000D01*
X171639939Y-91351000D01*
X172167362Y-91132534D01*
X172571034Y-90728862D01*
X172789500Y-90201439D01*
X172789500Y-89630561D01*
X172571034Y-89103138D01*
X172167362Y-88699466D01*
X172038284Y-88646000D01*
X175302928Y-88646000D01*
X175422062Y-89244927D01*
X175761327Y-89752673D01*
X176269073Y-90091938D01*
X176716818Y-90181000D01*
X178819182Y-90181000D01*
X179266927Y-90091938D01*
X179774673Y-89752673D01*
X180113938Y-89244927D01*
X180233072Y-88646000D01*
X180192122Y-88440126D01*
X180511500Y-88440126D01*
X180511500Y-88851874D01*
X180669069Y-89232280D01*
X180960220Y-89523431D01*
X181340626Y-89681000D01*
X181752374Y-89681000D01*
X182114507Y-89531000D01*
X185793789Y-89531000D01*
X185849720Y-89586931D01*
X186230126Y-89744500D01*
X186641874Y-89744500D01*
X187022280Y-89586931D01*
X187313431Y-89295780D01*
X187471000Y-88915374D01*
X187471000Y-88503626D01*
X187313431Y-88123220D01*
X187022280Y-87832069D01*
X186641874Y-87674500D01*
X186230126Y-87674500D01*
X186021296Y-87761000D01*
X182114507Y-87761000D01*
X181752374Y-87611000D01*
X181340626Y-87611000D01*
X180960220Y-87768569D01*
X180669069Y-88059720D01*
X180511500Y-88440126D01*
X180192122Y-88440126D01*
X180113938Y-88047073D01*
X179774673Y-87539327D01*
X179266927Y-87200062D01*
X178819182Y-87111000D01*
X176716818Y-87111000D01*
X176269073Y-87200062D01*
X175761327Y-87539327D01*
X175422062Y-88047073D01*
X175302928Y-88646000D01*
X172038284Y-88646000D01*
X171639939Y-88481000D01*
X171069061Y-88481000D01*
X170541638Y-88699466D01*
X170137966Y-89103138D01*
X169919500Y-89630561D01*
X166122596Y-89630561D01*
X166506320Y-89246837D01*
X166719000Y-88733381D01*
X166719000Y-88177619D01*
X166506320Y-87664163D01*
X166113337Y-87271180D01*
X165906487Y-87185500D01*
X166113337Y-87099820D01*
X166506320Y-86706837D01*
X166719000Y-86193381D01*
X166719000Y-85637619D01*
X166506320Y-85124163D01*
X166218157Y-84836000D01*
X175302928Y-84836000D01*
X175422062Y-85434927D01*
X175761327Y-85942673D01*
X176269073Y-86281938D01*
X176716818Y-86371000D01*
X178819182Y-86371000D01*
X179266927Y-86281938D01*
X179774673Y-85942673D01*
X180113938Y-85434927D01*
X180233072Y-84836000D01*
X180113938Y-84237073D01*
X179774673Y-83729327D01*
X179266927Y-83390062D01*
X178819182Y-83301000D01*
X176716818Y-83301000D01*
X176269073Y-83390062D01*
X175761327Y-83729327D01*
X175422062Y-84237073D01*
X175302928Y-84836000D01*
X166218157Y-84836000D01*
X166113337Y-84731180D01*
X165906487Y-84645500D01*
X166113337Y-84559820D01*
X166506320Y-84166837D01*
X166719000Y-83653381D01*
X166719000Y-83097619D01*
X166506320Y-82584163D01*
X166113337Y-82191180D01*
X165906487Y-82105500D01*
X166113337Y-82019820D01*
X166506320Y-81626837D01*
X166719000Y-81113381D01*
X166719000Y-80557619D01*
X166531537Y-80105041D01*
X169962586Y-80105041D01*
X170202111Y-80611134D01*
X170617077Y-80987041D01*
X171005461Y-81147904D01*
X171227500Y-81025915D01*
X171227500Y-79883000D01*
X171481500Y-79883000D01*
X171481500Y-81025915D01*
X171703539Y-81147904D01*
X171997861Y-81026000D01*
X175302928Y-81026000D01*
X175422062Y-81624927D01*
X175761327Y-82132673D01*
X176269073Y-82471938D01*
X176716818Y-82561000D01*
X178819182Y-82561000D01*
X179266927Y-82471938D01*
X179774673Y-82132673D01*
X180113938Y-81624927D01*
X180233072Y-81026000D01*
X180113938Y-80427073D01*
X179774673Y-79919327D01*
X179266927Y-79580062D01*
X178819182Y-79491000D01*
X176716818Y-79491000D01*
X176269073Y-79580062D01*
X175761327Y-79919327D01*
X175422062Y-80427073D01*
X175302928Y-81026000D01*
X171997861Y-81026000D01*
X172091923Y-80987041D01*
X172506889Y-80611134D01*
X172746414Y-80105041D01*
X172625129Y-79883000D01*
X171481500Y-79883000D01*
X171227500Y-79883000D01*
X170083871Y-79883000D01*
X169962586Y-80105041D01*
X166531537Y-80105041D01*
X166506320Y-80044163D01*
X166113337Y-79651180D01*
X165906487Y-79565500D01*
X166113337Y-79479820D01*
X166186198Y-79406959D01*
X169962586Y-79406959D01*
X170083871Y-79629000D01*
X171227500Y-79629000D01*
X171227500Y-78486085D01*
X171481500Y-78486085D01*
X171481500Y-79629000D01*
X172625129Y-79629000D01*
X172746414Y-79406959D01*
X172506889Y-78900866D01*
X172091923Y-78524959D01*
X171703539Y-78364096D01*
X171481500Y-78486085D01*
X171227500Y-78486085D01*
X171005461Y-78364096D01*
X170617077Y-78524959D01*
X170202111Y-78900866D01*
X169962586Y-79406959D01*
X166186198Y-79406959D01*
X166506320Y-79086837D01*
X166719000Y-78573381D01*
X166719000Y-78017619D01*
X166506320Y-77504163D01*
X166113337Y-77111180D01*
X165906487Y-77025500D01*
X166113337Y-76939820D01*
X166506320Y-76546837D01*
X166518471Y-76517500D01*
X169827887Y-76517500D01*
X169939260Y-77077409D01*
X170256423Y-77552077D01*
X170731091Y-77869240D01*
X171149667Y-77952500D01*
X171432333Y-77952500D01*
X171850909Y-77869240D01*
X172325577Y-77552077D01*
X172550136Y-77216000D01*
X175302928Y-77216000D01*
X175422062Y-77814927D01*
X175761327Y-78322673D01*
X176269073Y-78661938D01*
X176716818Y-78751000D01*
X178819182Y-78751000D01*
X179266927Y-78661938D01*
X179774673Y-78322673D01*
X180113938Y-77814927D01*
X180233072Y-77216000D01*
X180113938Y-76617073D01*
X179774673Y-76109327D01*
X179266927Y-75770062D01*
X178819182Y-75681000D01*
X176716818Y-75681000D01*
X176269073Y-75770062D01*
X175761327Y-76109327D01*
X175422062Y-76617073D01*
X175302928Y-77216000D01*
X172550136Y-77216000D01*
X172642740Y-77077409D01*
X172754113Y-76517500D01*
X172642740Y-75957591D01*
X172325577Y-75482923D01*
X171850909Y-75165760D01*
X171432333Y-75082500D01*
X171149667Y-75082500D01*
X170731091Y-75165760D01*
X170256423Y-75482923D01*
X169939260Y-75957591D01*
X169827887Y-76517500D01*
X166518471Y-76517500D01*
X166719000Y-76033381D01*
X166719000Y-75477619D01*
X166506320Y-74964163D01*
X166113337Y-74571180D01*
X165906487Y-74485500D01*
X166113337Y-74399820D01*
X166506320Y-74006837D01*
X166719000Y-73493381D01*
X166719000Y-73406000D01*
X175302928Y-73406000D01*
X175422062Y-74004927D01*
X175761327Y-74512673D01*
X176269073Y-74851938D01*
X176716818Y-74941000D01*
X178819182Y-74941000D01*
X179266927Y-74851938D01*
X179774673Y-74512673D01*
X180113938Y-74004927D01*
X180233072Y-73406000D01*
X180113938Y-72807073D01*
X179824987Y-72374626D01*
X180321000Y-72374626D01*
X180321000Y-72786374D01*
X180478569Y-73166780D01*
X180769720Y-73457931D01*
X181150126Y-73615500D01*
X181561874Y-73615500D01*
X181924007Y-73465500D01*
X185550493Y-73465500D01*
X185912626Y-73615500D01*
X186324374Y-73615500D01*
X186704780Y-73457931D01*
X186995931Y-73166780D01*
X187153500Y-72786374D01*
X187153500Y-72374626D01*
X186995931Y-71994220D01*
X186704780Y-71703069D01*
X186324374Y-71545500D01*
X185912626Y-71545500D01*
X185550493Y-71695500D01*
X181924007Y-71695500D01*
X181561874Y-71545500D01*
X181150126Y-71545500D01*
X180769720Y-71703069D01*
X180478569Y-71994220D01*
X180321000Y-72374626D01*
X179824987Y-72374626D01*
X179774673Y-72299327D01*
X179266927Y-71960062D01*
X178819182Y-71871000D01*
X176716818Y-71871000D01*
X176269073Y-71960062D01*
X175761327Y-72299327D01*
X175422062Y-72807073D01*
X175302928Y-73406000D01*
X166719000Y-73406000D01*
X166719000Y-72937619D01*
X166506320Y-72424163D01*
X166113337Y-72031180D01*
X165906487Y-71945500D01*
X166113337Y-71859820D01*
X166506320Y-71466837D01*
X166719000Y-70953381D01*
X166719000Y-70397619D01*
X166506320Y-69884163D01*
X166218157Y-69596000D01*
X175302928Y-69596000D01*
X175422062Y-70194927D01*
X175761327Y-70702673D01*
X176269073Y-71041938D01*
X176716818Y-71131000D01*
X178819182Y-71131000D01*
X179266927Y-71041938D01*
X179774673Y-70702673D01*
X180113938Y-70194927D01*
X180233072Y-69596000D01*
X180113938Y-68997073D01*
X179774673Y-68489327D01*
X179266927Y-68150062D01*
X178819182Y-68061000D01*
X176716818Y-68061000D01*
X176269073Y-68150062D01*
X175761327Y-68489327D01*
X175422062Y-68997073D01*
X175302928Y-69596000D01*
X166218157Y-69596000D01*
X166113337Y-69491180D01*
X165906487Y-69405500D01*
X166113337Y-69319820D01*
X166506320Y-68926837D01*
X166719000Y-68413381D01*
X166719000Y-67857619D01*
X166506320Y-67344163D01*
X166113337Y-66951180D01*
X165922353Y-66872072D01*
X166053143Y-66817897D01*
X166122608Y-66575713D01*
X165322000Y-65775105D01*
X164521392Y-66575713D01*
X164590857Y-66817897D01*
X164731393Y-66868035D01*
X164530663Y-66951180D01*
X164137680Y-67344163D01*
X163925000Y-67857619D01*
X157439877Y-67857619D01*
X157437101Y-65387802D01*
X163912856Y-65387802D01*
X163940638Y-65942868D01*
X164099603Y-66326643D01*
X164341787Y-66396108D01*
X165142395Y-65595500D01*
X165501605Y-65595500D01*
X166302213Y-66396108D01*
X166544397Y-66326643D01*
X166635223Y-66072061D01*
X169856000Y-66072061D01*
X169856000Y-66642939D01*
X170074466Y-67170362D01*
X170478138Y-67574034D01*
X171005561Y-67792500D01*
X171576439Y-67792500D01*
X172103862Y-67574034D01*
X172507534Y-67170362D01*
X172726000Y-66642939D01*
X172726000Y-66072061D01*
X172507534Y-65544638D01*
X172103862Y-65140966D01*
X172091874Y-65136000D01*
X175320560Y-65136000D01*
X175320560Y-66436000D01*
X175388874Y-66779435D01*
X175583414Y-67070586D01*
X175874565Y-67265126D01*
X176218000Y-67333440D01*
X179318000Y-67333440D01*
X179661435Y-67265126D01*
X179952586Y-67070586D01*
X180147126Y-66779435D01*
X180215440Y-66436000D01*
X180215440Y-65136000D01*
X180147126Y-64792565D01*
X179952586Y-64501414D01*
X179661435Y-64306874D01*
X179318000Y-64238560D01*
X176218000Y-64238560D01*
X175874565Y-64306874D01*
X175583414Y-64501414D01*
X175388874Y-64792565D01*
X175320560Y-65136000D01*
X172091874Y-65136000D01*
X171576439Y-64922500D01*
X171005561Y-64922500D01*
X170478138Y-65140966D01*
X170074466Y-65544638D01*
X169856000Y-66072061D01*
X166635223Y-66072061D01*
X166731144Y-65803198D01*
X166703362Y-65248132D01*
X166544397Y-64864357D01*
X166302213Y-64794892D01*
X165501605Y-65595500D01*
X165142395Y-65595500D01*
X164341787Y-64794892D01*
X164099603Y-64864357D01*
X163912856Y-65387802D01*
X157437101Y-65387802D01*
X157425668Y-55212383D01*
X157972769Y-55439000D01*
X159717231Y-55439000D01*
X161328903Y-54771423D01*
X162562423Y-53537903D01*
X162943617Y-52617619D01*
X163925000Y-52617619D01*
X163925000Y-53173381D01*
X164137680Y-53686837D01*
X164530663Y-54079820D01*
X164737513Y-54165500D01*
X164530663Y-54251180D01*
X164137680Y-54644163D01*
X163925000Y-55157619D01*
X163925000Y-55713381D01*
X164137680Y-56226837D01*
X164530663Y-56619820D01*
X164737513Y-56705500D01*
X164530663Y-56791180D01*
X164137680Y-57184163D01*
X163925000Y-57697619D01*
X163925000Y-58253381D01*
X164137680Y-58766837D01*
X164530663Y-59159820D01*
X164737513Y-59245500D01*
X164530663Y-59331180D01*
X164137680Y-59724163D01*
X163925000Y-60237619D01*
X163925000Y-60793381D01*
X164137680Y-61306837D01*
X164530663Y-61699820D01*
X164737513Y-61785500D01*
X164530663Y-61871180D01*
X164137680Y-62264163D01*
X163925000Y-62777619D01*
X163925000Y-63333381D01*
X164137680Y-63846837D01*
X164530663Y-64239820D01*
X164721647Y-64318928D01*
X164590857Y-64373103D01*
X164521392Y-64615287D01*
X165322000Y-65415895D01*
X166122608Y-64615287D01*
X166053143Y-64373103D01*
X165912607Y-64322965D01*
X166113337Y-64239820D01*
X166506320Y-63846837D01*
X166719000Y-63333381D01*
X166719000Y-62777619D01*
X166506320Y-62264163D01*
X166113337Y-61871180D01*
X165906487Y-61785500D01*
X166113337Y-61699820D01*
X166506320Y-61306837D01*
X166719000Y-60793381D01*
X166719000Y-60237619D01*
X166506320Y-59724163D01*
X166113337Y-59331180D01*
X165906487Y-59245500D01*
X166113337Y-59159820D01*
X166506320Y-58766837D01*
X166719000Y-58253381D01*
X166719000Y-57697619D01*
X166506320Y-57184163D01*
X166113337Y-56791180D01*
X165906487Y-56705500D01*
X166113337Y-56619820D01*
X166506320Y-56226837D01*
X166719000Y-55713381D01*
X166719000Y-55157619D01*
X166506320Y-54644163D01*
X166113337Y-54251180D01*
X165906487Y-54165500D01*
X166113337Y-54079820D01*
X166506320Y-53686837D01*
X166719000Y-53173381D01*
X166719000Y-52617619D01*
X166506320Y-52104163D01*
X166446157Y-52044000D01*
X173363060Y-52044000D01*
X173363060Y-55144000D01*
X173431374Y-55487435D01*
X173625914Y-55778586D01*
X173917065Y-55973126D01*
X174260500Y-56041440D01*
X175560500Y-56041440D01*
X175903935Y-55973126D01*
X176195086Y-55778586D01*
X176389626Y-55487435D01*
X176457940Y-55144000D01*
X176457940Y-53721000D01*
X177185500Y-53721000D01*
X177185500Y-54621000D01*
X177350946Y-55198752D01*
X177724894Y-55669212D01*
X178250414Y-55960756D01*
X178355760Y-55985036D01*
X178593500Y-55864378D01*
X178593500Y-53721000D01*
X178847500Y-53721000D01*
X178847500Y-55864378D01*
X179085240Y-55985036D01*
X179190586Y-55960756D01*
X179716106Y-55669212D01*
X180090054Y-55198752D01*
X180255500Y-54621000D01*
X180255500Y-53721000D01*
X178847500Y-53721000D01*
X178593500Y-53721000D01*
X177185500Y-53721000D01*
X176457940Y-53721000D01*
X176457940Y-52567000D01*
X177185500Y-52567000D01*
X177185500Y-53467000D01*
X178593500Y-53467000D01*
X178593500Y-51323622D01*
X178847500Y-51323622D01*
X178847500Y-53467000D01*
X180255500Y-53467000D01*
X180255500Y-52567000D01*
X180248576Y-52542819D01*
X180995500Y-52542819D01*
X180995501Y-54645182D01*
X181084563Y-55092927D01*
X181423828Y-55600673D01*
X181931574Y-55939938D01*
X182530500Y-56059072D01*
X183129427Y-55939938D01*
X183637173Y-55600673D01*
X183976438Y-55092927D01*
X184065500Y-54645182D01*
X184065500Y-52871619D01*
X189325000Y-52871619D01*
X189325000Y-53427381D01*
X189537680Y-53940837D01*
X189930663Y-54333820D01*
X190137513Y-54419500D01*
X189930663Y-54505180D01*
X189537680Y-54898163D01*
X189325000Y-55411619D01*
X189325000Y-55967381D01*
X189537680Y-56480837D01*
X189930663Y-56873820D01*
X190137513Y-56959500D01*
X189930663Y-57045180D01*
X189537680Y-57438163D01*
X189325000Y-57951619D01*
X189325000Y-58507381D01*
X189537680Y-59020837D01*
X189930663Y-59413820D01*
X190137513Y-59499500D01*
X189930663Y-59585180D01*
X189537680Y-59978163D01*
X189325000Y-60491619D01*
X189325000Y-61047381D01*
X189537680Y-61560837D01*
X189930663Y-61953820D01*
X190137513Y-62039500D01*
X189930663Y-62125180D01*
X189537680Y-62518163D01*
X189325000Y-63031619D01*
X189325000Y-63587381D01*
X189537680Y-64100837D01*
X189930663Y-64493820D01*
X190137513Y-64579500D01*
X189930663Y-64665180D01*
X189537680Y-65058163D01*
X189325000Y-65571619D01*
X189325000Y-66127381D01*
X189537680Y-66640837D01*
X189930663Y-67033820D01*
X190137513Y-67119500D01*
X189930663Y-67205180D01*
X189537680Y-67598163D01*
X189325000Y-68111619D01*
X189325000Y-68667381D01*
X189537680Y-69180837D01*
X189930663Y-69573820D01*
X190137513Y-69659500D01*
X189930663Y-69745180D01*
X189537680Y-70138163D01*
X189325000Y-70651619D01*
X189325000Y-71207381D01*
X189537680Y-71720837D01*
X189930663Y-72113820D01*
X190137513Y-72199500D01*
X189930663Y-72285180D01*
X189537680Y-72678163D01*
X189325000Y-73191619D01*
X189325000Y-73747381D01*
X189537680Y-74260837D01*
X189930663Y-74653820D01*
X190137513Y-74739500D01*
X189930663Y-74825180D01*
X189537680Y-75218163D01*
X189325000Y-75731619D01*
X189325000Y-76287381D01*
X189537680Y-76800837D01*
X189930663Y-77193820D01*
X190137513Y-77279500D01*
X189930663Y-77365180D01*
X189537680Y-77758163D01*
X189325000Y-78271619D01*
X189325000Y-78827381D01*
X189537680Y-79340837D01*
X189930663Y-79733820D01*
X190137513Y-79819500D01*
X189930663Y-79905180D01*
X189537680Y-80298163D01*
X189325000Y-80811619D01*
X189325000Y-81367381D01*
X189537680Y-81880837D01*
X189930663Y-82273820D01*
X190137513Y-82359500D01*
X189930663Y-82445180D01*
X189537680Y-82838163D01*
X189325000Y-83351619D01*
X189325000Y-83907381D01*
X189537680Y-84420837D01*
X189930663Y-84813820D01*
X190137513Y-84899500D01*
X189930663Y-84985180D01*
X189537680Y-85378163D01*
X189325000Y-85891619D01*
X189325000Y-86447381D01*
X189537680Y-86960837D01*
X189930663Y-87353820D01*
X190137513Y-87439500D01*
X189930663Y-87525180D01*
X189537680Y-87918163D01*
X189325000Y-88431619D01*
X189325000Y-88987381D01*
X189537680Y-89500837D01*
X189930663Y-89893820D01*
X190137513Y-89979500D01*
X189930663Y-90065180D01*
X189537680Y-90458163D01*
X189325000Y-90971619D01*
X189325000Y-91527381D01*
X189537680Y-92040837D01*
X189930663Y-92433820D01*
X190137513Y-92519500D01*
X189930663Y-92605180D01*
X189537680Y-92998163D01*
X189325000Y-93511619D01*
X189325000Y-94067381D01*
X189537680Y-94580837D01*
X189930663Y-94973820D01*
X190137513Y-95059500D01*
X189930663Y-95145180D01*
X189537680Y-95538163D01*
X189325000Y-96051619D01*
X189325000Y-96607381D01*
X189537680Y-97120837D01*
X189889343Y-97472500D01*
X189537680Y-97824163D01*
X189325000Y-98337619D01*
X189325000Y-98893381D01*
X189537680Y-99406837D01*
X189930663Y-99799820D01*
X190444119Y-100012500D01*
X190999881Y-100012500D01*
X191513337Y-99799820D01*
X191906320Y-99406837D01*
X192119000Y-98893381D01*
X192119000Y-98337619D01*
X191906320Y-97824163D01*
X191554657Y-97472500D01*
X191906320Y-97120837D01*
X192119000Y-96607381D01*
X192119000Y-96051619D01*
X191906320Y-95538163D01*
X191513337Y-95145180D01*
X191306487Y-95059500D01*
X191513337Y-94973820D01*
X191906320Y-94580837D01*
X192119000Y-94067381D01*
X192119000Y-93511619D01*
X191906320Y-92998163D01*
X191513337Y-92605180D01*
X191306487Y-92519500D01*
X191513337Y-92433820D01*
X191906320Y-92040837D01*
X192119000Y-91527381D01*
X192119000Y-90971619D01*
X191906320Y-90458163D01*
X191513337Y-90065180D01*
X191306487Y-89979500D01*
X191513337Y-89893820D01*
X191906320Y-89500837D01*
X192119000Y-88987381D01*
X192119000Y-88431619D01*
X191906320Y-87918163D01*
X191513337Y-87525180D01*
X191306487Y-87439500D01*
X191513337Y-87353820D01*
X191906320Y-86960837D01*
X192119000Y-86447381D01*
X192119000Y-85891619D01*
X191906320Y-85378163D01*
X191513337Y-84985180D01*
X191306487Y-84899500D01*
X191513337Y-84813820D01*
X191906320Y-84420837D01*
X192119000Y-83907381D01*
X192119000Y-83351619D01*
X191906320Y-82838163D01*
X191513337Y-82445180D01*
X191306487Y-82359500D01*
X191513337Y-82273820D01*
X191906320Y-81880837D01*
X192119000Y-81367381D01*
X192119000Y-80811619D01*
X191906320Y-80298163D01*
X191513337Y-79905180D01*
X191306487Y-79819500D01*
X191513337Y-79733820D01*
X191906320Y-79340837D01*
X192119000Y-78827381D01*
X192119000Y-78271619D01*
X191906320Y-77758163D01*
X191513337Y-77365180D01*
X191306487Y-77279500D01*
X191513337Y-77193820D01*
X191906320Y-76800837D01*
X192119000Y-76287381D01*
X192119000Y-75731619D01*
X191906320Y-75218163D01*
X191513337Y-74825180D01*
X191306487Y-74739500D01*
X191513337Y-74653820D01*
X191906320Y-74260837D01*
X192119000Y-73747381D01*
X192119000Y-73191619D01*
X191906320Y-72678163D01*
X191513337Y-72285180D01*
X191306487Y-72199500D01*
X191513337Y-72113820D01*
X191906320Y-71720837D01*
X192119000Y-71207381D01*
X192119000Y-70651619D01*
X191906320Y-70138163D01*
X191513337Y-69745180D01*
X191306487Y-69659500D01*
X191513337Y-69573820D01*
X191906320Y-69180837D01*
X192119000Y-68667381D01*
X192119000Y-68111619D01*
X191906320Y-67598163D01*
X191513337Y-67205180D01*
X191306487Y-67119500D01*
X191513337Y-67033820D01*
X191906320Y-66640837D01*
X192119000Y-66127381D01*
X192119000Y-65571619D01*
X191906320Y-65058163D01*
X191513337Y-64665180D01*
X191306487Y-64579500D01*
X191513337Y-64493820D01*
X191906320Y-64100837D01*
X192119000Y-63587381D01*
X192119000Y-63031619D01*
X191906320Y-62518163D01*
X191513337Y-62125180D01*
X191306487Y-62039500D01*
X191513337Y-61953820D01*
X191906320Y-61560837D01*
X192119000Y-61047381D01*
X192119000Y-60491619D01*
X191906320Y-59978163D01*
X191513337Y-59585180D01*
X191306487Y-59499500D01*
X191513337Y-59413820D01*
X191906320Y-59020837D01*
X192119000Y-58507381D01*
X192119000Y-57951619D01*
X191906320Y-57438163D01*
X191513337Y-57045180D01*
X191306487Y-56959500D01*
X191513337Y-56873820D01*
X191906320Y-56480837D01*
X192119000Y-55967381D01*
X192119000Y-55411619D01*
X191906320Y-54898163D01*
X191513337Y-54505180D01*
X191306487Y-54419500D01*
X191513337Y-54333820D01*
X191906320Y-53940837D01*
X192119000Y-53427381D01*
X192119000Y-52871619D01*
X191906320Y-52358163D01*
X191513337Y-51965180D01*
X190999881Y-51752500D01*
X190444119Y-51752500D01*
X189930663Y-51965180D01*
X189537680Y-52358163D01*
X189325000Y-52871619D01*
X184065500Y-52871619D01*
X184065500Y-52542818D01*
X183976438Y-52095073D01*
X183637173Y-51587327D01*
X183129426Y-51248062D01*
X182530500Y-51128928D01*
X181931573Y-51248062D01*
X181423827Y-51587327D01*
X181084562Y-52095074D01*
X180995500Y-52542819D01*
X180248576Y-52542819D01*
X180090054Y-51989248D01*
X179716106Y-51518788D01*
X179190586Y-51227244D01*
X179085240Y-51202964D01*
X178847500Y-51323622D01*
X178593500Y-51323622D01*
X178355760Y-51202964D01*
X178250414Y-51227244D01*
X177724894Y-51518788D01*
X177350946Y-51989248D01*
X177185500Y-52567000D01*
X176457940Y-52567000D01*
X176457940Y-52044000D01*
X176389626Y-51700565D01*
X176195086Y-51409414D01*
X175903935Y-51214874D01*
X175560500Y-51146560D01*
X174260500Y-51146560D01*
X173917065Y-51214874D01*
X173625914Y-51409414D01*
X173431374Y-51700565D01*
X173363060Y-52044000D01*
X166446157Y-52044000D01*
X166113337Y-51711180D01*
X165599881Y-51498500D01*
X165044119Y-51498500D01*
X164530663Y-51711180D01*
X164137680Y-52104163D01*
X163925000Y-52617619D01*
X162943617Y-52617619D01*
X163230000Y-51926231D01*
X163230000Y-50181769D01*
X162562423Y-48570097D01*
X161692326Y-47700000D01*
X192913000Y-47700000D01*
X192913000Y-103112500D01*
X192913000Y-103112500D01*
G37*
X192913000Y-103112500D02*
X162009826Y-103112500D01*
X162562423Y-102559903D01*
X163230000Y-100948231D01*
X163230000Y-99203769D01*
X162562423Y-97592097D01*
X161328903Y-96358577D01*
X159717231Y-95691000D01*
X157972769Y-95691000D01*
X157471382Y-95898681D01*
X157439877Y-67857619D01*
X163925000Y-67857619D01*
X163925000Y-68413381D01*
X164137680Y-68926837D01*
X164530663Y-69319820D01*
X164737513Y-69405500D01*
X164530663Y-69491180D01*
X164137680Y-69884163D01*
X163925000Y-70397619D01*
X163925000Y-70953381D01*
X164137680Y-71466837D01*
X164530663Y-71859820D01*
X164737513Y-71945500D01*
X164530663Y-72031180D01*
X164137680Y-72424163D01*
X163925000Y-72937619D01*
X163925000Y-73493381D01*
X164137680Y-74006837D01*
X164530663Y-74399820D01*
X164737513Y-74485500D01*
X164530663Y-74571180D01*
X164137680Y-74964163D01*
X163925000Y-75477619D01*
X163925000Y-76033381D01*
X164137680Y-76546837D01*
X164530663Y-76939820D01*
X164737513Y-77025500D01*
X164530663Y-77111180D01*
X164137680Y-77504163D01*
X163925000Y-78017619D01*
X163925000Y-78573381D01*
X164137680Y-79086837D01*
X164530663Y-79479820D01*
X164737513Y-79565500D01*
X164530663Y-79651180D01*
X164137680Y-80044163D01*
X163925000Y-80557619D01*
X163925000Y-81113381D01*
X164137680Y-81626837D01*
X164530663Y-82019820D01*
X164737513Y-82105500D01*
X164530663Y-82191180D01*
X164137680Y-82584163D01*
X163925000Y-83097619D01*
X163925000Y-83653381D01*
X164137680Y-84166837D01*
X164530663Y-84559820D01*
X164737513Y-84645500D01*
X164530663Y-84731180D01*
X164137680Y-85124163D01*
X163925000Y-85637619D01*
X163925000Y-86193381D01*
X164137680Y-86706837D01*
X164530663Y-87099820D01*
X164737513Y-87185500D01*
X164530663Y-87271180D01*
X164137680Y-87664163D01*
X163925000Y-88177619D01*
X163925000Y-88733381D01*
X164137680Y-89246837D01*
X164530663Y-89639820D01*
X164737513Y-89725500D01*
X164530663Y-89811180D01*
X164137680Y-90204163D01*
X163925000Y-90717619D01*
X163925000Y-91273381D01*
X164137680Y-91786837D01*
X164530663Y-92179820D01*
X164737513Y-92265500D01*
X164530663Y-92351180D01*
X164137680Y-92744163D01*
X163925000Y-93257619D01*
X163925000Y-93813381D01*
X164137680Y-94326837D01*
X164530663Y-94719820D01*
X164737513Y-94805500D01*
X164530663Y-94891180D01*
X164137680Y-95284163D01*
X163925000Y-95797619D01*
X163925000Y-96353381D01*
X164137680Y-96866837D01*
X164530663Y-97259820D01*
X164737513Y-97345500D01*
X164530663Y-97431180D01*
X164137680Y-97824163D01*
X163925000Y-98337619D01*
X163925000Y-98893381D01*
X164137680Y-99406837D01*
X164530663Y-99799820D01*
X165044119Y-100012500D01*
X165599881Y-100012500D01*
X166113337Y-99799820D01*
X166506320Y-99406837D01*
X166719000Y-98893381D01*
X166719000Y-98337619D01*
X166506320Y-97824163D01*
X166113337Y-97431180D01*
X165906487Y-97345500D01*
X166113337Y-97259820D01*
X166506320Y-96866837D01*
X166719000Y-96353381D01*
X166719000Y-95797619D01*
X166506320Y-95284163D01*
X166113337Y-94891180D01*
X165906487Y-94805500D01*
X166113337Y-94719820D01*
X166506320Y-94326837D01*
X166719000Y-93813381D01*
X166719000Y-93257619D01*
X166538040Y-92820740D01*
X175376964Y-92820740D01*
X175401244Y-92926086D01*
X175692788Y-93451606D01*
X176163248Y-93825554D01*
X176741000Y-93991000D01*
X177641000Y-93991000D01*
X177641000Y-92583000D01*
X177895000Y-92583000D01*
X177895000Y-93991000D01*
X178795000Y-93991000D01*
X179372752Y-93825554D01*
X179843212Y-93451606D01*
X180134756Y-92926086D01*
X180159036Y-92820740D01*
X180038378Y-92583000D01*
X177895000Y-92583000D01*
X177641000Y-92583000D01*
X175497622Y-92583000D01*
X175376964Y-92820740D01*
X166538040Y-92820740D01*
X166506320Y-92744163D01*
X166113337Y-92351180D01*
X165906487Y-92265500D01*
X166113337Y-92179820D01*
X166201897Y-92091260D01*
X175376964Y-92091260D01*
X175497622Y-92329000D01*
X177641000Y-92329000D01*
X177641000Y-90921000D01*
X177895000Y-90921000D01*
X177895000Y-92329000D01*
X180038378Y-92329000D01*
X180159036Y-92091260D01*
X180134756Y-91985914D01*
X179843212Y-91460394D01*
X179372752Y-91086446D01*
X178795000Y-90921000D01*
X177895000Y-90921000D01*
X177641000Y-90921000D01*
X176741000Y-90921000D01*
X176163248Y-91086446D01*
X175692788Y-91460394D01*
X175401244Y-91985914D01*
X175376964Y-92091260D01*
X166201897Y-92091260D01*
X166506320Y-91786837D01*
X166719000Y-91273381D01*
X166719000Y-90717619D01*
X166506320Y-90204163D01*
X166113337Y-89811180D01*
X165906487Y-89725500D01*
X166113337Y-89639820D01*
X166122596Y-89630561D01*
X169919500Y-89630561D01*
X169919500Y-90201439D01*
X170137966Y-90728862D01*
X170541638Y-91132534D01*
X171069061Y-91351000D01*
X171639939Y-91351000D01*
X172167362Y-91132534D01*
X172571034Y-90728862D01*
X172789500Y-90201439D01*
X172789500Y-89630561D01*
X172571034Y-89103138D01*
X172167362Y-88699466D01*
X172038284Y-88646000D01*
X175302928Y-88646000D01*
X175422062Y-89244927D01*
X175761327Y-89752673D01*
X176269073Y-90091938D01*
X176716818Y-90181000D01*
X178819182Y-90181000D01*
X179266927Y-90091938D01*
X179774673Y-89752673D01*
X180113938Y-89244927D01*
X180233072Y-88646000D01*
X180192122Y-88440126D01*
X180511500Y-88440126D01*
X180511500Y-88851874D01*
X180669069Y-89232280D01*
X180960220Y-89523431D01*
X181340626Y-89681000D01*
X181752374Y-89681000D01*
X182114507Y-89531000D01*
X185793789Y-89531000D01*
X185849720Y-89586931D01*
X186230126Y-89744500D01*
X186641874Y-89744500D01*
X187022280Y-89586931D01*
X187313431Y-89295780D01*
X187471000Y-88915374D01*
X187471000Y-88503626D01*
X187313431Y-88123220D01*
X187022280Y-87832069D01*
X186641874Y-87674500D01*
X186230126Y-87674500D01*
X186021296Y-87761000D01*
X182114507Y-87761000D01*
X181752374Y-87611000D01*
X181340626Y-87611000D01*
X180960220Y-87768569D01*
X180669069Y-88059720D01*
X180511500Y-88440126D01*
X180192122Y-88440126D01*
X180113938Y-88047073D01*
X179774673Y-87539327D01*
X179266927Y-87200062D01*
X178819182Y-87111000D01*
X176716818Y-87111000D01*
X176269073Y-87200062D01*
X175761327Y-87539327D01*
X175422062Y-88047073D01*
X175302928Y-88646000D01*
X172038284Y-88646000D01*
X171639939Y-88481000D01*
X171069061Y-88481000D01*
X170541638Y-88699466D01*
X170137966Y-89103138D01*
X169919500Y-89630561D01*
X166122596Y-89630561D01*
X166506320Y-89246837D01*
X166719000Y-88733381D01*
X166719000Y-88177619D01*
X166506320Y-87664163D01*
X166113337Y-87271180D01*
X165906487Y-87185500D01*
X166113337Y-87099820D01*
X166506320Y-86706837D01*
X166719000Y-86193381D01*
X166719000Y-85637619D01*
X166506320Y-85124163D01*
X166218157Y-84836000D01*
X175302928Y-84836000D01*
X175422062Y-85434927D01*
X175761327Y-85942673D01*
X176269073Y-86281938D01*
X176716818Y-86371000D01*
X178819182Y-86371000D01*
X179266927Y-86281938D01*
X179774673Y-85942673D01*
X180113938Y-85434927D01*
X180233072Y-84836000D01*
X180113938Y-84237073D01*
X179774673Y-83729327D01*
X179266927Y-83390062D01*
X178819182Y-83301000D01*
X176716818Y-83301000D01*
X176269073Y-83390062D01*
X175761327Y-83729327D01*
X175422062Y-84237073D01*
X175302928Y-84836000D01*
X166218157Y-84836000D01*
X166113337Y-84731180D01*
X165906487Y-84645500D01*
X166113337Y-84559820D01*
X166506320Y-84166837D01*
X166719000Y-83653381D01*
X166719000Y-83097619D01*
X166506320Y-82584163D01*
X166113337Y-82191180D01*
X165906487Y-82105500D01*
X166113337Y-82019820D01*
X166506320Y-81626837D01*
X166719000Y-81113381D01*
X166719000Y-80557619D01*
X166531537Y-80105041D01*
X169962586Y-80105041D01*
X170202111Y-80611134D01*
X170617077Y-80987041D01*
X171005461Y-81147904D01*
X171227500Y-81025915D01*
X171227500Y-79883000D01*
X171481500Y-79883000D01*
X171481500Y-81025915D01*
X171703539Y-81147904D01*
X171997861Y-81026000D01*
X175302928Y-81026000D01*
X175422062Y-81624927D01*
X175761327Y-82132673D01*
X176269073Y-82471938D01*
X176716818Y-82561000D01*
X178819182Y-82561000D01*
X179266927Y-82471938D01*
X179774673Y-82132673D01*
X180113938Y-81624927D01*
X180233072Y-81026000D01*
X180113938Y-80427073D01*
X179774673Y-79919327D01*
X179266927Y-79580062D01*
X178819182Y-79491000D01*
X176716818Y-79491000D01*
X176269073Y-79580062D01*
X175761327Y-79919327D01*
X175422062Y-80427073D01*
X175302928Y-81026000D01*
X171997861Y-81026000D01*
X172091923Y-80987041D01*
X172506889Y-80611134D01*
X172746414Y-80105041D01*
X172625129Y-79883000D01*
X171481500Y-79883000D01*
X171227500Y-79883000D01*
X170083871Y-79883000D01*
X169962586Y-80105041D01*
X166531537Y-80105041D01*
X166506320Y-80044163D01*
X166113337Y-79651180D01*
X165906487Y-79565500D01*
X166113337Y-79479820D01*
X166186198Y-79406959D01*
X169962586Y-79406959D01*
X170083871Y-79629000D01*
X171227500Y-79629000D01*
X171227500Y-78486085D01*
X171481500Y-78486085D01*
X171481500Y-79629000D01*
X172625129Y-79629000D01*
X172746414Y-79406959D01*
X172506889Y-78900866D01*
X172091923Y-78524959D01*
X171703539Y-78364096D01*
X171481500Y-78486085D01*
X171227500Y-78486085D01*
X171005461Y-78364096D01*
X170617077Y-78524959D01*
X170202111Y-78900866D01*
X169962586Y-79406959D01*
X166186198Y-79406959D01*
X166506320Y-79086837D01*
X166719000Y-78573381D01*
X166719000Y-78017619D01*
X166506320Y-77504163D01*
X166113337Y-77111180D01*
X165906487Y-77025500D01*
X166113337Y-76939820D01*
X166506320Y-76546837D01*
X166518471Y-76517500D01*
X169827887Y-76517500D01*
X169939260Y-77077409D01*
X170256423Y-77552077D01*
X170731091Y-77869240D01*
X171149667Y-77952500D01*
X171432333Y-77952500D01*
X171850909Y-77869240D01*
X172325577Y-77552077D01*
X172550136Y-77216000D01*
X175302928Y-77216000D01*
X175422062Y-77814927D01*
X175761327Y-78322673D01*
X176269073Y-78661938D01*
X176716818Y-78751000D01*
X178819182Y-78751000D01*
X179266927Y-78661938D01*
X179774673Y-78322673D01*
X180113938Y-77814927D01*
X180233072Y-77216000D01*
X180113938Y-76617073D01*
X179774673Y-76109327D01*
X179266927Y-75770062D01*
X178819182Y-75681000D01*
X176716818Y-75681000D01*
X176269073Y-75770062D01*
X175761327Y-76109327D01*
X175422062Y-76617073D01*
X175302928Y-77216000D01*
X172550136Y-77216000D01*
X172642740Y-77077409D01*
X172754113Y-76517500D01*
X172642740Y-75957591D01*
X172325577Y-75482923D01*
X171850909Y-75165760D01*
X171432333Y-75082500D01*
X171149667Y-75082500D01*
X170731091Y-75165760D01*
X170256423Y-75482923D01*
X169939260Y-75957591D01*
X169827887Y-76517500D01*
X166518471Y-76517500D01*
X166719000Y-76033381D01*
X166719000Y-75477619D01*
X166506320Y-74964163D01*
X166113337Y-74571180D01*
X165906487Y-74485500D01*
X166113337Y-74399820D01*
X166506320Y-74006837D01*
X166719000Y-73493381D01*
X166719000Y-73406000D01*
X175302928Y-73406000D01*
X175422062Y-74004927D01*
X175761327Y-74512673D01*
X176269073Y-74851938D01*
X176716818Y-74941000D01*
X178819182Y-74941000D01*
X179266927Y-74851938D01*
X179774673Y-74512673D01*
X180113938Y-74004927D01*
X180233072Y-73406000D01*
X180113938Y-72807073D01*
X179824987Y-72374626D01*
X180321000Y-72374626D01*
X180321000Y-72786374D01*
X180478569Y-73166780D01*
X180769720Y-73457931D01*
X181150126Y-73615500D01*
X181561874Y-73615500D01*
X181924007Y-73465500D01*
X185550493Y-73465500D01*
X185912626Y-73615500D01*
X186324374Y-73615500D01*
X186704780Y-73457931D01*
X186995931Y-73166780D01*
X187153500Y-72786374D01*
X187153500Y-72374626D01*
X186995931Y-71994220D01*
X186704780Y-71703069D01*
X186324374Y-71545500D01*
X185912626Y-71545500D01*
X185550493Y-71695500D01*
X181924007Y-71695500D01*
X181561874Y-71545500D01*
X181150126Y-71545500D01*
X180769720Y-71703069D01*
X180478569Y-71994220D01*
X180321000Y-72374626D01*
X179824987Y-72374626D01*
X179774673Y-72299327D01*
X179266927Y-71960062D01*
X178819182Y-71871000D01*
X176716818Y-71871000D01*
X176269073Y-71960062D01*
X175761327Y-72299327D01*
X175422062Y-72807073D01*
X175302928Y-73406000D01*
X166719000Y-73406000D01*
X166719000Y-72937619D01*
X166506320Y-72424163D01*
X166113337Y-72031180D01*
X165906487Y-71945500D01*
X166113337Y-71859820D01*
X166506320Y-71466837D01*
X166719000Y-70953381D01*
X166719000Y-70397619D01*
X166506320Y-69884163D01*
X166218157Y-69596000D01*
X175302928Y-69596000D01*
X175422062Y-70194927D01*
X175761327Y-70702673D01*
X176269073Y-71041938D01*
X176716818Y-71131000D01*
X178819182Y-71131000D01*
X179266927Y-71041938D01*
X179774673Y-70702673D01*
X180113938Y-70194927D01*
X180233072Y-69596000D01*
X180113938Y-68997073D01*
X179774673Y-68489327D01*
X179266927Y-68150062D01*
X178819182Y-68061000D01*
X176716818Y-68061000D01*
X176269073Y-68150062D01*
X175761327Y-68489327D01*
X175422062Y-68997073D01*
X175302928Y-69596000D01*
X166218157Y-69596000D01*
X166113337Y-69491180D01*
X165906487Y-69405500D01*
X166113337Y-69319820D01*
X166506320Y-68926837D01*
X166719000Y-68413381D01*
X166719000Y-67857619D01*
X166506320Y-67344163D01*
X166113337Y-66951180D01*
X165922353Y-66872072D01*
X166053143Y-66817897D01*
X166122608Y-66575713D01*
X165322000Y-65775105D01*
X164521392Y-66575713D01*
X164590857Y-66817897D01*
X164731393Y-66868035D01*
X164530663Y-66951180D01*
X164137680Y-67344163D01*
X163925000Y-67857619D01*
X157439877Y-67857619D01*
X157437101Y-65387802D01*
X163912856Y-65387802D01*
X163940638Y-65942868D01*
X164099603Y-66326643D01*
X164341787Y-66396108D01*
X165142395Y-65595500D01*
X165501605Y-65595500D01*
X166302213Y-66396108D01*
X166544397Y-66326643D01*
X166635223Y-66072061D01*
X169856000Y-66072061D01*
X169856000Y-66642939D01*
X170074466Y-67170362D01*
X170478138Y-67574034D01*
X171005561Y-67792500D01*
X171576439Y-67792500D01*
X172103862Y-67574034D01*
X172507534Y-67170362D01*
X172726000Y-66642939D01*
X172726000Y-66072061D01*
X172507534Y-65544638D01*
X172103862Y-65140966D01*
X172091874Y-65136000D01*
X175320560Y-65136000D01*
X175320560Y-66436000D01*
X175388874Y-66779435D01*
X175583414Y-67070586D01*
X175874565Y-67265126D01*
X176218000Y-67333440D01*
X179318000Y-67333440D01*
X179661435Y-67265126D01*
X179952586Y-67070586D01*
X180147126Y-66779435D01*
X180215440Y-66436000D01*
X180215440Y-65136000D01*
X180147126Y-64792565D01*
X179952586Y-64501414D01*
X179661435Y-64306874D01*
X179318000Y-64238560D01*
X176218000Y-64238560D01*
X175874565Y-64306874D01*
X175583414Y-64501414D01*
X175388874Y-64792565D01*
X175320560Y-65136000D01*
X172091874Y-65136000D01*
X171576439Y-64922500D01*
X171005561Y-64922500D01*
X170478138Y-65140966D01*
X170074466Y-65544638D01*
X169856000Y-66072061D01*
X166635223Y-66072061D01*
X166731144Y-65803198D01*
X166703362Y-65248132D01*
X166544397Y-64864357D01*
X166302213Y-64794892D01*
X165501605Y-65595500D01*
X165142395Y-65595500D01*
X164341787Y-64794892D01*
X164099603Y-64864357D01*
X163912856Y-65387802D01*
X157437101Y-65387802D01*
X157425668Y-55212383D01*
X157972769Y-55439000D01*
X159717231Y-55439000D01*
X161328903Y-54771423D01*
X162562423Y-53537903D01*
X162943617Y-52617619D01*
X163925000Y-52617619D01*
X163925000Y-53173381D01*
X164137680Y-53686837D01*
X164530663Y-54079820D01*
X164737513Y-54165500D01*
X164530663Y-54251180D01*
X164137680Y-54644163D01*
X163925000Y-55157619D01*
X163925000Y-55713381D01*
X164137680Y-56226837D01*
X164530663Y-56619820D01*
X164737513Y-56705500D01*
X164530663Y-56791180D01*
X164137680Y-57184163D01*
X163925000Y-57697619D01*
X163925000Y-58253381D01*
X164137680Y-58766837D01*
X164530663Y-59159820D01*
X164737513Y-59245500D01*
X164530663Y-59331180D01*
X164137680Y-59724163D01*
X163925000Y-60237619D01*
X163925000Y-60793381D01*
X164137680Y-61306837D01*
X164530663Y-61699820D01*
X164737513Y-61785500D01*
X164530663Y-61871180D01*
X164137680Y-62264163D01*
X163925000Y-62777619D01*
X163925000Y-63333381D01*
X164137680Y-63846837D01*
X164530663Y-64239820D01*
X164721647Y-64318928D01*
X164590857Y-64373103D01*
X164521392Y-64615287D01*
X165322000Y-65415895D01*
X166122608Y-64615287D01*
X166053143Y-64373103D01*
X165912607Y-64322965D01*
X166113337Y-64239820D01*
X166506320Y-63846837D01*
X166719000Y-63333381D01*
X166719000Y-62777619D01*
X166506320Y-62264163D01*
X166113337Y-61871180D01*
X165906487Y-61785500D01*
X166113337Y-61699820D01*
X166506320Y-61306837D01*
X166719000Y-60793381D01*
X166719000Y-60237619D01*
X166506320Y-59724163D01*
X166113337Y-59331180D01*
X165906487Y-59245500D01*
X166113337Y-59159820D01*
X166506320Y-58766837D01*
X166719000Y-58253381D01*
X166719000Y-57697619D01*
X166506320Y-57184163D01*
X166113337Y-56791180D01*
X165906487Y-56705500D01*
X166113337Y-56619820D01*
X166506320Y-56226837D01*
X166719000Y-55713381D01*
X166719000Y-55157619D01*
X166506320Y-54644163D01*
X166113337Y-54251180D01*
X165906487Y-54165500D01*
X166113337Y-54079820D01*
X166506320Y-53686837D01*
X166719000Y-53173381D01*
X166719000Y-52617619D01*
X166506320Y-52104163D01*
X166446157Y-52044000D01*
X173363060Y-52044000D01*
X173363060Y-55144000D01*
X173431374Y-55487435D01*
X173625914Y-55778586D01*
X173917065Y-55973126D01*
X174260500Y-56041440D01*
X175560500Y-56041440D01*
X175903935Y-55973126D01*
X176195086Y-55778586D01*
X176389626Y-55487435D01*
X176457940Y-55144000D01*
X176457940Y-53721000D01*
X177185500Y-53721000D01*
X177185500Y-54621000D01*
X177350946Y-55198752D01*
X177724894Y-55669212D01*
X178250414Y-55960756D01*
X178355760Y-55985036D01*
X178593500Y-55864378D01*
X178593500Y-53721000D01*
X178847500Y-53721000D01*
X178847500Y-55864378D01*
X179085240Y-55985036D01*
X179190586Y-55960756D01*
X179716106Y-55669212D01*
X180090054Y-55198752D01*
X180255500Y-54621000D01*
X180255500Y-53721000D01*
X178847500Y-53721000D01*
X178593500Y-53721000D01*
X177185500Y-53721000D01*
X176457940Y-53721000D01*
X176457940Y-52567000D01*
X177185500Y-52567000D01*
X177185500Y-53467000D01*
X178593500Y-53467000D01*
X178593500Y-51323622D01*
X178847500Y-51323622D01*
X178847500Y-53467000D01*
X180255500Y-53467000D01*
X180255500Y-52567000D01*
X180248576Y-52542819D01*
X180995500Y-52542819D01*
X180995501Y-54645182D01*
X181084563Y-55092927D01*
X181423828Y-55600673D01*
X181931574Y-55939938D01*
X182530500Y-56059072D01*
X183129427Y-55939938D01*
X183637173Y-55600673D01*
X183976438Y-55092927D01*
X184065500Y-54645182D01*
X184065500Y-52871619D01*
X189325000Y-52871619D01*
X189325000Y-53427381D01*
X189537680Y-53940837D01*
X189930663Y-54333820D01*
X190137513Y-54419500D01*
X189930663Y-54505180D01*
X189537680Y-54898163D01*
X189325000Y-55411619D01*
X189325000Y-55967381D01*
X189537680Y-56480837D01*
X189930663Y-56873820D01*
X190137513Y-56959500D01*
X189930663Y-57045180D01*
X189537680Y-57438163D01*
X189325000Y-57951619D01*
X189325000Y-58507381D01*
X189537680Y-59020837D01*
X189930663Y-59413820D01*
X190137513Y-59499500D01*
X189930663Y-59585180D01*
X189537680Y-59978163D01*
X189325000Y-60491619D01*
X189325000Y-61047381D01*
X189537680Y-61560837D01*
X189930663Y-61953820D01*
X190137513Y-62039500D01*
X189930663Y-62125180D01*
X189537680Y-62518163D01*
X189325000Y-63031619D01*
X189325000Y-63587381D01*
X189537680Y-64100837D01*
X189930663Y-64493820D01*
X190137513Y-64579500D01*
X189930663Y-64665180D01*
X189537680Y-65058163D01*
X189325000Y-65571619D01*
X189325000Y-66127381D01*
X189537680Y-66640837D01*
X189930663Y-67033820D01*
X190137513Y-67119500D01*
X189930663Y-67205180D01*
X189537680Y-67598163D01*
X189325000Y-68111619D01*
X189325000Y-68667381D01*
X189537680Y-69180837D01*
X189930663Y-69573820D01*
X190137513Y-69659500D01*
X189930663Y-69745180D01*
X189537680Y-70138163D01*
X189325000Y-70651619D01*
X189325000Y-71207381D01*
X189537680Y-71720837D01*
X189930663Y-72113820D01*
X190137513Y-72199500D01*
X189930663Y-72285180D01*
X189537680Y-72678163D01*
X189325000Y-73191619D01*
X189325000Y-73747381D01*
X189537680Y-74260837D01*
X189930663Y-74653820D01*
X190137513Y-74739500D01*
X189930663Y-74825180D01*
X189537680Y-75218163D01*
X189325000Y-75731619D01*
X189325000Y-76287381D01*
X189537680Y-76800837D01*
X189930663Y-77193820D01*
X190137513Y-77279500D01*
X189930663Y-77365180D01*
X189537680Y-77758163D01*
X189325000Y-78271619D01*
X189325000Y-78827381D01*
X189537680Y-79340837D01*
X189930663Y-79733820D01*
X190137513Y-79819500D01*
X189930663Y-79905180D01*
X189537680Y-80298163D01*
X189325000Y-80811619D01*
X189325000Y-81367381D01*
X189537680Y-81880837D01*
X189930663Y-82273820D01*
X190137513Y-82359500D01*
X189930663Y-82445180D01*
X189537680Y-82838163D01*
X189325000Y-83351619D01*
X189325000Y-83907381D01*
X189537680Y-84420837D01*
X189930663Y-84813820D01*
X190137513Y-84899500D01*
X189930663Y-84985180D01*
X189537680Y-85378163D01*
X189325000Y-85891619D01*
X189325000Y-86447381D01*
X189537680Y-86960837D01*
X189930663Y-87353820D01*
X190137513Y-87439500D01*
X189930663Y-87525180D01*
X189537680Y-87918163D01*
X189325000Y-88431619D01*
X189325000Y-88987381D01*
X189537680Y-89500837D01*
X189930663Y-89893820D01*
X190137513Y-89979500D01*
X189930663Y-90065180D01*
X189537680Y-90458163D01*
X189325000Y-90971619D01*
X189325000Y-91527381D01*
X189537680Y-92040837D01*
X189930663Y-92433820D01*
X190137513Y-92519500D01*
X189930663Y-92605180D01*
X189537680Y-92998163D01*
X189325000Y-93511619D01*
X189325000Y-94067381D01*
X189537680Y-94580837D01*
X189930663Y-94973820D01*
X190137513Y-95059500D01*
X189930663Y-95145180D01*
X189537680Y-95538163D01*
X189325000Y-96051619D01*
X189325000Y-96607381D01*
X189537680Y-97120837D01*
X189889343Y-97472500D01*
X189537680Y-97824163D01*
X189325000Y-98337619D01*
X189325000Y-98893381D01*
X189537680Y-99406837D01*
X189930663Y-99799820D01*
X190444119Y-100012500D01*
X190999881Y-100012500D01*
X191513337Y-99799820D01*
X191906320Y-99406837D01*
X192119000Y-98893381D01*
X192119000Y-98337619D01*
X191906320Y-97824163D01*
X191554657Y-97472500D01*
X191906320Y-97120837D01*
X192119000Y-96607381D01*
X192119000Y-96051619D01*
X191906320Y-95538163D01*
X191513337Y-95145180D01*
X191306487Y-95059500D01*
X191513337Y-94973820D01*
X191906320Y-94580837D01*
X192119000Y-94067381D01*
X192119000Y-93511619D01*
X191906320Y-92998163D01*
X191513337Y-92605180D01*
X191306487Y-92519500D01*
X191513337Y-92433820D01*
X191906320Y-92040837D01*
X192119000Y-91527381D01*
X192119000Y-90971619D01*
X191906320Y-90458163D01*
X191513337Y-90065180D01*
X191306487Y-89979500D01*
X191513337Y-89893820D01*
X191906320Y-89500837D01*
X192119000Y-88987381D01*
X192119000Y-88431619D01*
X191906320Y-87918163D01*
X191513337Y-87525180D01*
X191306487Y-87439500D01*
X191513337Y-87353820D01*
X191906320Y-86960837D01*
X192119000Y-86447381D01*
X192119000Y-85891619D01*
X191906320Y-85378163D01*
X191513337Y-84985180D01*
X191306487Y-84899500D01*
X191513337Y-84813820D01*
X191906320Y-84420837D01*
X192119000Y-83907381D01*
X192119000Y-83351619D01*
X191906320Y-82838163D01*
X191513337Y-82445180D01*
X191306487Y-82359500D01*
X191513337Y-82273820D01*
X191906320Y-81880837D01*
X192119000Y-81367381D01*
X192119000Y-80811619D01*
X191906320Y-80298163D01*
X191513337Y-79905180D01*
X191306487Y-79819500D01*
X191513337Y-79733820D01*
X191906320Y-79340837D01*
X192119000Y-78827381D01*
X192119000Y-78271619D01*
X191906320Y-77758163D01*
X191513337Y-77365180D01*
X191306487Y-77279500D01*
X191513337Y-77193820D01*
X191906320Y-76800837D01*
X192119000Y-76287381D01*
X192119000Y-75731619D01*
X191906320Y-75218163D01*
X191513337Y-74825180D01*
X191306487Y-74739500D01*
X191513337Y-74653820D01*
X191906320Y-74260837D01*
X192119000Y-73747381D01*
X192119000Y-73191619D01*
X191906320Y-72678163D01*
X191513337Y-72285180D01*
X191306487Y-72199500D01*
X191513337Y-72113820D01*
X191906320Y-71720837D01*
X192119000Y-71207381D01*
X192119000Y-70651619D01*
X191906320Y-70138163D01*
X191513337Y-69745180D01*
X191306487Y-69659500D01*
X191513337Y-69573820D01*
X191906320Y-69180837D01*
X192119000Y-68667381D01*
X192119000Y-68111619D01*
X191906320Y-67598163D01*
X191513337Y-67205180D01*
X191306487Y-67119500D01*
X191513337Y-67033820D01*
X191906320Y-66640837D01*
X192119000Y-66127381D01*
X192119000Y-65571619D01*
X191906320Y-65058163D01*
X191513337Y-64665180D01*
X191306487Y-64579500D01*
X191513337Y-64493820D01*
X191906320Y-64100837D01*
X192119000Y-63587381D01*
X192119000Y-63031619D01*
X191906320Y-62518163D01*
X191513337Y-62125180D01*
X191306487Y-62039500D01*
X191513337Y-61953820D01*
X191906320Y-61560837D01*
X192119000Y-61047381D01*
X192119000Y-60491619D01*
X191906320Y-59978163D01*
X191513337Y-59585180D01*
X191306487Y-59499500D01*
X191513337Y-59413820D01*
X191906320Y-59020837D01*
X192119000Y-58507381D01*
X192119000Y-57951619D01*
X191906320Y-57438163D01*
X191513337Y-57045180D01*
X191306487Y-56959500D01*
X191513337Y-56873820D01*
X191906320Y-56480837D01*
X192119000Y-55967381D01*
X192119000Y-55411619D01*
X191906320Y-54898163D01*
X191513337Y-54505180D01*
X191306487Y-54419500D01*
X191513337Y-54333820D01*
X191906320Y-53940837D01*
X192119000Y-53427381D01*
X192119000Y-52871619D01*
X191906320Y-52358163D01*
X191513337Y-51965180D01*
X190999881Y-51752500D01*
X190444119Y-51752500D01*
X189930663Y-51965180D01*
X189537680Y-52358163D01*
X189325000Y-52871619D01*
X184065500Y-52871619D01*
X184065500Y-52542818D01*
X183976438Y-52095073D01*
X183637173Y-51587327D01*
X183129426Y-51248062D01*
X182530500Y-51128928D01*
X181931573Y-51248062D01*
X181423827Y-51587327D01*
X181084562Y-52095074D01*
X180995500Y-52542819D01*
X180248576Y-52542819D01*
X180090054Y-51989248D01*
X179716106Y-51518788D01*
X179190586Y-51227244D01*
X179085240Y-51202964D01*
X178847500Y-51323622D01*
X178593500Y-51323622D01*
X178355760Y-51202964D01*
X178250414Y-51227244D01*
X177724894Y-51518788D01*
X177350946Y-51989248D01*
X177185500Y-52567000D01*
X176457940Y-52567000D01*
X176457940Y-52044000D01*
X176389626Y-51700565D01*
X176195086Y-51409414D01*
X175903935Y-51214874D01*
X175560500Y-51146560D01*
X174260500Y-51146560D01*
X173917065Y-51214874D01*
X173625914Y-51409414D01*
X173431374Y-51700565D01*
X173363060Y-52044000D01*
X166446157Y-52044000D01*
X166113337Y-51711180D01*
X165599881Y-51498500D01*
X165044119Y-51498500D01*
X164530663Y-51711180D01*
X164137680Y-52104163D01*
X163925000Y-52617619D01*
X162943617Y-52617619D01*
X163230000Y-51926231D01*
X163230000Y-50181769D01*
X162562423Y-48570097D01*
X161692326Y-47700000D01*
X192913000Y-47700000D01*
X192913000Y-103112500D01*
G04 #@! TD*
M02*
