G04 #@! TF.GenerationSoftware,KiCad,Pcbnew,5.0.2+dfsg1-1*
G04 #@! TF.CreationDate,2019-04-19T11:15:25+12:00*
G04 #@! TF.ProjectId,esp_sens,6573705f-7365-46e7-932e-6b696361645f,rev?*
G04 #@! TF.SameCoordinates,Original*
G04 #@! TF.FileFunction,Soldermask,Bot*
G04 #@! TF.FilePolarity,Negative*
%FSLAX46Y46*%
G04 Gerber Fmt 4.6, Leading zero omitted, Abs format (unit mm)*
G04 Created by KiCad (PCBNEW 5.0.2+dfsg1-1) date Fri 19 Apr 2019 11:15:25 NZST*
%MOMM*%
%LPD*%
G01*
G04 APERTURE LIST*
%ADD10C,0.100000*%
G04 APERTURE END LIST*
D10*
G36*
X148365210Y-104104570D02*
X149056947Y-104391097D01*
X149679499Y-104807073D01*
X150208927Y-105336501D01*
X150624903Y-105959053D01*
X150911430Y-106650790D01*
X151057500Y-107385133D01*
X151057500Y-108133867D01*
X150911430Y-108868210D01*
X150624903Y-109559947D01*
X150208927Y-110182499D01*
X149679499Y-110711927D01*
X149056947Y-111127903D01*
X148365210Y-111414430D01*
X147630867Y-111560500D01*
X146882133Y-111560500D01*
X146147790Y-111414430D01*
X145456053Y-111127903D01*
X144833501Y-110711927D01*
X144304073Y-110182499D01*
X143888097Y-109559947D01*
X143601570Y-108868210D01*
X143455500Y-108133867D01*
X143455500Y-107385133D01*
X143601570Y-106650790D01*
X143888097Y-105959053D01*
X144304073Y-105336501D01*
X144833501Y-104807073D01*
X145456053Y-104391097D01*
X146147790Y-104104570D01*
X146882133Y-103958500D01*
X147630867Y-103958500D01*
X148365210Y-104104570D01*
X148365210Y-104104570D01*
G37*
G36*
X112360710Y-104104570D02*
X113052447Y-104391097D01*
X113674999Y-104807073D01*
X114204427Y-105336501D01*
X114620403Y-105959053D01*
X114906930Y-106650790D01*
X115053000Y-107385133D01*
X115053000Y-108133867D01*
X114906930Y-108868210D01*
X114620403Y-109559947D01*
X114204427Y-110182499D01*
X113674999Y-110711927D01*
X113052447Y-111127903D01*
X112360710Y-111414430D01*
X111626367Y-111560500D01*
X110877633Y-111560500D01*
X110143290Y-111414430D01*
X109451553Y-111127903D01*
X108829001Y-110711927D01*
X108299573Y-110182499D01*
X107883597Y-109559947D01*
X107597070Y-108868210D01*
X107451000Y-108133867D01*
X107451000Y-107385133D01*
X107597070Y-106650790D01*
X107883597Y-105959053D01*
X108299573Y-105336501D01*
X108829001Y-104807073D01*
X109451553Y-104391097D01*
X110143290Y-104104570D01*
X110877633Y-103958500D01*
X111626367Y-103958500D01*
X112360710Y-104104570D01*
X112360710Y-104104570D01*
G37*
G36*
X199958710Y-96421070D02*
X200650447Y-96707597D01*
X201272999Y-97123573D01*
X201802427Y-97653001D01*
X202218403Y-98275553D01*
X202504930Y-98967290D01*
X202651000Y-99701633D01*
X202651000Y-100450367D01*
X202504930Y-101184710D01*
X202218403Y-101876447D01*
X201802427Y-102498999D01*
X201272999Y-103028427D01*
X200650447Y-103444403D01*
X199958710Y-103730930D01*
X199224367Y-103877000D01*
X198475633Y-103877000D01*
X197741290Y-103730930D01*
X197049553Y-103444403D01*
X196427001Y-103028427D01*
X195897573Y-102498999D01*
X195481597Y-101876447D01*
X195195070Y-101184710D01*
X195049000Y-100450367D01*
X195049000Y-99701633D01*
X195195070Y-98967290D01*
X195481597Y-98275553D01*
X195897573Y-97653001D01*
X196427001Y-97123573D01*
X197049553Y-96707597D01*
X197741290Y-96421070D01*
X198475633Y-96275000D01*
X199224367Y-96275000D01*
X199958710Y-96421070D01*
X199958710Y-96421070D01*
G37*
G36*
X159953710Y-96421070D02*
X160645447Y-96707597D01*
X161267999Y-97123573D01*
X161797427Y-97653001D01*
X162213403Y-98275553D01*
X162499930Y-98967290D01*
X162646000Y-99701633D01*
X162646000Y-100450367D01*
X162499930Y-101184710D01*
X162213403Y-101876447D01*
X161797427Y-102498999D01*
X161267999Y-103028427D01*
X160645447Y-103444403D01*
X159953710Y-103730930D01*
X159219367Y-103877000D01*
X158470633Y-103877000D01*
X157736290Y-103730930D01*
X157044553Y-103444403D01*
X156422001Y-103028427D01*
X155892573Y-102498999D01*
X155476597Y-101876447D01*
X155190070Y-101184710D01*
X155044000Y-100450367D01*
X155044000Y-99701633D01*
X155190070Y-98967290D01*
X155476597Y-98275553D01*
X155892573Y-97653001D01*
X156422001Y-97123573D01*
X157044553Y-96707597D01*
X157736290Y-96421070D01*
X158470633Y-96275000D01*
X159219367Y-96275000D01*
X159953710Y-96421070D01*
X159953710Y-96421070D01*
G37*
G36*
X165559142Y-97833742D02*
X165707102Y-97895030D01*
X165840258Y-97984002D01*
X165953498Y-98097242D01*
X166042470Y-98230398D01*
X166103758Y-98378358D01*
X166135000Y-98535425D01*
X166135000Y-98695575D01*
X166103758Y-98852642D01*
X166042470Y-99000602D01*
X165953498Y-99133758D01*
X165840258Y-99246998D01*
X165707102Y-99335970D01*
X165559142Y-99397258D01*
X165402075Y-99428500D01*
X165241925Y-99428500D01*
X165084858Y-99397258D01*
X164936898Y-99335970D01*
X164803742Y-99246998D01*
X164690502Y-99133758D01*
X164601530Y-99000602D01*
X164540242Y-98852642D01*
X164509000Y-98695575D01*
X164509000Y-98535425D01*
X164540242Y-98378358D01*
X164601530Y-98230398D01*
X164690502Y-98097242D01*
X164803742Y-97984002D01*
X164936898Y-97895030D01*
X165084858Y-97833742D01*
X165241925Y-97802500D01*
X165402075Y-97802500D01*
X165559142Y-97833742D01*
X165559142Y-97833742D01*
G37*
G36*
X190959142Y-97833742D02*
X191107102Y-97895030D01*
X191240258Y-97984002D01*
X191353498Y-98097242D01*
X191442470Y-98230398D01*
X191503758Y-98378358D01*
X191535000Y-98535425D01*
X191535000Y-98695575D01*
X191503758Y-98852642D01*
X191442470Y-99000602D01*
X191353498Y-99133758D01*
X191240258Y-99246998D01*
X191107102Y-99335970D01*
X190959142Y-99397258D01*
X190802075Y-99428500D01*
X190641925Y-99428500D01*
X190484858Y-99397258D01*
X190336898Y-99335970D01*
X190203742Y-99246998D01*
X190090502Y-99133758D01*
X190001530Y-99000602D01*
X189940242Y-98852642D01*
X189909000Y-98695575D01*
X189909000Y-98535425D01*
X189940242Y-98378358D01*
X190001530Y-98230398D01*
X190090502Y-98097242D01*
X190203742Y-97984002D01*
X190336898Y-97895030D01*
X190484858Y-97833742D01*
X190641925Y-97802500D01*
X190802075Y-97802500D01*
X190959142Y-97833742D01*
X190959142Y-97833742D01*
G37*
G36*
X190959142Y-95547742D02*
X191107102Y-95609030D01*
X191148621Y-95636772D01*
X191240257Y-95698001D01*
X191353499Y-95811243D01*
X191397683Y-95877370D01*
X191442470Y-95944398D01*
X191503758Y-96092358D01*
X191535000Y-96249425D01*
X191535000Y-96409575D01*
X191503758Y-96566642D01*
X191442470Y-96714602D01*
X191353498Y-96847758D01*
X191240258Y-96960998D01*
X191107102Y-97049970D01*
X190959142Y-97111258D01*
X190802075Y-97142500D01*
X190641925Y-97142500D01*
X190484858Y-97111258D01*
X190336898Y-97049970D01*
X190203742Y-96960998D01*
X190090502Y-96847758D01*
X190001530Y-96714602D01*
X189940242Y-96566642D01*
X189909000Y-96409575D01*
X189909000Y-96249425D01*
X189940242Y-96092358D01*
X190001530Y-95944398D01*
X190046317Y-95877370D01*
X190090501Y-95811243D01*
X190203743Y-95698001D01*
X190295379Y-95636772D01*
X190336898Y-95609030D01*
X190484858Y-95547742D01*
X190641925Y-95516500D01*
X190802075Y-95516500D01*
X190959142Y-95547742D01*
X190959142Y-95547742D01*
G37*
G36*
X165559142Y-95293742D02*
X165707102Y-95355030D01*
X165774130Y-95399817D01*
X165828925Y-95436429D01*
X165840258Y-95444002D01*
X165953498Y-95557242D01*
X166042470Y-95690398D01*
X166103758Y-95838358D01*
X166135000Y-95995425D01*
X166135000Y-96155575D01*
X166103758Y-96312642D01*
X166063607Y-96409574D01*
X166042471Y-96460600D01*
X165953499Y-96593757D01*
X165840257Y-96706999D01*
X165774130Y-96751183D01*
X165707102Y-96795970D01*
X165559142Y-96857258D01*
X165402075Y-96888500D01*
X165241925Y-96888500D01*
X165084858Y-96857258D01*
X164936898Y-96795970D01*
X164869870Y-96751183D01*
X164803743Y-96706999D01*
X164690501Y-96593757D01*
X164601529Y-96460600D01*
X164580393Y-96409574D01*
X164540242Y-96312642D01*
X164509000Y-96155575D01*
X164509000Y-95995425D01*
X164540242Y-95838358D01*
X164601530Y-95690398D01*
X164690502Y-95557242D01*
X164803742Y-95444002D01*
X164815076Y-95436429D01*
X164869870Y-95399817D01*
X164936898Y-95355030D01*
X165084858Y-95293742D01*
X165241925Y-95262500D01*
X165402075Y-95262500D01*
X165559142Y-95293742D01*
X165559142Y-95293742D01*
G37*
G36*
X132010728Y-95066703D02*
X132165600Y-95130853D01*
X132304981Y-95223985D01*
X132423515Y-95342519D01*
X132516647Y-95481900D01*
X132580797Y-95636772D01*
X132613500Y-95801184D01*
X132613500Y-95968816D01*
X132580797Y-96133228D01*
X132516647Y-96288100D01*
X132423515Y-96427481D01*
X132304981Y-96546015D01*
X132165600Y-96639147D01*
X132010728Y-96703297D01*
X131846316Y-96736000D01*
X131678684Y-96736000D01*
X131514272Y-96703297D01*
X131359400Y-96639147D01*
X131220019Y-96546015D01*
X131101485Y-96427481D01*
X131008353Y-96288100D01*
X130944203Y-96133228D01*
X130911500Y-95968816D01*
X130911500Y-95801184D01*
X130944203Y-95636772D01*
X131008353Y-95481900D01*
X131101485Y-95342519D01*
X131220019Y-95223985D01*
X131359400Y-95130853D01*
X131514272Y-95066703D01*
X131678684Y-95034000D01*
X131846316Y-95034000D01*
X132010728Y-95066703D01*
X132010728Y-95066703D01*
G37*
G36*
X125546425Y-94312760D02*
X125546428Y-94312761D01*
X125546429Y-94312761D01*
X125725693Y-94367140D01*
X125725695Y-94367141D01*
X125890905Y-94455448D01*
X126035712Y-94574288D01*
X126154552Y-94719095D01*
X126242859Y-94884305D01*
X126297240Y-95063575D01*
X126315601Y-95250000D01*
X126297240Y-95436425D01*
X126297239Y-95436428D01*
X126297239Y-95436429D01*
X126260591Y-95557243D01*
X126242859Y-95615695D01*
X126154552Y-95780905D01*
X126035712Y-95925712D01*
X125890905Y-96044552D01*
X125801467Y-96092358D01*
X125725693Y-96132860D01*
X125546429Y-96187239D01*
X125546428Y-96187239D01*
X125546425Y-96187240D01*
X125406718Y-96201000D01*
X123513282Y-96201000D01*
X123373575Y-96187240D01*
X123373572Y-96187239D01*
X123373571Y-96187239D01*
X123194307Y-96132860D01*
X123118533Y-96092358D01*
X123029095Y-96044552D01*
X122884288Y-95925712D01*
X122765448Y-95780905D01*
X122677141Y-95615695D01*
X122659410Y-95557243D01*
X122622761Y-95436429D01*
X122622761Y-95436428D01*
X122622760Y-95436425D01*
X122604399Y-95250000D01*
X122622760Y-95063575D01*
X122677141Y-94884305D01*
X122765448Y-94719095D01*
X122884288Y-94574288D01*
X123029095Y-94455448D01*
X123194305Y-94367141D01*
X123194307Y-94367140D01*
X123373571Y-94312761D01*
X123373572Y-94312761D01*
X123373575Y-94312760D01*
X123513282Y-94299000D01*
X125406718Y-94299000D01*
X125546425Y-94312760D01*
X125546425Y-94312760D01*
G37*
G36*
X190959142Y-93007742D02*
X191107102Y-93069030D01*
X191174130Y-93113817D01*
X191240257Y-93158001D01*
X191353499Y-93271243D01*
X191397683Y-93337370D01*
X191442470Y-93404398D01*
X191503758Y-93552358D01*
X191535000Y-93709425D01*
X191535000Y-93869575D01*
X191503758Y-94026642D01*
X191492526Y-94053757D01*
X191442471Y-94174600D01*
X191353499Y-94307757D01*
X191240257Y-94420999D01*
X191188700Y-94455448D01*
X191107102Y-94509970D01*
X190959142Y-94571258D01*
X190802075Y-94602500D01*
X190641925Y-94602500D01*
X190484858Y-94571258D01*
X190336898Y-94509970D01*
X190255300Y-94455448D01*
X190203743Y-94420999D01*
X190090501Y-94307757D01*
X190001529Y-94174600D01*
X189951474Y-94053757D01*
X189940242Y-94026642D01*
X189909000Y-93869575D01*
X189909000Y-93709425D01*
X189940242Y-93552358D01*
X190001530Y-93404398D01*
X190046317Y-93337370D01*
X190090501Y-93271243D01*
X190203743Y-93158001D01*
X190269870Y-93113817D01*
X190336898Y-93069030D01*
X190484858Y-93007742D01*
X190641925Y-92976500D01*
X190802075Y-92976500D01*
X190959142Y-93007742D01*
X190959142Y-93007742D01*
G37*
G36*
X165559142Y-92753742D02*
X165707102Y-92815030D01*
X165840258Y-92904002D01*
X165953498Y-93017242D01*
X166042470Y-93150398D01*
X166103758Y-93298358D01*
X166135000Y-93455425D01*
X166135000Y-93615575D01*
X166103758Y-93772642D01*
X166063607Y-93869574D01*
X166042471Y-93920600D01*
X165971617Y-94026642D01*
X165953498Y-94053758D01*
X165840258Y-94166998D01*
X165707102Y-94255970D01*
X165559142Y-94317258D01*
X165402075Y-94348500D01*
X165241925Y-94348500D01*
X165084858Y-94317258D01*
X164936898Y-94255970D01*
X164803742Y-94166998D01*
X164690502Y-94053758D01*
X164672384Y-94026642D01*
X164601529Y-93920600D01*
X164580393Y-93869574D01*
X164540242Y-93772642D01*
X164509000Y-93615575D01*
X164509000Y-93455425D01*
X164540242Y-93298358D01*
X164601530Y-93150398D01*
X164690502Y-93017242D01*
X164803742Y-92904002D01*
X164936898Y-92815030D01*
X165084858Y-92753742D01*
X165241925Y-92722500D01*
X165402075Y-92722500D01*
X165559142Y-92753742D01*
X165559142Y-92753742D01*
G37*
G36*
X178854425Y-91518760D02*
X178854428Y-91518761D01*
X178854429Y-91518761D01*
X179033693Y-91573140D01*
X179033695Y-91573141D01*
X179198905Y-91661448D01*
X179343712Y-91780288D01*
X179462552Y-91925095D01*
X179462553Y-91925097D01*
X179550860Y-92090307D01*
X179594616Y-92234552D01*
X179605240Y-92269575D01*
X179623601Y-92456000D01*
X179605240Y-92642425D01*
X179605239Y-92642428D01*
X179605239Y-92642429D01*
X179571473Y-92753742D01*
X179550859Y-92821695D01*
X179462552Y-92986905D01*
X179343712Y-93131712D01*
X179198905Y-93250552D01*
X179109467Y-93298358D01*
X179033693Y-93338860D01*
X178854429Y-93393239D01*
X178854428Y-93393239D01*
X178854425Y-93393240D01*
X178714718Y-93407000D01*
X176821282Y-93407000D01*
X176681575Y-93393240D01*
X176681572Y-93393239D01*
X176681571Y-93393239D01*
X176502307Y-93338860D01*
X176426533Y-93298358D01*
X176337095Y-93250552D01*
X176192288Y-93131712D01*
X176073448Y-92986905D01*
X175985141Y-92821695D01*
X175964528Y-92753742D01*
X175930761Y-92642429D01*
X175930761Y-92642428D01*
X175930760Y-92642425D01*
X175912399Y-92456000D01*
X175930760Y-92269575D01*
X175941384Y-92234552D01*
X175985140Y-92090307D01*
X176073447Y-91925097D01*
X176073448Y-91925095D01*
X176192288Y-91780288D01*
X176337095Y-91661448D01*
X176502305Y-91573141D01*
X176502307Y-91573140D01*
X176681571Y-91518761D01*
X176681572Y-91518761D01*
X176681575Y-91518760D01*
X176821282Y-91505000D01*
X178714718Y-91505000D01*
X178854425Y-91518760D01*
X178854425Y-91518760D01*
G37*
G36*
X125546425Y-90502760D02*
X125546428Y-90502761D01*
X125546429Y-90502761D01*
X125725693Y-90557140D01*
X125725695Y-90557141D01*
X125890905Y-90645448D01*
X126035712Y-90764288D01*
X126154552Y-90909095D01*
X126154553Y-90909097D01*
X126242860Y-91074307D01*
X126297239Y-91253571D01*
X126297240Y-91253575D01*
X126315601Y-91440000D01*
X126297240Y-91626425D01*
X126297239Y-91626428D01*
X126297239Y-91626429D01*
X126250567Y-91780288D01*
X126242859Y-91805695D01*
X126154552Y-91970905D01*
X126035712Y-92115712D01*
X125890905Y-92234552D01*
X125890903Y-92234553D01*
X125725693Y-92322860D01*
X125546429Y-92377239D01*
X125546428Y-92377239D01*
X125546425Y-92377240D01*
X125406718Y-92391000D01*
X123513282Y-92391000D01*
X123373575Y-92377240D01*
X123373572Y-92377239D01*
X123373571Y-92377239D01*
X123194307Y-92322860D01*
X123029097Y-92234553D01*
X123029095Y-92234552D01*
X122884288Y-92115712D01*
X122765448Y-91970905D01*
X122677141Y-91805695D01*
X122669434Y-91780288D01*
X122622761Y-91626429D01*
X122622761Y-91626428D01*
X122622760Y-91626425D01*
X122604399Y-91440000D01*
X122622760Y-91253575D01*
X122622761Y-91253571D01*
X122677140Y-91074307D01*
X122765447Y-90909097D01*
X122765448Y-90909095D01*
X122884288Y-90764288D01*
X123029095Y-90645448D01*
X123194305Y-90557141D01*
X123194307Y-90557140D01*
X123373571Y-90502761D01*
X123373572Y-90502761D01*
X123373575Y-90502760D01*
X123513282Y-90489000D01*
X125406718Y-90489000D01*
X125546425Y-90502760D01*
X125546425Y-90502760D01*
G37*
G36*
X190959142Y-90467742D02*
X191107102Y-90529030D01*
X191149173Y-90557141D01*
X191240257Y-90618001D01*
X191353499Y-90731243D01*
X191375579Y-90764288D01*
X191442470Y-90864398D01*
X191503758Y-91012358D01*
X191535000Y-91169425D01*
X191535000Y-91329575D01*
X191503758Y-91486642D01*
X191467929Y-91573140D01*
X191445856Y-91626429D01*
X191442470Y-91634602D01*
X191353498Y-91767758D01*
X191240258Y-91880998D01*
X191107102Y-91969970D01*
X190959142Y-92031258D01*
X190802075Y-92062500D01*
X190641925Y-92062500D01*
X190484858Y-92031258D01*
X190336898Y-91969970D01*
X190203742Y-91880998D01*
X190090502Y-91767758D01*
X190001530Y-91634602D01*
X189998145Y-91626429D01*
X189976071Y-91573140D01*
X189940242Y-91486642D01*
X189909000Y-91329575D01*
X189909000Y-91169425D01*
X189940242Y-91012358D01*
X190001530Y-90864398D01*
X190068421Y-90764288D01*
X190090501Y-90731243D01*
X190203743Y-90618001D01*
X190294827Y-90557141D01*
X190336898Y-90529030D01*
X190484858Y-90467742D01*
X190641925Y-90436500D01*
X190802075Y-90436500D01*
X190959142Y-90467742D01*
X190959142Y-90467742D01*
G37*
G36*
X165559142Y-90213742D02*
X165707102Y-90275030D01*
X165773057Y-90319100D01*
X165840257Y-90364001D01*
X165953499Y-90477243D01*
X165963092Y-90491600D01*
X166042470Y-90610398D01*
X166103758Y-90758358D01*
X166135000Y-90915425D01*
X166135000Y-91075575D01*
X166103758Y-91232642D01*
X166042470Y-91380602D01*
X165997683Y-91447630D01*
X165953499Y-91513757D01*
X165840257Y-91626999D01*
X165788700Y-91661448D01*
X165707102Y-91715970D01*
X165559142Y-91777258D01*
X165402075Y-91808500D01*
X165241925Y-91808500D01*
X165084858Y-91777258D01*
X164936898Y-91715970D01*
X164855300Y-91661448D01*
X164803743Y-91626999D01*
X164690501Y-91513757D01*
X164646317Y-91447630D01*
X164601530Y-91380602D01*
X164540242Y-91232642D01*
X164509000Y-91075575D01*
X164509000Y-90915425D01*
X164540242Y-90758358D01*
X164601530Y-90610398D01*
X164680908Y-90491600D01*
X164690501Y-90477243D01*
X164803743Y-90364001D01*
X164870943Y-90319100D01*
X164936898Y-90275030D01*
X165084858Y-90213742D01*
X165241925Y-90182500D01*
X165402075Y-90182500D01*
X165559142Y-90213742D01*
X165559142Y-90213742D01*
G37*
G36*
X116886642Y-89324742D02*
X117034602Y-89386030D01*
X117100363Y-89429970D01*
X117116202Y-89440553D01*
X117167758Y-89475002D01*
X117280998Y-89588242D01*
X117369970Y-89721398D01*
X117431258Y-89869358D01*
X117462500Y-90026425D01*
X117462500Y-90186575D01*
X117431258Y-90343642D01*
X117422824Y-90364002D01*
X117369971Y-90491600D01*
X117280999Y-90624757D01*
X117167757Y-90737999D01*
X117101630Y-90782183D01*
X117034602Y-90826970D01*
X116886642Y-90888258D01*
X116729575Y-90919500D01*
X116569425Y-90919500D01*
X116412358Y-90888258D01*
X116264398Y-90826970D01*
X116197370Y-90782183D01*
X116131243Y-90737999D01*
X116018001Y-90624757D01*
X115929029Y-90491600D01*
X115876176Y-90364002D01*
X115867742Y-90343642D01*
X115836500Y-90186575D01*
X115836500Y-90026425D01*
X115867742Y-89869358D01*
X115929030Y-89721398D01*
X116018002Y-89588242D01*
X116131242Y-89475002D01*
X116182799Y-89440553D01*
X116198637Y-89429970D01*
X116264398Y-89386030D01*
X116412358Y-89324742D01*
X116569425Y-89293500D01*
X116729575Y-89293500D01*
X116886642Y-89324742D01*
X116886642Y-89324742D01*
G37*
G36*
X171602728Y-89097703D02*
X171757600Y-89161853D01*
X171896981Y-89254985D01*
X172015515Y-89373519D01*
X172108647Y-89512900D01*
X172172797Y-89667772D01*
X172205500Y-89832184D01*
X172205500Y-89999816D01*
X172172797Y-90164228D01*
X172108647Y-90319100D01*
X172015515Y-90458481D01*
X171896981Y-90577015D01*
X171757600Y-90670147D01*
X171602728Y-90734297D01*
X171438316Y-90767000D01*
X171270684Y-90767000D01*
X171106272Y-90734297D01*
X170951400Y-90670147D01*
X170812019Y-90577015D01*
X170693485Y-90458481D01*
X170600353Y-90319100D01*
X170536203Y-90164228D01*
X170503500Y-89999816D01*
X170503500Y-89832184D01*
X170536203Y-89667772D01*
X170600353Y-89512900D01*
X170693485Y-89373519D01*
X170812019Y-89254985D01*
X170951400Y-89161853D01*
X171106272Y-89097703D01*
X171270684Y-89065000D01*
X171438316Y-89065000D01*
X171602728Y-89097703D01*
X171602728Y-89097703D01*
G37*
G36*
X178854425Y-87708760D02*
X178854428Y-87708761D01*
X178854429Y-87708761D01*
X179033693Y-87763140D01*
X179033695Y-87763141D01*
X179198905Y-87851448D01*
X179343712Y-87970288D01*
X179462552Y-88115095D01*
X179462553Y-88115097D01*
X179550860Y-88280307D01*
X179594616Y-88424552D01*
X179605240Y-88459575D01*
X179623601Y-88646000D01*
X179605240Y-88832425D01*
X179605239Y-88832428D01*
X179605239Y-88832429D01*
X179562368Y-88973757D01*
X179550859Y-89011695D01*
X179462552Y-89176905D01*
X179343712Y-89321712D01*
X179198905Y-89440552D01*
X179198903Y-89440553D01*
X179033693Y-89528860D01*
X178854429Y-89583239D01*
X178854428Y-89583239D01*
X178854425Y-89583240D01*
X178714718Y-89597000D01*
X176821282Y-89597000D01*
X176681575Y-89583240D01*
X176681572Y-89583239D01*
X176681571Y-89583239D01*
X176502307Y-89528860D01*
X176337097Y-89440553D01*
X176337095Y-89440552D01*
X176192288Y-89321712D01*
X176073448Y-89176905D01*
X175985141Y-89011695D01*
X175973633Y-88973757D01*
X175930761Y-88832429D01*
X175930761Y-88832428D01*
X175930760Y-88832425D01*
X175912399Y-88646000D01*
X175930760Y-88459575D01*
X175941384Y-88424552D01*
X175985140Y-88280307D01*
X176073447Y-88115097D01*
X176073448Y-88115095D01*
X176192288Y-87970288D01*
X176337095Y-87851448D01*
X176502305Y-87763141D01*
X176502307Y-87763140D01*
X176681571Y-87708761D01*
X176681572Y-87708761D01*
X176681575Y-87708760D01*
X176821282Y-87695000D01*
X178714718Y-87695000D01*
X178854425Y-87708760D01*
X178854425Y-87708760D01*
G37*
G36*
X190959142Y-87927742D02*
X191107102Y-87989030D01*
X191162888Y-88026305D01*
X191240257Y-88078001D01*
X191353499Y-88191243D01*
X191397683Y-88257370D01*
X191442470Y-88324398D01*
X191503758Y-88472358D01*
X191535000Y-88629425D01*
X191535000Y-88789575D01*
X191503758Y-88946642D01*
X191442470Y-89094602D01*
X191353498Y-89227758D01*
X191240258Y-89340998D01*
X191107102Y-89429970D01*
X190959142Y-89491258D01*
X190802075Y-89522500D01*
X190641925Y-89522500D01*
X190484858Y-89491258D01*
X190336898Y-89429970D01*
X190203742Y-89340998D01*
X190090502Y-89227758D01*
X190001530Y-89094602D01*
X189940242Y-88946642D01*
X189909000Y-88789575D01*
X189909000Y-88629425D01*
X189940242Y-88472358D01*
X190001530Y-88324398D01*
X190046317Y-88257370D01*
X190090501Y-88191243D01*
X190203743Y-88078001D01*
X190281112Y-88026305D01*
X190336898Y-87989030D01*
X190484858Y-87927742D01*
X190641925Y-87896500D01*
X190802075Y-87896500D01*
X190959142Y-87927742D01*
X190959142Y-87927742D01*
G37*
G36*
X141421425Y-87454760D02*
X141421428Y-87454761D01*
X141421429Y-87454761D01*
X141600693Y-87509140D01*
X141600695Y-87509141D01*
X141765905Y-87597448D01*
X141910712Y-87716288D01*
X142029552Y-87861095D01*
X142117859Y-88026305D01*
X142117860Y-88026307D01*
X142169942Y-88197998D01*
X142172240Y-88205575D01*
X142190601Y-88392000D01*
X142172240Y-88578425D01*
X142172239Y-88578428D01*
X142172239Y-88578429D01*
X142137593Y-88692643D01*
X142117859Y-88757695D01*
X142029552Y-88922905D01*
X141910712Y-89067712D01*
X141765905Y-89186552D01*
X141612592Y-89268500D01*
X141600693Y-89274860D01*
X141421429Y-89329239D01*
X141421428Y-89329239D01*
X141421425Y-89329240D01*
X141281718Y-89343000D01*
X139388282Y-89343000D01*
X139248575Y-89329240D01*
X139248572Y-89329239D01*
X139248571Y-89329239D01*
X139069307Y-89274860D01*
X139057408Y-89268500D01*
X138904095Y-89186552D01*
X138759288Y-89067712D01*
X138640448Y-88922905D01*
X138552141Y-88757695D01*
X138532408Y-88692643D01*
X138497761Y-88578429D01*
X138497761Y-88578428D01*
X138497760Y-88578425D01*
X138479399Y-88392000D01*
X138497760Y-88205575D01*
X138500058Y-88197998D01*
X138552140Y-88026307D01*
X138552141Y-88026305D01*
X138640448Y-87861095D01*
X138759288Y-87716288D01*
X138904095Y-87597448D01*
X139069305Y-87509141D01*
X139069307Y-87509140D01*
X139248571Y-87454761D01*
X139248572Y-87454761D01*
X139248575Y-87454760D01*
X139388282Y-87441000D01*
X141281718Y-87441000D01*
X141421425Y-87454760D01*
X141421425Y-87454760D01*
G37*
G36*
X165559142Y-87673742D02*
X165707102Y-87735030D01*
X165749173Y-87763141D01*
X165828925Y-87816429D01*
X165840258Y-87824002D01*
X165953498Y-87937242D01*
X166042470Y-88070398D01*
X166103758Y-88218358D01*
X166135000Y-88375425D01*
X166135000Y-88535575D01*
X166103758Y-88692642D01*
X166063607Y-88789574D01*
X166042471Y-88840600D01*
X165953499Y-88973757D01*
X165840257Y-89086999D01*
X165774130Y-89131183D01*
X165707102Y-89175970D01*
X165559142Y-89237258D01*
X165402075Y-89268500D01*
X165241925Y-89268500D01*
X165084858Y-89237258D01*
X164936898Y-89175970D01*
X164869870Y-89131183D01*
X164803743Y-89086999D01*
X164690501Y-88973757D01*
X164601529Y-88840600D01*
X164580393Y-88789574D01*
X164540242Y-88692642D01*
X164509000Y-88535575D01*
X164509000Y-88375425D01*
X164540242Y-88218358D01*
X164601530Y-88070398D01*
X164690502Y-87937242D01*
X164803742Y-87824002D01*
X164815076Y-87816429D01*
X164894827Y-87763141D01*
X164936898Y-87735030D01*
X165084858Y-87673742D01*
X165241925Y-87642500D01*
X165402075Y-87642500D01*
X165559142Y-87673742D01*
X165559142Y-87673742D01*
G37*
G36*
X125546425Y-86692760D02*
X125546428Y-86692761D01*
X125546429Y-86692761D01*
X125725693Y-86747140D01*
X125725695Y-86747141D01*
X125890905Y-86835448D01*
X126035712Y-86954288D01*
X126154552Y-87099095D01*
X126154553Y-87099097D01*
X126242860Y-87264307D01*
X126262593Y-87329358D01*
X126297240Y-87443575D01*
X126315601Y-87630000D01*
X126297240Y-87816425D01*
X126297239Y-87816428D01*
X126297239Y-87816429D01*
X126250567Y-87970288D01*
X126242859Y-87995695D01*
X126154552Y-88160905D01*
X126035712Y-88305712D01*
X125890905Y-88424552D01*
X125801467Y-88472358D01*
X125725693Y-88512860D01*
X125546429Y-88567239D01*
X125546428Y-88567239D01*
X125546425Y-88567240D01*
X125406718Y-88581000D01*
X123513282Y-88581000D01*
X123373575Y-88567240D01*
X123373572Y-88567239D01*
X123373571Y-88567239D01*
X123194307Y-88512860D01*
X123118533Y-88472358D01*
X123029095Y-88424552D01*
X122884288Y-88305712D01*
X122765448Y-88160905D01*
X122677141Y-87995695D01*
X122669434Y-87970288D01*
X122622761Y-87816429D01*
X122622761Y-87816428D01*
X122622760Y-87816425D01*
X122604399Y-87630000D01*
X122622760Y-87443575D01*
X122657407Y-87329358D01*
X122677140Y-87264307D01*
X122765447Y-87099097D01*
X122765448Y-87099095D01*
X122884288Y-86954288D01*
X123029095Y-86835448D01*
X123194305Y-86747141D01*
X123194307Y-86747140D01*
X123373571Y-86692761D01*
X123373572Y-86692761D01*
X123373575Y-86692760D01*
X123513282Y-86679000D01*
X125406718Y-86679000D01*
X125546425Y-86692760D01*
X125546425Y-86692760D01*
G37*
G36*
X116886642Y-86784742D02*
X117034602Y-86846030D01*
X117167758Y-86935002D01*
X117280998Y-87048242D01*
X117369970Y-87181398D01*
X117431258Y-87329358D01*
X117462500Y-87486425D01*
X117462500Y-87646575D01*
X117431258Y-87803642D01*
X117407460Y-87861095D01*
X117369971Y-87951600D01*
X117280999Y-88084757D01*
X117167757Y-88197999D01*
X117137289Y-88218357D01*
X117034602Y-88286970D01*
X116886642Y-88348258D01*
X116729575Y-88379500D01*
X116569425Y-88379500D01*
X116412358Y-88348258D01*
X116264398Y-88286970D01*
X116161711Y-88218357D01*
X116131243Y-88197999D01*
X116018001Y-88084757D01*
X115929029Y-87951600D01*
X115891540Y-87861095D01*
X115867742Y-87803642D01*
X115836500Y-87646575D01*
X115836500Y-87486425D01*
X115867742Y-87329358D01*
X115929030Y-87181398D01*
X116018002Y-87048242D01*
X116131242Y-86935002D01*
X116264398Y-86846030D01*
X116412358Y-86784742D01*
X116569425Y-86753500D01*
X116729575Y-86753500D01*
X116886642Y-86784742D01*
X116886642Y-86784742D01*
G37*
G36*
X190959142Y-85387742D02*
X191107102Y-85449030D01*
X191130793Y-85464860D01*
X191240257Y-85538001D01*
X191353499Y-85651243D01*
X191397683Y-85717370D01*
X191442470Y-85784398D01*
X191503758Y-85932358D01*
X191535000Y-86089425D01*
X191535000Y-86249575D01*
X191503758Y-86406642D01*
X191442470Y-86554602D01*
X191428172Y-86576000D01*
X191353499Y-86687757D01*
X191240257Y-86800999D01*
X191188700Y-86835448D01*
X191107102Y-86889970D01*
X190959142Y-86951258D01*
X190802075Y-86982500D01*
X190641925Y-86982500D01*
X190484858Y-86951258D01*
X190336898Y-86889970D01*
X190255300Y-86835448D01*
X190203743Y-86800999D01*
X190090501Y-86687757D01*
X190015828Y-86576000D01*
X190001530Y-86554602D01*
X189940242Y-86406642D01*
X189909000Y-86249575D01*
X189909000Y-86089425D01*
X189940242Y-85932358D01*
X190001530Y-85784398D01*
X190046317Y-85717370D01*
X190090501Y-85651243D01*
X190203743Y-85538001D01*
X190313207Y-85464860D01*
X190336898Y-85449030D01*
X190484858Y-85387742D01*
X190641925Y-85356500D01*
X190802075Y-85356500D01*
X190959142Y-85387742D01*
X190959142Y-85387742D01*
G37*
G36*
X165559142Y-85133742D02*
X165707102Y-85195030D01*
X165774130Y-85239817D01*
X165840257Y-85284001D01*
X165953499Y-85397243D01*
X165953845Y-85397761D01*
X166042470Y-85530398D01*
X166103758Y-85678358D01*
X166135000Y-85835425D01*
X166135000Y-85995575D01*
X166103758Y-86152642D01*
X166084109Y-86200078D01*
X166042471Y-86300600D01*
X165953499Y-86433757D01*
X165840257Y-86546999D01*
X165774130Y-86591183D01*
X165707102Y-86635970D01*
X165559142Y-86697258D01*
X165402075Y-86728500D01*
X165241925Y-86728500D01*
X165084858Y-86697258D01*
X164936898Y-86635970D01*
X164869870Y-86591183D01*
X164803743Y-86546999D01*
X164690501Y-86433757D01*
X164601529Y-86300600D01*
X164559891Y-86200078D01*
X164540242Y-86152642D01*
X164509000Y-85995575D01*
X164509000Y-85835425D01*
X164540242Y-85678358D01*
X164601530Y-85530398D01*
X164690155Y-85397761D01*
X164690501Y-85397243D01*
X164803743Y-85284001D01*
X164869870Y-85239817D01*
X164936898Y-85195030D01*
X165084858Y-85133742D01*
X165241925Y-85102500D01*
X165402075Y-85102500D01*
X165559142Y-85133742D01*
X165559142Y-85133742D01*
G37*
G36*
X131929321Y-84886313D02*
X131929324Y-84886314D01*
X131929325Y-84886314D01*
X132089739Y-84934975D01*
X132089741Y-84934976D01*
X132089744Y-84934977D01*
X132237578Y-85013995D01*
X132367159Y-85120341D01*
X132473505Y-85249922D01*
X132552523Y-85397756D01*
X132552524Y-85397759D01*
X132552525Y-85397761D01*
X132597116Y-85544758D01*
X132601187Y-85558179D01*
X132617617Y-85725000D01*
X132601187Y-85891821D01*
X132601186Y-85891824D01*
X132601186Y-85891825D01*
X132569714Y-85995575D01*
X132552523Y-86052244D01*
X132473505Y-86200078D01*
X132367159Y-86329659D01*
X132237578Y-86436005D01*
X132089744Y-86515023D01*
X132089741Y-86515024D01*
X132089739Y-86515025D01*
X131929325Y-86563686D01*
X131929324Y-86563686D01*
X131929321Y-86563687D01*
X131804304Y-86576000D01*
X131720696Y-86576000D01*
X131595679Y-86563687D01*
X131595676Y-86563686D01*
X131595675Y-86563686D01*
X131435261Y-86515025D01*
X131435259Y-86515024D01*
X131435256Y-86515023D01*
X131287422Y-86436005D01*
X131157841Y-86329659D01*
X131051495Y-86200078D01*
X130972477Y-86052244D01*
X130955287Y-85995575D01*
X130923814Y-85891825D01*
X130923814Y-85891824D01*
X130923813Y-85891821D01*
X130907383Y-85725000D01*
X130923813Y-85558179D01*
X130927884Y-85544758D01*
X130972475Y-85397761D01*
X130972476Y-85397759D01*
X130972477Y-85397756D01*
X131051495Y-85249922D01*
X131157841Y-85120341D01*
X131287422Y-85013995D01*
X131435256Y-84934977D01*
X131435259Y-84934976D01*
X131435261Y-84934975D01*
X131595675Y-84886314D01*
X131595676Y-84886314D01*
X131595679Y-84886313D01*
X131720696Y-84874000D01*
X131804304Y-84874000D01*
X131929321Y-84886313D01*
X131929321Y-84886313D01*
G37*
G36*
X116886642Y-84244742D02*
X117034602Y-84306030D01*
X117167758Y-84395002D01*
X117280998Y-84508242D01*
X117330282Y-84582000D01*
X117369971Y-84641400D01*
X117373357Y-84649575D01*
X117431258Y-84789358D01*
X117462500Y-84946425D01*
X117462500Y-85106575D01*
X117431258Y-85263642D01*
X117422824Y-85284002D01*
X117369971Y-85411600D01*
X117285513Y-85538002D01*
X117280998Y-85544758D01*
X117167758Y-85657998D01*
X117034602Y-85746970D01*
X116886642Y-85808258D01*
X116729575Y-85839500D01*
X116569425Y-85839500D01*
X116412358Y-85808258D01*
X116264398Y-85746970D01*
X116131242Y-85657998D01*
X116018002Y-85544758D01*
X116013488Y-85538002D01*
X115929029Y-85411600D01*
X115876176Y-85284002D01*
X115867742Y-85263642D01*
X115836500Y-85106575D01*
X115836500Y-84946425D01*
X115867742Y-84789358D01*
X115925643Y-84649575D01*
X115929029Y-84641400D01*
X115968719Y-84582000D01*
X116018002Y-84508242D01*
X116131242Y-84395002D01*
X116264398Y-84306030D01*
X116412358Y-84244742D01*
X116569425Y-84213500D01*
X116729575Y-84213500D01*
X116886642Y-84244742D01*
X116886642Y-84244742D01*
G37*
G36*
X178854425Y-83898760D02*
X178854428Y-83898761D01*
X178854429Y-83898761D01*
X179033693Y-83953140D01*
X179033695Y-83953141D01*
X179198905Y-84041448D01*
X179343712Y-84160288D01*
X179462552Y-84305095D01*
X179510913Y-84395571D01*
X179550860Y-84470307D01*
X179594616Y-84614552D01*
X179605240Y-84649575D01*
X179623601Y-84836000D01*
X179605240Y-85022425D01*
X179605239Y-85022428D01*
X179605239Y-85022429D01*
X179571473Y-85133742D01*
X179550859Y-85201695D01*
X179462552Y-85366905D01*
X179343712Y-85511712D01*
X179198905Y-85630552D01*
X179109467Y-85678358D01*
X179033693Y-85718860D01*
X178854429Y-85773239D01*
X178854428Y-85773239D01*
X178854425Y-85773240D01*
X178714718Y-85787000D01*
X176821282Y-85787000D01*
X176681575Y-85773240D01*
X176681572Y-85773239D01*
X176681571Y-85773239D01*
X176502307Y-85718860D01*
X176426533Y-85678358D01*
X176337095Y-85630552D01*
X176192288Y-85511712D01*
X176073448Y-85366905D01*
X175985141Y-85201695D01*
X175964528Y-85133742D01*
X175930761Y-85022429D01*
X175930761Y-85022428D01*
X175930760Y-85022425D01*
X175912399Y-84836000D01*
X175930760Y-84649575D01*
X175941384Y-84614552D01*
X175985140Y-84470307D01*
X176025087Y-84395571D01*
X176073448Y-84305095D01*
X176192288Y-84160288D01*
X176337095Y-84041448D01*
X176502305Y-83953141D01*
X176502307Y-83953140D01*
X176681571Y-83898761D01*
X176681572Y-83898761D01*
X176681575Y-83898760D01*
X176821282Y-83885000D01*
X178714718Y-83885000D01*
X178854425Y-83898760D01*
X178854425Y-83898760D01*
G37*
G36*
X141421425Y-83644760D02*
X141421428Y-83644761D01*
X141421429Y-83644761D01*
X141600693Y-83699140D01*
X141600695Y-83699141D01*
X141765905Y-83787448D01*
X141910712Y-83906288D01*
X142029552Y-84051095D01*
X142102997Y-84188500D01*
X142117860Y-84216307D01*
X142172066Y-84395001D01*
X142172240Y-84395575D01*
X142190601Y-84582000D01*
X142172240Y-84768425D01*
X142172239Y-84768428D01*
X142172239Y-84768429D01*
X142118245Y-84946425D01*
X142117859Y-84947695D01*
X142029552Y-85112905D01*
X141910712Y-85257712D01*
X141765905Y-85376552D01*
X141765903Y-85376553D01*
X141600693Y-85464860D01*
X141421429Y-85519239D01*
X141421428Y-85519239D01*
X141421425Y-85519240D01*
X141281718Y-85533000D01*
X139388282Y-85533000D01*
X139248575Y-85519240D01*
X139248572Y-85519239D01*
X139248571Y-85519239D01*
X139069307Y-85464860D01*
X138904097Y-85376553D01*
X138904095Y-85376552D01*
X138759288Y-85257712D01*
X138640448Y-85112905D01*
X138552141Y-84947695D01*
X138551756Y-84946425D01*
X138497761Y-84768429D01*
X138497761Y-84768428D01*
X138497760Y-84768425D01*
X138479399Y-84582000D01*
X138497760Y-84395575D01*
X138497934Y-84395001D01*
X138552140Y-84216307D01*
X138567003Y-84188500D01*
X138640448Y-84051095D01*
X138759288Y-83906288D01*
X138904095Y-83787448D01*
X139069305Y-83699141D01*
X139069307Y-83699140D01*
X139248571Y-83644761D01*
X139248572Y-83644761D01*
X139248575Y-83644760D01*
X139388282Y-83631000D01*
X141281718Y-83631000D01*
X141421425Y-83644760D01*
X141421425Y-83644760D01*
G37*
G36*
X125546425Y-82882760D02*
X125546428Y-82882761D01*
X125546429Y-82882761D01*
X125725693Y-82937140D01*
X125725695Y-82937141D01*
X125890905Y-83025448D01*
X126035712Y-83144288D01*
X126154552Y-83289095D01*
X126154553Y-83289097D01*
X126242860Y-83454307D01*
X126296459Y-83631000D01*
X126297240Y-83633575D01*
X126315601Y-83820000D01*
X126297240Y-84006425D01*
X126297239Y-84006428D01*
X126297239Y-84006429D01*
X126250567Y-84160288D01*
X126242859Y-84185695D01*
X126154552Y-84350905D01*
X126035712Y-84495712D01*
X125890905Y-84614552D01*
X125890903Y-84614553D01*
X125725693Y-84702860D01*
X125546429Y-84757239D01*
X125546428Y-84757239D01*
X125546425Y-84757240D01*
X125406718Y-84771000D01*
X123513282Y-84771000D01*
X123373575Y-84757240D01*
X123373572Y-84757239D01*
X123373571Y-84757239D01*
X123194307Y-84702860D01*
X123029097Y-84614553D01*
X123029095Y-84614552D01*
X122884288Y-84495712D01*
X122765448Y-84350905D01*
X122677141Y-84185695D01*
X122669434Y-84160288D01*
X122622761Y-84006429D01*
X122622761Y-84006428D01*
X122622760Y-84006425D01*
X122604399Y-83820000D01*
X122622760Y-83633575D01*
X122623541Y-83631000D01*
X122677140Y-83454307D01*
X122765447Y-83289097D01*
X122765448Y-83289095D01*
X122884288Y-83144288D01*
X123029095Y-83025448D01*
X123194305Y-82937141D01*
X123194307Y-82937140D01*
X123373571Y-82882761D01*
X123373572Y-82882761D01*
X123373575Y-82882760D01*
X123513282Y-82869000D01*
X125406718Y-82869000D01*
X125546425Y-82882760D01*
X125546425Y-82882760D01*
G37*
G36*
X190959142Y-82847742D02*
X191107102Y-82909030D01*
X191149173Y-82937141D01*
X191240257Y-82998001D01*
X191353499Y-83111243D01*
X191375579Y-83144288D01*
X191442470Y-83244398D01*
X191503758Y-83392358D01*
X191535000Y-83549425D01*
X191535000Y-83709575D01*
X191503758Y-83866642D01*
X191467929Y-83953140D01*
X191445856Y-84006429D01*
X191442470Y-84014602D01*
X191353498Y-84147758D01*
X191240258Y-84260998D01*
X191107102Y-84349970D01*
X190959142Y-84411258D01*
X190802075Y-84442500D01*
X190641925Y-84442500D01*
X190484858Y-84411258D01*
X190336898Y-84349970D01*
X190203742Y-84260998D01*
X190090502Y-84147758D01*
X190001530Y-84014602D01*
X189998145Y-84006429D01*
X189976071Y-83953140D01*
X189940242Y-83866642D01*
X189909000Y-83709575D01*
X189909000Y-83549425D01*
X189940242Y-83392358D01*
X190001530Y-83244398D01*
X190068421Y-83144288D01*
X190090501Y-83111243D01*
X190203743Y-82998001D01*
X190294827Y-82937141D01*
X190336898Y-82909030D01*
X190484858Y-82847742D01*
X190641925Y-82816500D01*
X190802075Y-82816500D01*
X190959142Y-82847742D01*
X190959142Y-82847742D01*
G37*
G36*
X165559142Y-82593742D02*
X165707102Y-82655030D01*
X165774130Y-82699817D01*
X165840257Y-82744001D01*
X165953499Y-82857243D01*
X165963092Y-82871600D01*
X166042470Y-82990398D01*
X166103758Y-83138358D01*
X166135000Y-83295425D01*
X166135000Y-83455575D01*
X166103758Y-83612642D01*
X166042470Y-83760602D01*
X165997683Y-83827630D01*
X165953499Y-83893757D01*
X165840257Y-84006999D01*
X165788700Y-84041448D01*
X165707102Y-84095970D01*
X165559142Y-84157258D01*
X165402075Y-84188500D01*
X165241925Y-84188500D01*
X165084858Y-84157258D01*
X164936898Y-84095970D01*
X164855300Y-84041448D01*
X164803743Y-84006999D01*
X164690501Y-83893757D01*
X164646317Y-83827630D01*
X164601530Y-83760602D01*
X164540242Y-83612642D01*
X164509000Y-83455575D01*
X164509000Y-83295425D01*
X164540242Y-83138358D01*
X164601530Y-82990398D01*
X164680908Y-82871600D01*
X164690501Y-82857243D01*
X164803743Y-82744001D01*
X164869870Y-82699817D01*
X164936898Y-82655030D01*
X165084858Y-82593742D01*
X165241925Y-82562500D01*
X165402075Y-82562500D01*
X165559142Y-82593742D01*
X165559142Y-82593742D01*
G37*
G36*
X116886642Y-81704742D02*
X117034602Y-81766030D01*
X117100363Y-81809970D01*
X117116202Y-81820553D01*
X117167758Y-81855002D01*
X117280998Y-81968242D01*
X117369970Y-82101398D01*
X117431258Y-82249358D01*
X117462500Y-82406425D01*
X117462500Y-82566575D01*
X117431258Y-82723642D01*
X117422824Y-82744002D01*
X117369971Y-82871600D01*
X117285513Y-82998002D01*
X117280998Y-83004758D01*
X117167758Y-83117998D01*
X117034602Y-83206970D01*
X116886642Y-83268258D01*
X116729575Y-83299500D01*
X116569425Y-83299500D01*
X116412358Y-83268258D01*
X116264398Y-83206970D01*
X116131242Y-83117998D01*
X116018002Y-83004758D01*
X116013488Y-82998002D01*
X115929029Y-82871600D01*
X115876176Y-82744002D01*
X115867742Y-82723642D01*
X115836500Y-82566575D01*
X115836500Y-82406425D01*
X115867742Y-82249358D01*
X115929030Y-82101398D01*
X116018002Y-81968242D01*
X116131242Y-81855002D01*
X116182799Y-81820553D01*
X116198637Y-81809970D01*
X116264398Y-81766030D01*
X116412358Y-81704742D01*
X116569425Y-81673500D01*
X116729575Y-81673500D01*
X116886642Y-81704742D01*
X116886642Y-81704742D01*
G37*
G36*
X178854425Y-80088760D02*
X178854428Y-80088761D01*
X178854429Y-80088761D01*
X179033693Y-80143140D01*
X179033695Y-80143141D01*
X179198905Y-80231448D01*
X179343712Y-80350288D01*
X179462552Y-80495095D01*
X179462553Y-80495097D01*
X179550860Y-80660307D01*
X179594616Y-80804552D01*
X179605240Y-80839575D01*
X179623601Y-81026000D01*
X179605240Y-81212425D01*
X179605239Y-81212428D01*
X179605239Y-81212429D01*
X179562368Y-81353757D01*
X179550859Y-81391695D01*
X179462552Y-81556905D01*
X179343712Y-81701712D01*
X179198905Y-81820552D01*
X179198903Y-81820553D01*
X179033693Y-81908860D01*
X178854429Y-81963239D01*
X178854428Y-81963239D01*
X178854425Y-81963240D01*
X178714718Y-81977000D01*
X176821282Y-81977000D01*
X176681575Y-81963240D01*
X176681572Y-81963239D01*
X176681571Y-81963239D01*
X176502307Y-81908860D01*
X176337097Y-81820553D01*
X176337095Y-81820552D01*
X176192288Y-81701712D01*
X176073448Y-81556905D01*
X175985141Y-81391695D01*
X175973633Y-81353757D01*
X175930761Y-81212429D01*
X175930761Y-81212428D01*
X175930760Y-81212425D01*
X175912399Y-81026000D01*
X175930760Y-80839575D01*
X175941384Y-80804552D01*
X175985140Y-80660307D01*
X176073447Y-80495097D01*
X176073448Y-80495095D01*
X176192288Y-80350288D01*
X176337095Y-80231448D01*
X176502305Y-80143141D01*
X176502307Y-80143140D01*
X176681571Y-80088761D01*
X176681572Y-80088761D01*
X176681575Y-80088760D01*
X176821282Y-80075000D01*
X178714718Y-80075000D01*
X178854425Y-80088760D01*
X178854425Y-80088760D01*
G37*
G36*
X190959142Y-80307742D02*
X191107102Y-80369030D01*
X191174130Y-80413817D01*
X191240257Y-80458001D01*
X191353499Y-80571243D01*
X191377391Y-80607000D01*
X191442470Y-80704398D01*
X191503758Y-80852358D01*
X191535000Y-81009425D01*
X191535000Y-81169575D01*
X191503758Y-81326642D01*
X191456354Y-81441083D01*
X191449002Y-81458834D01*
X191442470Y-81474602D01*
X191353498Y-81607758D01*
X191240258Y-81720998D01*
X191107102Y-81809970D01*
X190959142Y-81871258D01*
X190802075Y-81902500D01*
X190641925Y-81902500D01*
X190484858Y-81871258D01*
X190336898Y-81809970D01*
X190203742Y-81720998D01*
X190090502Y-81607758D01*
X190001530Y-81474602D01*
X189994999Y-81458834D01*
X189987646Y-81441083D01*
X189940242Y-81326642D01*
X189909000Y-81169575D01*
X189909000Y-81009425D01*
X189940242Y-80852358D01*
X190001530Y-80704398D01*
X190066609Y-80607000D01*
X190090501Y-80571243D01*
X190203743Y-80458001D01*
X190269870Y-80413817D01*
X190336898Y-80369030D01*
X190484858Y-80307742D01*
X190641925Y-80276500D01*
X190802075Y-80276500D01*
X190959142Y-80307742D01*
X190959142Y-80307742D01*
G37*
G36*
X142045918Y-79824934D02*
X142078424Y-79834795D01*
X142108383Y-79850808D01*
X142134641Y-79872359D01*
X142156192Y-79898617D01*
X142172205Y-79928576D01*
X142182066Y-79961082D01*
X142186000Y-80001029D01*
X142186000Y-81542971D01*
X142182066Y-81582918D01*
X142172205Y-81615424D01*
X142156192Y-81645383D01*
X142134641Y-81671641D01*
X142108383Y-81693192D01*
X142078424Y-81709205D01*
X142045918Y-81719066D01*
X142005971Y-81723000D01*
X138664029Y-81723000D01*
X138624082Y-81719066D01*
X138591576Y-81709205D01*
X138561617Y-81693192D01*
X138535359Y-81671641D01*
X138513808Y-81645383D01*
X138497795Y-81615424D01*
X138487934Y-81582918D01*
X138484000Y-81542971D01*
X138484000Y-80001029D01*
X138487934Y-79961082D01*
X138497795Y-79928576D01*
X138513808Y-79898617D01*
X138535359Y-79872359D01*
X138561617Y-79850808D01*
X138591576Y-79834795D01*
X138624082Y-79824934D01*
X138664029Y-79821000D01*
X142005971Y-79821000D01*
X142045918Y-79824934D01*
X142045918Y-79824934D01*
G37*
G36*
X165559142Y-80053742D02*
X165707102Y-80115030D01*
X165749173Y-80143141D01*
X165828925Y-80196429D01*
X165840258Y-80204002D01*
X165953498Y-80317242D01*
X166042470Y-80450398D01*
X166103758Y-80598358D01*
X166135000Y-80755425D01*
X166135000Y-80915575D01*
X166103758Y-81072642D01*
X166063607Y-81169574D01*
X166042471Y-81220600D01*
X165971617Y-81326642D01*
X165953498Y-81353758D01*
X165840258Y-81466998D01*
X165707102Y-81555970D01*
X165559142Y-81617258D01*
X165402075Y-81648500D01*
X165241925Y-81648500D01*
X165084858Y-81617258D01*
X164936898Y-81555970D01*
X164803742Y-81466998D01*
X164690502Y-81353758D01*
X164672384Y-81326642D01*
X164601529Y-81220600D01*
X164580393Y-81169574D01*
X164540242Y-81072642D01*
X164509000Y-80915575D01*
X164509000Y-80755425D01*
X164540242Y-80598358D01*
X164601530Y-80450398D01*
X164690502Y-80317242D01*
X164803742Y-80204002D01*
X164815076Y-80196429D01*
X164894827Y-80143141D01*
X164936898Y-80115030D01*
X165084858Y-80053742D01*
X165241925Y-80022500D01*
X165402075Y-80022500D01*
X165559142Y-80053742D01*
X165559142Y-80053742D01*
G37*
G36*
X125546425Y-79072760D02*
X125546428Y-79072761D01*
X125546429Y-79072761D01*
X125725693Y-79127140D01*
X125725695Y-79127141D01*
X125890905Y-79215448D01*
X126035712Y-79334288D01*
X126154552Y-79479095D01*
X126154553Y-79479097D01*
X126242860Y-79644307D01*
X126296459Y-79821000D01*
X126297240Y-79823575D01*
X126315601Y-80010000D01*
X126297240Y-80196425D01*
X126297239Y-80196428D01*
X126297239Y-80196429D01*
X126247421Y-80360659D01*
X126242859Y-80375695D01*
X126154552Y-80540905D01*
X126035712Y-80685712D01*
X125890905Y-80804552D01*
X125801467Y-80852358D01*
X125725693Y-80892860D01*
X125546429Y-80947239D01*
X125546428Y-80947239D01*
X125546425Y-80947240D01*
X125406718Y-80961000D01*
X123513282Y-80961000D01*
X123373575Y-80947240D01*
X123373572Y-80947239D01*
X123373571Y-80947239D01*
X123194307Y-80892860D01*
X123118533Y-80852358D01*
X123029095Y-80804552D01*
X122884288Y-80685712D01*
X122765448Y-80540905D01*
X122677141Y-80375695D01*
X122672580Y-80360659D01*
X122622761Y-80196429D01*
X122622761Y-80196428D01*
X122622760Y-80196425D01*
X122604399Y-80010000D01*
X122622760Y-79823575D01*
X122623541Y-79821000D01*
X122677140Y-79644307D01*
X122765447Y-79479097D01*
X122765448Y-79479095D01*
X122884288Y-79334288D01*
X123029095Y-79215448D01*
X123194305Y-79127141D01*
X123194307Y-79127140D01*
X123373571Y-79072761D01*
X123373572Y-79072761D01*
X123373575Y-79072760D01*
X123513282Y-79059000D01*
X125406718Y-79059000D01*
X125546425Y-79072760D01*
X125546425Y-79072760D01*
G37*
G36*
X116886642Y-79164742D02*
X117034602Y-79226030D01*
X117100363Y-79269970D01*
X117167757Y-79315001D01*
X117280999Y-79428243D01*
X117281345Y-79428761D01*
X117369970Y-79561398D01*
X117431258Y-79709358D01*
X117462500Y-79866425D01*
X117462500Y-80026575D01*
X117431258Y-80183642D01*
X117392794Y-80276500D01*
X117369971Y-80331600D01*
X117280999Y-80464757D01*
X117167757Y-80577999D01*
X117101630Y-80622183D01*
X117034602Y-80666970D01*
X116886642Y-80728258D01*
X116729575Y-80759500D01*
X116569425Y-80759500D01*
X116412358Y-80728258D01*
X116264398Y-80666970D01*
X116197370Y-80622183D01*
X116131243Y-80577999D01*
X116018001Y-80464757D01*
X115929029Y-80331600D01*
X115906206Y-80276500D01*
X115867742Y-80183642D01*
X115836500Y-80026575D01*
X115836500Y-79866425D01*
X115867742Y-79709358D01*
X115929030Y-79561398D01*
X116017655Y-79428761D01*
X116018001Y-79428243D01*
X116131243Y-79315001D01*
X116198637Y-79269970D01*
X116264398Y-79226030D01*
X116412358Y-79164742D01*
X116569425Y-79133500D01*
X116729575Y-79133500D01*
X116886642Y-79164742D01*
X116886642Y-79164742D01*
G37*
G36*
X171521321Y-78917313D02*
X171521324Y-78917314D01*
X171521325Y-78917314D01*
X171681739Y-78965975D01*
X171681741Y-78965976D01*
X171681744Y-78965977D01*
X171829578Y-79044995D01*
X171959159Y-79151341D01*
X172065505Y-79280922D01*
X172144523Y-79428756D01*
X172144524Y-79428759D01*
X172144525Y-79428761D01*
X172193186Y-79589175D01*
X172193187Y-79589179D01*
X172209617Y-79756000D01*
X172193187Y-79922821D01*
X172193186Y-79922824D01*
X172193186Y-79922825D01*
X172153473Y-80053743D01*
X172144523Y-80083244D01*
X172065505Y-80231078D01*
X171959159Y-80360659D01*
X171829578Y-80467005D01*
X171681744Y-80546023D01*
X171681741Y-80546024D01*
X171681739Y-80546025D01*
X171521325Y-80594686D01*
X171521324Y-80594686D01*
X171521321Y-80594687D01*
X171396304Y-80607000D01*
X171312696Y-80607000D01*
X171187679Y-80594687D01*
X171187676Y-80594686D01*
X171187675Y-80594686D01*
X171027261Y-80546025D01*
X171027259Y-80546024D01*
X171027256Y-80546023D01*
X170879422Y-80467005D01*
X170749841Y-80360659D01*
X170643495Y-80231078D01*
X170564477Y-80083244D01*
X170555528Y-80053743D01*
X170515814Y-79922825D01*
X170515814Y-79922824D01*
X170515813Y-79922821D01*
X170499383Y-79756000D01*
X170515813Y-79589179D01*
X170515814Y-79589175D01*
X170564475Y-79428761D01*
X170564476Y-79428759D01*
X170564477Y-79428756D01*
X170643495Y-79280922D01*
X170749841Y-79151341D01*
X170879422Y-79044995D01*
X171027256Y-78965977D01*
X171027259Y-78965976D01*
X171027261Y-78965975D01*
X171187675Y-78917314D01*
X171187676Y-78917314D01*
X171187679Y-78917313D01*
X171312696Y-78905000D01*
X171396304Y-78905000D01*
X171521321Y-78917313D01*
X171521321Y-78917313D01*
G37*
G36*
X132056321Y-77837813D02*
X132056324Y-77837814D01*
X132056325Y-77837814D01*
X132216739Y-77886475D01*
X132216741Y-77886476D01*
X132216744Y-77886477D01*
X132364578Y-77965495D01*
X132494159Y-78071841D01*
X132600505Y-78201422D01*
X132679523Y-78349256D01*
X132679524Y-78349259D01*
X132679525Y-78349261D01*
X132728186Y-78509675D01*
X132728187Y-78509679D01*
X132744617Y-78676500D01*
X132728187Y-78843321D01*
X132728186Y-78843324D01*
X132728186Y-78843325D01*
X132690981Y-78965975D01*
X132679523Y-79003744D01*
X132600505Y-79151578D01*
X132494159Y-79281159D01*
X132364578Y-79387505D01*
X132216744Y-79466523D01*
X132216741Y-79466524D01*
X132216739Y-79466525D01*
X132056325Y-79515186D01*
X132056324Y-79515186D01*
X132056321Y-79515187D01*
X131931304Y-79527500D01*
X131847696Y-79527500D01*
X131722679Y-79515187D01*
X131722676Y-79515186D01*
X131722675Y-79515186D01*
X131562261Y-79466525D01*
X131562259Y-79466524D01*
X131562256Y-79466523D01*
X131414422Y-79387505D01*
X131284841Y-79281159D01*
X131178495Y-79151578D01*
X131099477Y-79003744D01*
X131088020Y-78965975D01*
X131050814Y-78843325D01*
X131050814Y-78843324D01*
X131050813Y-78843321D01*
X131034383Y-78676500D01*
X131050813Y-78509679D01*
X131050814Y-78509675D01*
X131099475Y-78349261D01*
X131099476Y-78349259D01*
X131099477Y-78349256D01*
X131178495Y-78201422D01*
X131284841Y-78071841D01*
X131414422Y-77965495D01*
X131562256Y-77886477D01*
X131562259Y-77886476D01*
X131562261Y-77886475D01*
X131722675Y-77837814D01*
X131722676Y-77837814D01*
X131722679Y-77837813D01*
X131847696Y-77825500D01*
X131931304Y-77825500D01*
X132056321Y-77837813D01*
X132056321Y-77837813D01*
G37*
G36*
X190959142Y-77767742D02*
X191107102Y-77829030D01*
X191120248Y-77837814D01*
X191240257Y-77918001D01*
X191353499Y-78031243D01*
X191397683Y-78097370D01*
X191442470Y-78164398D01*
X191503758Y-78312358D01*
X191535000Y-78469425D01*
X191535000Y-78629575D01*
X191503758Y-78786642D01*
X191456354Y-78901083D01*
X191442471Y-78934600D01*
X191353499Y-79067757D01*
X191240257Y-79180999D01*
X191188700Y-79215448D01*
X191107102Y-79269970D01*
X190959142Y-79331258D01*
X190802075Y-79362500D01*
X190641925Y-79362500D01*
X190484858Y-79331258D01*
X190336898Y-79269970D01*
X190255300Y-79215448D01*
X190203743Y-79180999D01*
X190090501Y-79067757D01*
X190001529Y-78934600D01*
X189987646Y-78901083D01*
X189940242Y-78786642D01*
X189909000Y-78629575D01*
X189909000Y-78469425D01*
X189940242Y-78312358D01*
X190001530Y-78164398D01*
X190046317Y-78097370D01*
X190090501Y-78031243D01*
X190203743Y-77918001D01*
X190323752Y-77837814D01*
X190336898Y-77829030D01*
X190484858Y-77767742D01*
X190641925Y-77736500D01*
X190802075Y-77736500D01*
X190959142Y-77767742D01*
X190959142Y-77767742D01*
G37*
G36*
X165559142Y-77513742D02*
X165707102Y-77575030D01*
X165840258Y-77664002D01*
X165953498Y-77777242D01*
X166042470Y-77910398D01*
X166103758Y-78058358D01*
X166135000Y-78215425D01*
X166135000Y-78375575D01*
X166103758Y-78532642D01*
X166063607Y-78629574D01*
X166042471Y-78680600D01*
X165971617Y-78786642D01*
X165953498Y-78813758D01*
X165840258Y-78926998D01*
X165707102Y-79015970D01*
X165559142Y-79077258D01*
X165402075Y-79108500D01*
X165241925Y-79108500D01*
X165084858Y-79077258D01*
X164936898Y-79015970D01*
X164803742Y-78926998D01*
X164690502Y-78813758D01*
X164672384Y-78786642D01*
X164601529Y-78680600D01*
X164580393Y-78629574D01*
X164540242Y-78532642D01*
X164509000Y-78375575D01*
X164509000Y-78215425D01*
X164540242Y-78058358D01*
X164601530Y-77910398D01*
X164690502Y-77777242D01*
X164803742Y-77664002D01*
X164936898Y-77575030D01*
X165084858Y-77513742D01*
X165241925Y-77482500D01*
X165402075Y-77482500D01*
X165559142Y-77513742D01*
X165559142Y-77513742D01*
G37*
G36*
X116886642Y-76624742D02*
X117001083Y-76672146D01*
X117030477Y-76684321D01*
X117034602Y-76686030D01*
X117100363Y-76729970D01*
X117167757Y-76775001D01*
X117280999Y-76888243D01*
X117369971Y-77021400D01*
X117373357Y-77029575D01*
X117431258Y-77169358D01*
X117462500Y-77326425D01*
X117462500Y-77486575D01*
X117431258Y-77643642D01*
X117422824Y-77664002D01*
X117369971Y-77791600D01*
X117285513Y-77918002D01*
X117280998Y-77924758D01*
X117167758Y-78037998D01*
X117034602Y-78126970D01*
X116886642Y-78188258D01*
X116729575Y-78219500D01*
X116569425Y-78219500D01*
X116412358Y-78188258D01*
X116264398Y-78126970D01*
X116131242Y-78037998D01*
X116018002Y-77924758D01*
X116013488Y-77918002D01*
X115929029Y-77791600D01*
X115876176Y-77664002D01*
X115867742Y-77643642D01*
X115836500Y-77486575D01*
X115836500Y-77326425D01*
X115867742Y-77169358D01*
X115925643Y-77029575D01*
X115929029Y-77021400D01*
X116018001Y-76888243D01*
X116131243Y-76775001D01*
X116198637Y-76729970D01*
X116264398Y-76686030D01*
X116268524Y-76684321D01*
X116297917Y-76672146D01*
X116412358Y-76624742D01*
X116569425Y-76593500D01*
X116729575Y-76593500D01*
X116886642Y-76624742D01*
X116886642Y-76624742D01*
G37*
G36*
X178854425Y-76278760D02*
X178854428Y-76278761D01*
X178854429Y-76278761D01*
X179033693Y-76333140D01*
X179033695Y-76333141D01*
X179198905Y-76421448D01*
X179343712Y-76540288D01*
X179462552Y-76685095D01*
X179519297Y-76791257D01*
X179550860Y-76850307D01*
X179594017Y-76992578D01*
X179605240Y-77029575D01*
X179623601Y-77216000D01*
X179605240Y-77402425D01*
X179605239Y-77402428D01*
X179605239Y-77402429D01*
X179571473Y-77513742D01*
X179550859Y-77581695D01*
X179462552Y-77746905D01*
X179343712Y-77891712D01*
X179198905Y-78010552D01*
X179109467Y-78058358D01*
X179033693Y-78098860D01*
X178854429Y-78153239D01*
X178854428Y-78153239D01*
X178854425Y-78153240D01*
X178714718Y-78167000D01*
X176821282Y-78167000D01*
X176681575Y-78153240D01*
X176681572Y-78153239D01*
X176681571Y-78153239D01*
X176502307Y-78098860D01*
X176426533Y-78058358D01*
X176337095Y-78010552D01*
X176192288Y-77891712D01*
X176073448Y-77746905D01*
X175985141Y-77581695D01*
X175964528Y-77513742D01*
X175930761Y-77402429D01*
X175930761Y-77402428D01*
X175930760Y-77402425D01*
X175912399Y-77216000D01*
X175930760Y-77029575D01*
X175941983Y-76992578D01*
X175985140Y-76850307D01*
X176016703Y-76791257D01*
X176073448Y-76685095D01*
X176192288Y-76540288D01*
X176337095Y-76421448D01*
X176502305Y-76333141D01*
X176502307Y-76333140D01*
X176681571Y-76278761D01*
X176681572Y-76278761D01*
X176681575Y-76278760D01*
X176821282Y-76265000D01*
X178714718Y-76265000D01*
X178854425Y-76278760D01*
X178854425Y-76278760D01*
G37*
G36*
X171457821Y-75678813D02*
X171457824Y-75678814D01*
X171457825Y-75678814D01*
X171618239Y-75727475D01*
X171618241Y-75727476D01*
X171618244Y-75727477D01*
X171766078Y-75806495D01*
X171895659Y-75912841D01*
X172002005Y-76042422D01*
X172081023Y-76190256D01*
X172081024Y-76190259D01*
X172081025Y-76190261D01*
X172107871Y-76278760D01*
X172129687Y-76350679D01*
X172146117Y-76517500D01*
X172129687Y-76684321D01*
X172129686Y-76684324D01*
X172129686Y-76684325D01*
X172097249Y-76791257D01*
X172081023Y-76844744D01*
X172002005Y-76992578D01*
X171895659Y-77122159D01*
X171766078Y-77228505D01*
X171618244Y-77307523D01*
X171618241Y-77307524D01*
X171618239Y-77307525D01*
X171457825Y-77356186D01*
X171457824Y-77356186D01*
X171457821Y-77356187D01*
X171332804Y-77368500D01*
X171249196Y-77368500D01*
X171124179Y-77356187D01*
X171124176Y-77356186D01*
X171124175Y-77356186D01*
X170963761Y-77307525D01*
X170963759Y-77307524D01*
X170963756Y-77307523D01*
X170815922Y-77228505D01*
X170686341Y-77122159D01*
X170579995Y-76992578D01*
X170500977Y-76844744D01*
X170484752Y-76791257D01*
X170452314Y-76684325D01*
X170452314Y-76684324D01*
X170452313Y-76684321D01*
X170435883Y-76517500D01*
X170452313Y-76350679D01*
X170474129Y-76278760D01*
X170500975Y-76190261D01*
X170500976Y-76190259D01*
X170500977Y-76190256D01*
X170579995Y-76042422D01*
X170686341Y-75912841D01*
X170815922Y-75806495D01*
X170963756Y-75727477D01*
X170963759Y-75727476D01*
X170963761Y-75727475D01*
X171124175Y-75678814D01*
X171124176Y-75678814D01*
X171124179Y-75678813D01*
X171249196Y-75666500D01*
X171332804Y-75666500D01*
X171457821Y-75678813D01*
X171457821Y-75678813D01*
G37*
G36*
X125546425Y-75262760D02*
X125546428Y-75262761D01*
X125546429Y-75262761D01*
X125725693Y-75317140D01*
X125725695Y-75317141D01*
X125890905Y-75405448D01*
X126035712Y-75524288D01*
X126154552Y-75669095D01*
X126154553Y-75669097D01*
X126242860Y-75834307D01*
X126297239Y-76013571D01*
X126297240Y-76013575D01*
X126315601Y-76200000D01*
X126297240Y-76386425D01*
X126297239Y-76386428D01*
X126297239Y-76386429D01*
X126250567Y-76540288D01*
X126242859Y-76565695D01*
X126154552Y-76730905D01*
X126035712Y-76875712D01*
X125890905Y-76994552D01*
X125890903Y-76994553D01*
X125725693Y-77082860D01*
X125546429Y-77137239D01*
X125546428Y-77137239D01*
X125546425Y-77137240D01*
X125406718Y-77151000D01*
X123513282Y-77151000D01*
X123373575Y-77137240D01*
X123373572Y-77137239D01*
X123373571Y-77137239D01*
X123194307Y-77082860D01*
X123029097Y-76994553D01*
X123029095Y-76994552D01*
X122884288Y-76875712D01*
X122765448Y-76730905D01*
X122677141Y-76565695D01*
X122669434Y-76540288D01*
X122622761Y-76386429D01*
X122622761Y-76386428D01*
X122622760Y-76386425D01*
X122604399Y-76200000D01*
X122622760Y-76013575D01*
X122622761Y-76013571D01*
X122677140Y-75834307D01*
X122765447Y-75669097D01*
X122765448Y-75669095D01*
X122884288Y-75524288D01*
X123029095Y-75405448D01*
X123194305Y-75317141D01*
X123194307Y-75317140D01*
X123373571Y-75262761D01*
X123373572Y-75262761D01*
X123373575Y-75262760D01*
X123513282Y-75249000D01*
X125406718Y-75249000D01*
X125546425Y-75262760D01*
X125546425Y-75262760D01*
G37*
G36*
X190959142Y-75227742D02*
X191107102Y-75289030D01*
X191149173Y-75317141D01*
X191240257Y-75378001D01*
X191353499Y-75491243D01*
X191375579Y-75524288D01*
X191442470Y-75624398D01*
X191503758Y-75772358D01*
X191535000Y-75929425D01*
X191535000Y-76089575D01*
X191503758Y-76246642D01*
X191467929Y-76333140D01*
X191445856Y-76386429D01*
X191442470Y-76394602D01*
X191353498Y-76527758D01*
X191240258Y-76640998D01*
X191107102Y-76729970D01*
X190959142Y-76791258D01*
X190802075Y-76822500D01*
X190641925Y-76822500D01*
X190484858Y-76791258D01*
X190336898Y-76729970D01*
X190203742Y-76640998D01*
X190090502Y-76527758D01*
X190001530Y-76394602D01*
X189998145Y-76386429D01*
X189976071Y-76333140D01*
X189940242Y-76246642D01*
X189909000Y-76089575D01*
X189909000Y-75929425D01*
X189940242Y-75772358D01*
X190001530Y-75624398D01*
X190068421Y-75524288D01*
X190090501Y-75491243D01*
X190203743Y-75378001D01*
X190294827Y-75317141D01*
X190336898Y-75289030D01*
X190484858Y-75227742D01*
X190641925Y-75196500D01*
X190802075Y-75196500D01*
X190959142Y-75227742D01*
X190959142Y-75227742D01*
G37*
G36*
X165559142Y-74973742D02*
X165707102Y-75035030D01*
X165774130Y-75079817D01*
X165840257Y-75124001D01*
X165953499Y-75237243D01*
X165963092Y-75251600D01*
X166042470Y-75370398D01*
X166103758Y-75518358D01*
X166135000Y-75675425D01*
X166135000Y-75835575D01*
X166103758Y-75992642D01*
X166042470Y-76140602D01*
X165997683Y-76207630D01*
X165953499Y-76273757D01*
X165840257Y-76386999D01*
X165788700Y-76421448D01*
X165707102Y-76475970D01*
X165559142Y-76537258D01*
X165402075Y-76568500D01*
X165241925Y-76568500D01*
X165084858Y-76537258D01*
X164936898Y-76475970D01*
X164855300Y-76421448D01*
X164803743Y-76386999D01*
X164690501Y-76273757D01*
X164646317Y-76207630D01*
X164601530Y-76140602D01*
X164540242Y-75992642D01*
X164509000Y-75835575D01*
X164509000Y-75675425D01*
X164540242Y-75518358D01*
X164601530Y-75370398D01*
X164680908Y-75251600D01*
X164690501Y-75237243D01*
X164803743Y-75124001D01*
X164869870Y-75079817D01*
X164936898Y-75035030D01*
X165084858Y-74973742D01*
X165241925Y-74942500D01*
X165402075Y-74942500D01*
X165559142Y-74973742D01*
X165559142Y-74973742D01*
G37*
G36*
X116886642Y-74084742D02*
X117034602Y-74146030D01*
X117100363Y-74189970D01*
X117167757Y-74235001D01*
X117280999Y-74348243D01*
X117301054Y-74378258D01*
X117369970Y-74481398D01*
X117431258Y-74629358D01*
X117462500Y-74786425D01*
X117462500Y-74946575D01*
X117431258Y-75103642D01*
X117422824Y-75124002D01*
X117369971Y-75251600D01*
X117285513Y-75378002D01*
X117280998Y-75384758D01*
X117167758Y-75497998D01*
X117034602Y-75586970D01*
X116886642Y-75648258D01*
X116729575Y-75679500D01*
X116569425Y-75679500D01*
X116412358Y-75648258D01*
X116264398Y-75586970D01*
X116131242Y-75497998D01*
X116018002Y-75384758D01*
X116013488Y-75378002D01*
X115929029Y-75251600D01*
X115876176Y-75124002D01*
X115867742Y-75103642D01*
X115836500Y-74946575D01*
X115836500Y-74786425D01*
X115867742Y-74629358D01*
X115929030Y-74481398D01*
X115997946Y-74378258D01*
X116018001Y-74348243D01*
X116131243Y-74235001D01*
X116198637Y-74189970D01*
X116264398Y-74146030D01*
X116412358Y-74084742D01*
X116569425Y-74053500D01*
X116729575Y-74053500D01*
X116886642Y-74084742D01*
X116886642Y-74084742D01*
G37*
G36*
X142286642Y-72814742D02*
X142434602Y-72876030D01*
X142501630Y-72920817D01*
X142567757Y-72965001D01*
X142680999Y-73078243D01*
X142769971Y-73211400D01*
X142773357Y-73219575D01*
X142831258Y-73359358D01*
X142862500Y-73516425D01*
X142862500Y-73676575D01*
X142831258Y-73833642D01*
X142769970Y-73981602D01*
X142759509Y-73997258D01*
X142680999Y-74114757D01*
X142567757Y-74227999D01*
X142532947Y-74251258D01*
X142434602Y-74316970D01*
X142286642Y-74378258D01*
X142129575Y-74409500D01*
X141969425Y-74409500D01*
X141812358Y-74378258D01*
X141664398Y-74316970D01*
X141566053Y-74251258D01*
X141531243Y-74227999D01*
X141418001Y-74114757D01*
X141339491Y-73997258D01*
X141329030Y-73981602D01*
X141267742Y-73833642D01*
X141236500Y-73676575D01*
X141236500Y-73516425D01*
X141267742Y-73359358D01*
X141325643Y-73219575D01*
X141329029Y-73211400D01*
X141418001Y-73078243D01*
X141531243Y-72965001D01*
X141597370Y-72920817D01*
X141664398Y-72876030D01*
X141812358Y-72814742D01*
X141969425Y-72783500D01*
X142129575Y-72783500D01*
X142286642Y-72814742D01*
X142286642Y-72814742D01*
G37*
G36*
X178854425Y-72468760D02*
X178854428Y-72468761D01*
X178854429Y-72468761D01*
X179033693Y-72523140D01*
X179033695Y-72523141D01*
X179198905Y-72611448D01*
X179343712Y-72730288D01*
X179462552Y-72875095D01*
X179517747Y-72978357D01*
X179550860Y-73040307D01*
X179594616Y-73184552D01*
X179605240Y-73219575D01*
X179623601Y-73406000D01*
X179605240Y-73592425D01*
X179605239Y-73592428D01*
X179605239Y-73592429D01*
X179562368Y-73733757D01*
X179550859Y-73771695D01*
X179462552Y-73936905D01*
X179343712Y-74081712D01*
X179198905Y-74200552D01*
X179134456Y-74235001D01*
X179033693Y-74288860D01*
X178854429Y-74343239D01*
X178854428Y-74343239D01*
X178854425Y-74343240D01*
X178714718Y-74357000D01*
X176821282Y-74357000D01*
X176681575Y-74343240D01*
X176681572Y-74343239D01*
X176681571Y-74343239D01*
X176502307Y-74288860D01*
X176401544Y-74235001D01*
X176337095Y-74200552D01*
X176192288Y-74081712D01*
X176073448Y-73936905D01*
X175985141Y-73771695D01*
X175973633Y-73733757D01*
X175930761Y-73592429D01*
X175930761Y-73592428D01*
X175930760Y-73592425D01*
X175912399Y-73406000D01*
X175930760Y-73219575D01*
X175941384Y-73184552D01*
X175985140Y-73040307D01*
X176018253Y-72978357D01*
X176073448Y-72875095D01*
X176192288Y-72730288D01*
X176337095Y-72611448D01*
X176502305Y-72523141D01*
X176502307Y-72523140D01*
X176681571Y-72468761D01*
X176681572Y-72468761D01*
X176681575Y-72468760D01*
X176821282Y-72455000D01*
X178714718Y-72455000D01*
X178854425Y-72468760D01*
X178854425Y-72468760D01*
G37*
G36*
X190959142Y-72687742D02*
X191107102Y-72749030D01*
X191158690Y-72783500D01*
X191240257Y-72838001D01*
X191353499Y-72951243D01*
X191397683Y-73017370D01*
X191442470Y-73084398D01*
X191503758Y-73232358D01*
X191535000Y-73389425D01*
X191535000Y-73549575D01*
X191503758Y-73706642D01*
X191456354Y-73821083D01*
X191442471Y-73854600D01*
X191353499Y-73987757D01*
X191240257Y-74100999D01*
X191219665Y-74114758D01*
X191107102Y-74189970D01*
X190959142Y-74251258D01*
X190802075Y-74282500D01*
X190641925Y-74282500D01*
X190484858Y-74251258D01*
X190336898Y-74189970D01*
X190224335Y-74114758D01*
X190203743Y-74100999D01*
X190090501Y-73987757D01*
X190001529Y-73854600D01*
X189987646Y-73821083D01*
X189940242Y-73706642D01*
X189909000Y-73549575D01*
X189909000Y-73389425D01*
X189940242Y-73232358D01*
X190001530Y-73084398D01*
X190046317Y-73017370D01*
X190090501Y-72951243D01*
X190203743Y-72838001D01*
X190285310Y-72783500D01*
X190336898Y-72749030D01*
X190484858Y-72687742D01*
X190641925Y-72656500D01*
X190802075Y-72656500D01*
X190959142Y-72687742D01*
X190959142Y-72687742D01*
G37*
G36*
X165559142Y-72433742D02*
X165707102Y-72495030D01*
X165749173Y-72523141D01*
X165828925Y-72576429D01*
X165840258Y-72584002D01*
X165953498Y-72697242D01*
X166042470Y-72830398D01*
X166103758Y-72978358D01*
X166135000Y-73135425D01*
X166135000Y-73295575D01*
X166103758Y-73452642D01*
X166077338Y-73516425D01*
X166042471Y-73600600D01*
X165971617Y-73706642D01*
X165953498Y-73733758D01*
X165840258Y-73846998D01*
X165707102Y-73935970D01*
X165559142Y-73997258D01*
X165402075Y-74028500D01*
X165241925Y-74028500D01*
X165084858Y-73997258D01*
X164936898Y-73935970D01*
X164803742Y-73846998D01*
X164690502Y-73733758D01*
X164672384Y-73706642D01*
X164601529Y-73600600D01*
X164566662Y-73516425D01*
X164540242Y-73452642D01*
X164509000Y-73295575D01*
X164509000Y-73135425D01*
X164540242Y-72978358D01*
X164601530Y-72830398D01*
X164690502Y-72697242D01*
X164803742Y-72584002D01*
X164815076Y-72576429D01*
X164894827Y-72523141D01*
X164936898Y-72495030D01*
X165084858Y-72433742D01*
X165241925Y-72402500D01*
X165402075Y-72402500D01*
X165559142Y-72433742D01*
X165559142Y-72433742D01*
G37*
G36*
X125546425Y-71452760D02*
X125546428Y-71452761D01*
X125546429Y-71452761D01*
X125725693Y-71507140D01*
X125725695Y-71507141D01*
X125890905Y-71595448D01*
X126035712Y-71714288D01*
X126154552Y-71859095D01*
X126154553Y-71859097D01*
X126242860Y-72024307D01*
X126262593Y-72089358D01*
X126297240Y-72203575D01*
X126315601Y-72390000D01*
X126297240Y-72576425D01*
X126297239Y-72576428D01*
X126297239Y-72576429D01*
X126250567Y-72730288D01*
X126242859Y-72755695D01*
X126154552Y-72920905D01*
X126035712Y-73065712D01*
X125890905Y-73184552D01*
X125801467Y-73232358D01*
X125725693Y-73272860D01*
X125546429Y-73327239D01*
X125546428Y-73327239D01*
X125546425Y-73327240D01*
X125406718Y-73341000D01*
X123513282Y-73341000D01*
X123373575Y-73327240D01*
X123373572Y-73327239D01*
X123373571Y-73327239D01*
X123194307Y-73272860D01*
X123118533Y-73232358D01*
X123029095Y-73184552D01*
X122884288Y-73065712D01*
X122765448Y-72920905D01*
X122677141Y-72755695D01*
X122669434Y-72730288D01*
X122622761Y-72576429D01*
X122622761Y-72576428D01*
X122622760Y-72576425D01*
X122604399Y-72390000D01*
X122622760Y-72203575D01*
X122657407Y-72089358D01*
X122677140Y-72024307D01*
X122765447Y-71859097D01*
X122765448Y-71859095D01*
X122884288Y-71714288D01*
X123029095Y-71595448D01*
X123194305Y-71507141D01*
X123194307Y-71507140D01*
X123373571Y-71452761D01*
X123373572Y-71452761D01*
X123373575Y-71452760D01*
X123513282Y-71439000D01*
X125406718Y-71439000D01*
X125546425Y-71452760D01*
X125546425Y-71452760D01*
G37*
G36*
X116886642Y-71544742D02*
X117034602Y-71606030D01*
X117100363Y-71649970D01*
X117167757Y-71695001D01*
X117280999Y-71808243D01*
X117301054Y-71838258D01*
X117369970Y-71941398D01*
X117431258Y-72089358D01*
X117462500Y-72246425D01*
X117462500Y-72406575D01*
X117431258Y-72563642D01*
X117392794Y-72656500D01*
X117369971Y-72711600D01*
X117280999Y-72844757D01*
X117167757Y-72957999D01*
X117157276Y-72965002D01*
X117034602Y-73046970D01*
X116886642Y-73108258D01*
X116729575Y-73139500D01*
X116569425Y-73139500D01*
X116412358Y-73108258D01*
X116264398Y-73046970D01*
X116141724Y-72965002D01*
X116131243Y-72957999D01*
X116018001Y-72844757D01*
X115929029Y-72711600D01*
X115906206Y-72656500D01*
X115867742Y-72563642D01*
X115836500Y-72406575D01*
X115836500Y-72246425D01*
X115867742Y-72089358D01*
X115929030Y-71941398D01*
X115997946Y-71838258D01*
X116018001Y-71808243D01*
X116131243Y-71695001D01*
X116198637Y-71649970D01*
X116264398Y-71606030D01*
X116412358Y-71544742D01*
X116569425Y-71513500D01*
X116729575Y-71513500D01*
X116886642Y-71544742D01*
X116886642Y-71544742D01*
G37*
G36*
X142286642Y-70274742D02*
X142434602Y-70336030D01*
X142501630Y-70380817D01*
X142567757Y-70425001D01*
X142680999Y-70538243D01*
X142719207Y-70595426D01*
X142769970Y-70671398D01*
X142831258Y-70819358D01*
X142862500Y-70976425D01*
X142862500Y-71136575D01*
X142831258Y-71293642D01*
X142769970Y-71441602D01*
X142759509Y-71457258D01*
X142680999Y-71574757D01*
X142567757Y-71687999D01*
X142532947Y-71711258D01*
X142434602Y-71776970D01*
X142286642Y-71838258D01*
X142129575Y-71869500D01*
X141969425Y-71869500D01*
X141812358Y-71838258D01*
X141664398Y-71776970D01*
X141566053Y-71711258D01*
X141531243Y-71687999D01*
X141418001Y-71574757D01*
X141339491Y-71457258D01*
X141329030Y-71441602D01*
X141267742Y-71293642D01*
X141236500Y-71136575D01*
X141236500Y-70976425D01*
X141267742Y-70819358D01*
X141329030Y-70671398D01*
X141379793Y-70595426D01*
X141418001Y-70538243D01*
X141531243Y-70425001D01*
X141597370Y-70380817D01*
X141664398Y-70336030D01*
X141812358Y-70274742D01*
X141969425Y-70243500D01*
X142129575Y-70243500D01*
X142286642Y-70274742D01*
X142286642Y-70274742D01*
G37*
G36*
X190959142Y-70147742D02*
X191107102Y-70209030D01*
X191158690Y-70243500D01*
X191240257Y-70298001D01*
X191353499Y-70411243D01*
X191397683Y-70477370D01*
X191442470Y-70544398D01*
X191503758Y-70692358D01*
X191535000Y-70849425D01*
X191535000Y-71009575D01*
X191503758Y-71166642D01*
X191492526Y-71193757D01*
X191442471Y-71314600D01*
X191353499Y-71447757D01*
X191240257Y-71560999D01*
X191188700Y-71595448D01*
X191107102Y-71649970D01*
X190959142Y-71711258D01*
X190802075Y-71742500D01*
X190641925Y-71742500D01*
X190484858Y-71711258D01*
X190336898Y-71649970D01*
X190255300Y-71595448D01*
X190203743Y-71560999D01*
X190090501Y-71447757D01*
X190001529Y-71314600D01*
X189951474Y-71193757D01*
X189940242Y-71166642D01*
X189909000Y-71009575D01*
X189909000Y-70849425D01*
X189940242Y-70692358D01*
X190001530Y-70544398D01*
X190046317Y-70477370D01*
X190090501Y-70411243D01*
X190203743Y-70298001D01*
X190285310Y-70243500D01*
X190336898Y-70209030D01*
X190484858Y-70147742D01*
X190641925Y-70116500D01*
X190802075Y-70116500D01*
X190959142Y-70147742D01*
X190959142Y-70147742D01*
G37*
G36*
X165559142Y-69893742D02*
X165707102Y-69955030D01*
X165840258Y-70044002D01*
X165953498Y-70157242D01*
X166042470Y-70290398D01*
X166103758Y-70438358D01*
X166135000Y-70595425D01*
X166135000Y-70755575D01*
X166103758Y-70912642D01*
X166077338Y-70976425D01*
X166042471Y-71060600D01*
X165971617Y-71166642D01*
X165953498Y-71193758D01*
X165840258Y-71306998D01*
X165707102Y-71395970D01*
X165559142Y-71457258D01*
X165402075Y-71488500D01*
X165241925Y-71488500D01*
X165084858Y-71457258D01*
X164936898Y-71395970D01*
X164803742Y-71306998D01*
X164690502Y-71193758D01*
X164672384Y-71166642D01*
X164601529Y-71060600D01*
X164566662Y-70976425D01*
X164540242Y-70912642D01*
X164509000Y-70755575D01*
X164509000Y-70595425D01*
X164540242Y-70438358D01*
X164601530Y-70290398D01*
X164690502Y-70157242D01*
X164803742Y-70044002D01*
X164936898Y-69955030D01*
X165084858Y-69893742D01*
X165241925Y-69862500D01*
X165402075Y-69862500D01*
X165559142Y-69893742D01*
X165559142Y-69893742D01*
G37*
G36*
X116886642Y-69004742D02*
X117001083Y-69052146D01*
X117017585Y-69058981D01*
X117034602Y-69066030D01*
X117100363Y-69109970D01*
X117167757Y-69155001D01*
X117280999Y-69268243D01*
X117369971Y-69401400D01*
X117373357Y-69409575D01*
X117431258Y-69549358D01*
X117462500Y-69706425D01*
X117462500Y-69866575D01*
X117431258Y-70023642D01*
X117422824Y-70044002D01*
X117369971Y-70171600D01*
X117280999Y-70304757D01*
X117167757Y-70417999D01*
X117157276Y-70425002D01*
X117034602Y-70506970D01*
X116886642Y-70568258D01*
X116729575Y-70599500D01*
X116569425Y-70599500D01*
X116412358Y-70568258D01*
X116264398Y-70506970D01*
X116141724Y-70425002D01*
X116131243Y-70417999D01*
X116018001Y-70304757D01*
X115929029Y-70171600D01*
X115876176Y-70044002D01*
X115867742Y-70023642D01*
X115836500Y-69866575D01*
X115836500Y-69706425D01*
X115867742Y-69549358D01*
X115925643Y-69409575D01*
X115929029Y-69401400D01*
X116018001Y-69268243D01*
X116131243Y-69155001D01*
X116198637Y-69109970D01*
X116264398Y-69066030D01*
X116281416Y-69058981D01*
X116297917Y-69052146D01*
X116412358Y-69004742D01*
X116569425Y-68973500D01*
X116729575Y-68973500D01*
X116886642Y-69004742D01*
X116886642Y-69004742D01*
G37*
G36*
X178854425Y-68658760D02*
X178854428Y-68658761D01*
X178854429Y-68658761D01*
X179033693Y-68713140D01*
X179033695Y-68713141D01*
X179198905Y-68801448D01*
X179343712Y-68920288D01*
X179462552Y-69065095D01*
X179519297Y-69171257D01*
X179550860Y-69230307D01*
X179602760Y-69401398D01*
X179605240Y-69409575D01*
X179623601Y-69596000D01*
X179605240Y-69782425D01*
X179605239Y-69782428D01*
X179605239Y-69782429D01*
X179571473Y-69893742D01*
X179550859Y-69961695D01*
X179462552Y-70126905D01*
X179343712Y-70271712D01*
X179198905Y-70390552D01*
X179109467Y-70438358D01*
X179033693Y-70478860D01*
X178854429Y-70533239D01*
X178854428Y-70533239D01*
X178854425Y-70533240D01*
X178714718Y-70547000D01*
X176821282Y-70547000D01*
X176681575Y-70533240D01*
X176681572Y-70533239D01*
X176681571Y-70533239D01*
X176502307Y-70478860D01*
X176426533Y-70438358D01*
X176337095Y-70390552D01*
X176192288Y-70271712D01*
X176073448Y-70126905D01*
X175985141Y-69961695D01*
X175964528Y-69893742D01*
X175930761Y-69782429D01*
X175930761Y-69782428D01*
X175930760Y-69782425D01*
X175912399Y-69596000D01*
X175930760Y-69409575D01*
X175933240Y-69401398D01*
X175985140Y-69230307D01*
X176016703Y-69171257D01*
X176073448Y-69065095D01*
X176192288Y-68920288D01*
X176337095Y-68801448D01*
X176502305Y-68713141D01*
X176502307Y-68713140D01*
X176681571Y-68658761D01*
X176681572Y-68658761D01*
X176681575Y-68658760D01*
X176821282Y-68645000D01*
X178714718Y-68645000D01*
X178854425Y-68658760D01*
X178854425Y-68658760D01*
G37*
G36*
X126170918Y-67632934D02*
X126203424Y-67642795D01*
X126233383Y-67658808D01*
X126259641Y-67680359D01*
X126281192Y-67706617D01*
X126297205Y-67736576D01*
X126307066Y-67769082D01*
X126311000Y-67809029D01*
X126311000Y-69350971D01*
X126307066Y-69390918D01*
X126297205Y-69423424D01*
X126281192Y-69453383D01*
X126259641Y-69479641D01*
X126233383Y-69501192D01*
X126203424Y-69517205D01*
X126170918Y-69527066D01*
X126130971Y-69531000D01*
X122789029Y-69531000D01*
X122749082Y-69527066D01*
X122716576Y-69517205D01*
X122686617Y-69501192D01*
X122660359Y-69479641D01*
X122638808Y-69453383D01*
X122622795Y-69423424D01*
X122612934Y-69390918D01*
X122609000Y-69350971D01*
X122609000Y-67809029D01*
X122612934Y-67769082D01*
X122622795Y-67736576D01*
X122638808Y-67706617D01*
X122660359Y-67680359D01*
X122686617Y-67658808D01*
X122716576Y-67642795D01*
X122749082Y-67632934D01*
X122789029Y-67629000D01*
X126130971Y-67629000D01*
X126170918Y-67632934D01*
X126170918Y-67632934D01*
G37*
G36*
X132137728Y-67698203D02*
X132292600Y-67762353D01*
X132431981Y-67855485D01*
X132550515Y-67974019D01*
X132643647Y-68113400D01*
X132707797Y-68268272D01*
X132740500Y-68432684D01*
X132740500Y-68600316D01*
X132707797Y-68764728D01*
X132643647Y-68919600D01*
X132550515Y-69058981D01*
X132431981Y-69177515D01*
X132292600Y-69270647D01*
X132137728Y-69334797D01*
X131973316Y-69367500D01*
X131805684Y-69367500D01*
X131641272Y-69334797D01*
X131486400Y-69270647D01*
X131347019Y-69177515D01*
X131228485Y-69058981D01*
X131135353Y-68919600D01*
X131071203Y-68764728D01*
X131038500Y-68600316D01*
X131038500Y-68432684D01*
X131071203Y-68268272D01*
X131135353Y-68113400D01*
X131228485Y-67974019D01*
X131347019Y-67855485D01*
X131486400Y-67762353D01*
X131641272Y-67698203D01*
X131805684Y-67665500D01*
X131973316Y-67665500D01*
X132137728Y-67698203D01*
X132137728Y-67698203D01*
G37*
G36*
X142286642Y-67734742D02*
X142434602Y-67796030D01*
X142454056Y-67809029D01*
X142567757Y-67885001D01*
X142680999Y-67998243D01*
X142719207Y-68055426D01*
X142769970Y-68131398D01*
X142831258Y-68279358D01*
X142862500Y-68436425D01*
X142862500Y-68596575D01*
X142831258Y-68753642D01*
X142769970Y-68901602D01*
X142759509Y-68917258D01*
X142680999Y-69034757D01*
X142567757Y-69147999D01*
X142532947Y-69171258D01*
X142434602Y-69236970D01*
X142286642Y-69298258D01*
X142129575Y-69329500D01*
X141969425Y-69329500D01*
X141812358Y-69298258D01*
X141664398Y-69236970D01*
X141566053Y-69171258D01*
X141531243Y-69147999D01*
X141418001Y-69034757D01*
X141339491Y-68917258D01*
X141329030Y-68901602D01*
X141267742Y-68753642D01*
X141236500Y-68596575D01*
X141236500Y-68436425D01*
X141267742Y-68279358D01*
X141329030Y-68131398D01*
X141379793Y-68055426D01*
X141418001Y-67998243D01*
X141531243Y-67885001D01*
X141644944Y-67809029D01*
X141664398Y-67796030D01*
X141812358Y-67734742D01*
X141969425Y-67703500D01*
X142129575Y-67703500D01*
X142286642Y-67734742D01*
X142286642Y-67734742D01*
G37*
G36*
X190959142Y-67607742D02*
X191107102Y-67669030D01*
X191124057Y-67680359D01*
X191240257Y-67758001D01*
X191353499Y-67871243D01*
X191397683Y-67937370D01*
X191442470Y-68004398D01*
X191503758Y-68152358D01*
X191535000Y-68309425D01*
X191535000Y-68469575D01*
X191503758Y-68626642D01*
X191467929Y-68713140D01*
X191442471Y-68774600D01*
X191353499Y-68907757D01*
X191240257Y-69020999D01*
X191219665Y-69034758D01*
X191107102Y-69109970D01*
X190959142Y-69171258D01*
X190802075Y-69202500D01*
X190641925Y-69202500D01*
X190484858Y-69171258D01*
X190336898Y-69109970D01*
X190224335Y-69034758D01*
X190203743Y-69020999D01*
X190090501Y-68907757D01*
X190001529Y-68774600D01*
X189976071Y-68713140D01*
X189940242Y-68626642D01*
X189909000Y-68469575D01*
X189909000Y-68309425D01*
X189940242Y-68152358D01*
X190001530Y-68004398D01*
X190046317Y-67937370D01*
X190090501Y-67871243D01*
X190203743Y-67758001D01*
X190319943Y-67680359D01*
X190336898Y-67669030D01*
X190484858Y-67607742D01*
X190641925Y-67576500D01*
X190802075Y-67576500D01*
X190959142Y-67607742D01*
X190959142Y-67607742D01*
G37*
G36*
X165559142Y-67353742D02*
X165707102Y-67415030D01*
X165774130Y-67459817D01*
X165840257Y-67504001D01*
X165953499Y-67617243D01*
X165963092Y-67631600D01*
X166039801Y-67746403D01*
X166042471Y-67750400D01*
X166048418Y-67764757D01*
X166103758Y-67898358D01*
X166135000Y-68055425D01*
X166135000Y-68215575D01*
X166103758Y-68372642D01*
X166078887Y-68432684D01*
X166042471Y-68520600D01*
X165953499Y-68653757D01*
X165840257Y-68766999D01*
X165788700Y-68801448D01*
X165707102Y-68855970D01*
X165559142Y-68917258D01*
X165402075Y-68948500D01*
X165241925Y-68948500D01*
X165084858Y-68917258D01*
X164936898Y-68855970D01*
X164855300Y-68801448D01*
X164803743Y-68766999D01*
X164690501Y-68653757D01*
X164601529Y-68520600D01*
X164565113Y-68432684D01*
X164540242Y-68372642D01*
X164509000Y-68215575D01*
X164509000Y-68055425D01*
X164540242Y-67898358D01*
X164595582Y-67764757D01*
X164601529Y-67750400D01*
X164604200Y-67746403D01*
X164680908Y-67631600D01*
X164690501Y-67617243D01*
X164803743Y-67504001D01*
X164869870Y-67459817D01*
X164936898Y-67415030D01*
X165084858Y-67353742D01*
X165241925Y-67322500D01*
X165402075Y-67322500D01*
X165559142Y-67353742D01*
X165559142Y-67353742D01*
G37*
G36*
X116886642Y-66464742D02*
X117001083Y-66512146D01*
X117030595Y-66524370D01*
X117034602Y-66526030D01*
X117080908Y-66556971D01*
X117167757Y-66615001D01*
X117280999Y-66728243D01*
X117301054Y-66758258D01*
X117369970Y-66861398D01*
X117431258Y-67009358D01*
X117462500Y-67166425D01*
X117462500Y-67326575D01*
X117431258Y-67483642D01*
X117369970Y-67631602D01*
X117347320Y-67665500D01*
X117280999Y-67764757D01*
X117167757Y-67877999D01*
X117137289Y-67898357D01*
X117034602Y-67966970D01*
X117034601Y-67966971D01*
X117034600Y-67966971D01*
X117001083Y-67980854D01*
X116886642Y-68028258D01*
X116729575Y-68059500D01*
X116569425Y-68059500D01*
X116412358Y-68028258D01*
X116297917Y-67980854D01*
X116264400Y-67966971D01*
X116264399Y-67966971D01*
X116264398Y-67966970D01*
X116161711Y-67898357D01*
X116131243Y-67877999D01*
X116018001Y-67764757D01*
X115951680Y-67665500D01*
X115929030Y-67631602D01*
X115867742Y-67483642D01*
X115836500Y-67326575D01*
X115836500Y-67166425D01*
X115867742Y-67009358D01*
X115929030Y-66861398D01*
X115997946Y-66758258D01*
X116018001Y-66728243D01*
X116131243Y-66615001D01*
X116218092Y-66556971D01*
X116264398Y-66526030D01*
X116268406Y-66524370D01*
X116297917Y-66512146D01*
X116412358Y-66464742D01*
X116569425Y-66433500D01*
X116729575Y-66433500D01*
X116886642Y-66464742D01*
X116886642Y-66464742D01*
G37*
G36*
X171539228Y-65539203D02*
X171694100Y-65603353D01*
X171833481Y-65696485D01*
X171952015Y-65815019D01*
X172045147Y-65954400D01*
X172109297Y-66109272D01*
X172142000Y-66273684D01*
X172142000Y-66441316D01*
X172109297Y-66605728D01*
X172045147Y-66760600D01*
X171952015Y-66899981D01*
X171833481Y-67018515D01*
X171694100Y-67111647D01*
X171539228Y-67175797D01*
X171374816Y-67208500D01*
X171207184Y-67208500D01*
X171042772Y-67175797D01*
X170887900Y-67111647D01*
X170748519Y-67018515D01*
X170629985Y-66899981D01*
X170536853Y-66760600D01*
X170472703Y-66605728D01*
X170440000Y-66441316D01*
X170440000Y-66273684D01*
X170472703Y-66109272D01*
X170536853Y-65954400D01*
X170629985Y-65815019D01*
X170748519Y-65696485D01*
X170887900Y-65603353D01*
X171042772Y-65539203D01*
X171207184Y-65506500D01*
X171374816Y-65506500D01*
X171539228Y-65539203D01*
X171539228Y-65539203D01*
G37*
G36*
X142286642Y-65194742D02*
X142434602Y-65256030D01*
X142501630Y-65300817D01*
X142567757Y-65345001D01*
X142680999Y-65458243D01*
X142769971Y-65591400D01*
X142778652Y-65612357D01*
X142831258Y-65739358D01*
X142862500Y-65896425D01*
X142862500Y-66056575D01*
X142831258Y-66213642D01*
X142769970Y-66361602D01*
X142759509Y-66377258D01*
X142680999Y-66494757D01*
X142567757Y-66607999D01*
X142532947Y-66631258D01*
X142434602Y-66696970D01*
X142286642Y-66758258D01*
X142129575Y-66789500D01*
X141969425Y-66789500D01*
X141812358Y-66758258D01*
X141664398Y-66696970D01*
X141566053Y-66631258D01*
X141531243Y-66607999D01*
X141418001Y-66494757D01*
X141339491Y-66377258D01*
X141329030Y-66361602D01*
X141267742Y-66213642D01*
X141236500Y-66056575D01*
X141236500Y-65896425D01*
X141267742Y-65739358D01*
X141320348Y-65612357D01*
X141329029Y-65591400D01*
X141418001Y-65458243D01*
X141531243Y-65345001D01*
X141597370Y-65300817D01*
X141664398Y-65256030D01*
X141812358Y-65194742D01*
X141969425Y-65163500D01*
X142129575Y-65163500D01*
X142286642Y-65194742D01*
X142286642Y-65194742D01*
G37*
G36*
X179478918Y-64838934D02*
X179511424Y-64848795D01*
X179541383Y-64864808D01*
X179567641Y-64886359D01*
X179589192Y-64912617D01*
X179605205Y-64942576D01*
X179615066Y-64975082D01*
X179619000Y-65015029D01*
X179619000Y-66556971D01*
X179615066Y-66596918D01*
X179605205Y-66629424D01*
X179589192Y-66659383D01*
X179567641Y-66685641D01*
X179541383Y-66707192D01*
X179511424Y-66723205D01*
X179478918Y-66733066D01*
X179438971Y-66737000D01*
X176097029Y-66737000D01*
X176057082Y-66733066D01*
X176024576Y-66723205D01*
X175994617Y-66707192D01*
X175968359Y-66685641D01*
X175946808Y-66659383D01*
X175930795Y-66629424D01*
X175920934Y-66596918D01*
X175917000Y-66556971D01*
X175917000Y-65015029D01*
X175920934Y-64975082D01*
X175930795Y-64942576D01*
X175946808Y-64912617D01*
X175968359Y-64886359D01*
X175994617Y-64864808D01*
X176024576Y-64848795D01*
X176057082Y-64838934D01*
X176097029Y-64835000D01*
X179438971Y-64835000D01*
X179478918Y-64838934D01*
X179478918Y-64838934D01*
G37*
G36*
X190959142Y-65067742D02*
X191107102Y-65129030D01*
X191158690Y-65163500D01*
X191240257Y-65218001D01*
X191353499Y-65331243D01*
X191397683Y-65397370D01*
X191442470Y-65464398D01*
X191503758Y-65612358D01*
X191535000Y-65769425D01*
X191535000Y-65929575D01*
X191503758Y-66086642D01*
X191494384Y-66109272D01*
X191442471Y-66234600D01*
X191353499Y-66367757D01*
X191240257Y-66480999D01*
X191219665Y-66494758D01*
X191107102Y-66569970D01*
X190959142Y-66631258D01*
X190802075Y-66662500D01*
X190641925Y-66662500D01*
X190484858Y-66631258D01*
X190336898Y-66569970D01*
X190224335Y-66494758D01*
X190203743Y-66480999D01*
X190090501Y-66367757D01*
X190001529Y-66234600D01*
X189949616Y-66109272D01*
X189940242Y-66086642D01*
X189909000Y-65929575D01*
X189909000Y-65769425D01*
X189940242Y-65612358D01*
X190001530Y-65464398D01*
X190046317Y-65397370D01*
X190090501Y-65331243D01*
X190203743Y-65218001D01*
X190285310Y-65163500D01*
X190336898Y-65129030D01*
X190484858Y-65067742D01*
X190641925Y-65036500D01*
X190802075Y-65036500D01*
X190959142Y-65067742D01*
X190959142Y-65067742D01*
G37*
G36*
X165559142Y-64813742D02*
X165707102Y-64875030D01*
X165840258Y-64964002D01*
X165953498Y-65077242D01*
X166042470Y-65210398D01*
X166103758Y-65358358D01*
X166135000Y-65515425D01*
X166135000Y-65675575D01*
X166103758Y-65832642D01*
X166077338Y-65896425D01*
X166042471Y-65980600D01*
X165956496Y-66109272D01*
X165953498Y-66113758D01*
X165840258Y-66226998D01*
X165707102Y-66315970D01*
X165559142Y-66377258D01*
X165402075Y-66408500D01*
X165241925Y-66408500D01*
X165084858Y-66377258D01*
X164936898Y-66315970D01*
X164803742Y-66226998D01*
X164690502Y-66113758D01*
X164687505Y-66109272D01*
X164601529Y-65980600D01*
X164566662Y-65896425D01*
X164540242Y-65832642D01*
X164509000Y-65675575D01*
X164509000Y-65515425D01*
X164540242Y-65358358D01*
X164601530Y-65210398D01*
X164690502Y-65077242D01*
X164803742Y-64964002D01*
X164936898Y-64875030D01*
X165084858Y-64813742D01*
X165241925Y-64782500D01*
X165402075Y-64782500D01*
X165559142Y-64813742D01*
X165559142Y-64813742D01*
G37*
G36*
X116886642Y-63924742D02*
X117034602Y-63986030D01*
X117100363Y-64029970D01*
X117167757Y-64075001D01*
X117280999Y-64188243D01*
X117301054Y-64218258D01*
X117369970Y-64321398D01*
X117431258Y-64469358D01*
X117462500Y-64626425D01*
X117462500Y-64786575D01*
X117431258Y-64943642D01*
X117408711Y-64998074D01*
X117369971Y-65091600D01*
X117280999Y-65224757D01*
X117167757Y-65337999D01*
X117157276Y-65345002D01*
X117034602Y-65426970D01*
X116886642Y-65488258D01*
X116729575Y-65519500D01*
X116569425Y-65519500D01*
X116412358Y-65488258D01*
X116264398Y-65426970D01*
X116141724Y-65345002D01*
X116131243Y-65337999D01*
X116018001Y-65224757D01*
X115929029Y-65091600D01*
X115890289Y-64998074D01*
X115867742Y-64943642D01*
X115836500Y-64786575D01*
X115836500Y-64626425D01*
X115867742Y-64469358D01*
X115929030Y-64321398D01*
X115997946Y-64218258D01*
X116018001Y-64188243D01*
X116131243Y-64075001D01*
X116198637Y-64029970D01*
X116264398Y-63986030D01*
X116412358Y-63924742D01*
X116569425Y-63893500D01*
X116729575Y-63893500D01*
X116886642Y-63924742D01*
X116886642Y-63924742D01*
G37*
G36*
X142286642Y-62654742D02*
X142434602Y-62716030D01*
X142501630Y-62760817D01*
X142567757Y-62805001D01*
X142680999Y-62918243D01*
X142719207Y-62975426D01*
X142769970Y-63051398D01*
X142831258Y-63199358D01*
X142862500Y-63356425D01*
X142862500Y-63516575D01*
X142831258Y-63673642D01*
X142769970Y-63821602D01*
X142759509Y-63837258D01*
X142680999Y-63954757D01*
X142567757Y-64067999D01*
X142532947Y-64091258D01*
X142434602Y-64156970D01*
X142286642Y-64218258D01*
X142129575Y-64249500D01*
X141969425Y-64249500D01*
X141812358Y-64218258D01*
X141664398Y-64156970D01*
X141566053Y-64091258D01*
X141531243Y-64067999D01*
X141418001Y-63954757D01*
X141339491Y-63837258D01*
X141329030Y-63821602D01*
X141267742Y-63673642D01*
X141236500Y-63516575D01*
X141236500Y-63356425D01*
X141267742Y-63199358D01*
X141329030Y-63051398D01*
X141379793Y-62975426D01*
X141418001Y-62918243D01*
X141531243Y-62805001D01*
X141597370Y-62760817D01*
X141664398Y-62716030D01*
X141812358Y-62654742D01*
X141969425Y-62623500D01*
X142129575Y-62623500D01*
X142286642Y-62654742D01*
X142286642Y-62654742D01*
G37*
G36*
X190959142Y-62527742D02*
X191107102Y-62589030D01*
X191158690Y-62623500D01*
X191240257Y-62678001D01*
X191353499Y-62791243D01*
X191397683Y-62857370D01*
X191442470Y-62924398D01*
X191503758Y-63072358D01*
X191535000Y-63229425D01*
X191535000Y-63389575D01*
X191503758Y-63546642D01*
X191492526Y-63573757D01*
X191442471Y-63694600D01*
X191353499Y-63827757D01*
X191240257Y-63940999D01*
X191219665Y-63954758D01*
X191107102Y-64029970D01*
X190959142Y-64091258D01*
X190802075Y-64122500D01*
X190641925Y-64122500D01*
X190484858Y-64091258D01*
X190336898Y-64029970D01*
X190224335Y-63954758D01*
X190203743Y-63940999D01*
X190090501Y-63827757D01*
X190001529Y-63694600D01*
X189951474Y-63573757D01*
X189940242Y-63546642D01*
X189909000Y-63389575D01*
X189909000Y-63229425D01*
X189940242Y-63072358D01*
X190001530Y-62924398D01*
X190046317Y-62857370D01*
X190090501Y-62791243D01*
X190203743Y-62678001D01*
X190285310Y-62623500D01*
X190336898Y-62589030D01*
X190484858Y-62527742D01*
X190641925Y-62496500D01*
X190802075Y-62496500D01*
X190959142Y-62527742D01*
X190959142Y-62527742D01*
G37*
G36*
X165559142Y-62273742D02*
X165707102Y-62335030D01*
X165840258Y-62424002D01*
X165953498Y-62537242D01*
X166042470Y-62670398D01*
X166103758Y-62818358D01*
X166135000Y-62975425D01*
X166135000Y-63135575D01*
X166103758Y-63292642D01*
X166077338Y-63356425D01*
X166042471Y-63440600D01*
X165971617Y-63546642D01*
X165953498Y-63573758D01*
X165840258Y-63686998D01*
X165707102Y-63775970D01*
X165559142Y-63837258D01*
X165402075Y-63868500D01*
X165241925Y-63868500D01*
X165084858Y-63837258D01*
X164936898Y-63775970D01*
X164803742Y-63686998D01*
X164690502Y-63573758D01*
X164672384Y-63546642D01*
X164601529Y-63440600D01*
X164566662Y-63356425D01*
X164540242Y-63292642D01*
X164509000Y-63135575D01*
X164509000Y-62975425D01*
X164540242Y-62818358D01*
X164601530Y-62670398D01*
X164690502Y-62537242D01*
X164803742Y-62424002D01*
X164936898Y-62335030D01*
X165084858Y-62273742D01*
X165241925Y-62242500D01*
X165402075Y-62242500D01*
X165559142Y-62273742D01*
X165559142Y-62273742D01*
G37*
G36*
X116886642Y-61384742D02*
X117034602Y-61446030D01*
X117100363Y-61489970D01*
X117167757Y-61535001D01*
X117280999Y-61648243D01*
X117301054Y-61678258D01*
X117369970Y-61781398D01*
X117431258Y-61929358D01*
X117462500Y-62086425D01*
X117462500Y-62246575D01*
X117431258Y-62403642D01*
X117422824Y-62424002D01*
X117369971Y-62551600D01*
X117280999Y-62684757D01*
X117167757Y-62797999D01*
X117157276Y-62805002D01*
X117034602Y-62886970D01*
X116886642Y-62948258D01*
X116729575Y-62979500D01*
X116569425Y-62979500D01*
X116412358Y-62948258D01*
X116264398Y-62886970D01*
X116141724Y-62805002D01*
X116131243Y-62797999D01*
X116018001Y-62684757D01*
X115929029Y-62551600D01*
X115876176Y-62424002D01*
X115867742Y-62403642D01*
X115836500Y-62246575D01*
X115836500Y-62086425D01*
X115867742Y-61929358D01*
X115929030Y-61781398D01*
X115997946Y-61678258D01*
X116018001Y-61648243D01*
X116131243Y-61535001D01*
X116198637Y-61489970D01*
X116264398Y-61446030D01*
X116412358Y-61384742D01*
X116569425Y-61353500D01*
X116729575Y-61353500D01*
X116886642Y-61384742D01*
X116886642Y-61384742D01*
G37*
G36*
X142286642Y-60114742D02*
X142434602Y-60176030D01*
X142501630Y-60220817D01*
X142567757Y-60265001D01*
X142680999Y-60378243D01*
X142719207Y-60435426D01*
X142769970Y-60511398D01*
X142831258Y-60659358D01*
X142862500Y-60816425D01*
X142862500Y-60976575D01*
X142831258Y-61133642D01*
X142769970Y-61281602D01*
X142759509Y-61297258D01*
X142680999Y-61414757D01*
X142567757Y-61527999D01*
X142532947Y-61551258D01*
X142434602Y-61616970D01*
X142286642Y-61678258D01*
X142129575Y-61709500D01*
X141969425Y-61709500D01*
X141812358Y-61678258D01*
X141664398Y-61616970D01*
X141566053Y-61551258D01*
X141531243Y-61527999D01*
X141418001Y-61414757D01*
X141339491Y-61297258D01*
X141329030Y-61281602D01*
X141267742Y-61133642D01*
X141236500Y-60976575D01*
X141236500Y-60816425D01*
X141267742Y-60659358D01*
X141329030Y-60511398D01*
X141379793Y-60435426D01*
X141418001Y-60378243D01*
X141531243Y-60265001D01*
X141597370Y-60220817D01*
X141664398Y-60176030D01*
X141812358Y-60114742D01*
X141969425Y-60083500D01*
X142129575Y-60083500D01*
X142286642Y-60114742D01*
X142286642Y-60114742D01*
G37*
G36*
X190959142Y-59987742D02*
X191107102Y-60049030D01*
X191158690Y-60083500D01*
X191240257Y-60138001D01*
X191353499Y-60251243D01*
X191397683Y-60317370D01*
X191442470Y-60384398D01*
X191503758Y-60532358D01*
X191535000Y-60689425D01*
X191535000Y-60849575D01*
X191503758Y-61006642D01*
X191492526Y-61033757D01*
X191442471Y-61154600D01*
X191353499Y-61287757D01*
X191240257Y-61400999D01*
X191219665Y-61414758D01*
X191107102Y-61489970D01*
X190959142Y-61551258D01*
X190802075Y-61582500D01*
X190641925Y-61582500D01*
X190484858Y-61551258D01*
X190336898Y-61489970D01*
X190224335Y-61414758D01*
X190203743Y-61400999D01*
X190090501Y-61287757D01*
X190001529Y-61154600D01*
X189951474Y-61033757D01*
X189940242Y-61006642D01*
X189909000Y-60849575D01*
X189909000Y-60689425D01*
X189940242Y-60532358D01*
X190001530Y-60384398D01*
X190046317Y-60317370D01*
X190090501Y-60251243D01*
X190203743Y-60138001D01*
X190285310Y-60083500D01*
X190336898Y-60049030D01*
X190484858Y-59987742D01*
X190641925Y-59956500D01*
X190802075Y-59956500D01*
X190959142Y-59987742D01*
X190959142Y-59987742D01*
G37*
G36*
X165559142Y-59733742D02*
X165707102Y-59795030D01*
X165840258Y-59884002D01*
X165953498Y-59997242D01*
X166042470Y-60130398D01*
X166103758Y-60278358D01*
X166135000Y-60435425D01*
X166135000Y-60595575D01*
X166103758Y-60752642D01*
X166077338Y-60816425D01*
X166042471Y-60900600D01*
X165971617Y-61006642D01*
X165953498Y-61033758D01*
X165840258Y-61146998D01*
X165707102Y-61235970D01*
X165559142Y-61297258D01*
X165402075Y-61328500D01*
X165241925Y-61328500D01*
X165084858Y-61297258D01*
X164936898Y-61235970D01*
X164803742Y-61146998D01*
X164690502Y-61033758D01*
X164672384Y-61006642D01*
X164601529Y-60900600D01*
X164566662Y-60816425D01*
X164540242Y-60752642D01*
X164509000Y-60595575D01*
X164509000Y-60435425D01*
X164540242Y-60278358D01*
X164601530Y-60130398D01*
X164690502Y-59997242D01*
X164803742Y-59884002D01*
X164936898Y-59795030D01*
X165084858Y-59733742D01*
X165241925Y-59702500D01*
X165402075Y-59702500D01*
X165559142Y-59733742D01*
X165559142Y-59733742D01*
G37*
G36*
X116886642Y-58844742D02*
X117034602Y-58906030D01*
X117100363Y-58949970D01*
X117167757Y-58995001D01*
X117280999Y-59108243D01*
X117301054Y-59138258D01*
X117369970Y-59241398D01*
X117431258Y-59389358D01*
X117462500Y-59546425D01*
X117462500Y-59706575D01*
X117431258Y-59863642D01*
X117422824Y-59884002D01*
X117369971Y-60011600D01*
X117280999Y-60144757D01*
X117167757Y-60257999D01*
X117157276Y-60265002D01*
X117034602Y-60346970D01*
X116886642Y-60408258D01*
X116729575Y-60439500D01*
X116569425Y-60439500D01*
X116412358Y-60408258D01*
X116264398Y-60346970D01*
X116141724Y-60265002D01*
X116131243Y-60257999D01*
X116018001Y-60144757D01*
X115929029Y-60011600D01*
X115876176Y-59884002D01*
X115867742Y-59863642D01*
X115836500Y-59706575D01*
X115836500Y-59546425D01*
X115867742Y-59389358D01*
X115929030Y-59241398D01*
X115997946Y-59138258D01*
X116018001Y-59108243D01*
X116131243Y-58995001D01*
X116198637Y-58949970D01*
X116264398Y-58906030D01*
X116412358Y-58844742D01*
X116569425Y-58813500D01*
X116729575Y-58813500D01*
X116886642Y-58844742D01*
X116886642Y-58844742D01*
G37*
G36*
X142286642Y-57574742D02*
X142434602Y-57636030D01*
X142501630Y-57680817D01*
X142567757Y-57725001D01*
X142680999Y-57838243D01*
X142719207Y-57895426D01*
X142769970Y-57971398D01*
X142831258Y-58119358D01*
X142862500Y-58276425D01*
X142862500Y-58436575D01*
X142831258Y-58593642D01*
X142769970Y-58741602D01*
X142759509Y-58757258D01*
X142680999Y-58874757D01*
X142567757Y-58987999D01*
X142532947Y-59011258D01*
X142434602Y-59076970D01*
X142286642Y-59138258D01*
X142129575Y-59169500D01*
X141969425Y-59169500D01*
X141812358Y-59138258D01*
X141664398Y-59076970D01*
X141566053Y-59011258D01*
X141531243Y-58987999D01*
X141418001Y-58874757D01*
X141339491Y-58757258D01*
X141329030Y-58741602D01*
X141267742Y-58593642D01*
X141236500Y-58436575D01*
X141236500Y-58276425D01*
X141267742Y-58119358D01*
X141329030Y-57971398D01*
X141379793Y-57895426D01*
X141418001Y-57838243D01*
X141531243Y-57725001D01*
X141597370Y-57680817D01*
X141664398Y-57636030D01*
X141812358Y-57574742D01*
X141969425Y-57543500D01*
X142129575Y-57543500D01*
X142286642Y-57574742D01*
X142286642Y-57574742D01*
G37*
G36*
X190959142Y-57447742D02*
X191107102Y-57509030D01*
X191158690Y-57543500D01*
X191240257Y-57598001D01*
X191353499Y-57711243D01*
X191397683Y-57777370D01*
X191442470Y-57844398D01*
X191503758Y-57992358D01*
X191535000Y-58149425D01*
X191535000Y-58309575D01*
X191503758Y-58466642D01*
X191492526Y-58493757D01*
X191442471Y-58614600D01*
X191353499Y-58747757D01*
X191240257Y-58860999D01*
X191219665Y-58874758D01*
X191107102Y-58949970D01*
X190959142Y-59011258D01*
X190802075Y-59042500D01*
X190641925Y-59042500D01*
X190484858Y-59011258D01*
X190336898Y-58949970D01*
X190224335Y-58874758D01*
X190203743Y-58860999D01*
X190090501Y-58747757D01*
X190001529Y-58614600D01*
X189951474Y-58493757D01*
X189940242Y-58466642D01*
X189909000Y-58309575D01*
X189909000Y-58149425D01*
X189940242Y-57992358D01*
X190001530Y-57844398D01*
X190046317Y-57777370D01*
X190090501Y-57711243D01*
X190203743Y-57598001D01*
X190285310Y-57543500D01*
X190336898Y-57509030D01*
X190484858Y-57447742D01*
X190641925Y-57416500D01*
X190802075Y-57416500D01*
X190959142Y-57447742D01*
X190959142Y-57447742D01*
G37*
G36*
X165559142Y-57193742D02*
X165707102Y-57255030D01*
X165840258Y-57344002D01*
X165953498Y-57457242D01*
X166042470Y-57590398D01*
X166103758Y-57738358D01*
X166135000Y-57895425D01*
X166135000Y-58055575D01*
X166103758Y-58212642D01*
X166077338Y-58276425D01*
X166042471Y-58360600D01*
X165971617Y-58466642D01*
X165953498Y-58493758D01*
X165840258Y-58606998D01*
X165707102Y-58695970D01*
X165559142Y-58757258D01*
X165402075Y-58788500D01*
X165241925Y-58788500D01*
X165084858Y-58757258D01*
X164936898Y-58695970D01*
X164803742Y-58606998D01*
X164690502Y-58493758D01*
X164672384Y-58466642D01*
X164601529Y-58360600D01*
X164566662Y-58276425D01*
X164540242Y-58212642D01*
X164509000Y-58055575D01*
X164509000Y-57895425D01*
X164540242Y-57738358D01*
X164601530Y-57590398D01*
X164690502Y-57457242D01*
X164803742Y-57344002D01*
X164936898Y-57255030D01*
X165084858Y-57193742D01*
X165241925Y-57162500D01*
X165402075Y-57162500D01*
X165559142Y-57193742D01*
X165559142Y-57193742D01*
G37*
G36*
X116886642Y-56304742D02*
X117034602Y-56366030D01*
X117100363Y-56409970D01*
X117167757Y-56455001D01*
X117280999Y-56568243D01*
X117301054Y-56598258D01*
X117369970Y-56701398D01*
X117431258Y-56849358D01*
X117462500Y-57006425D01*
X117462500Y-57166575D01*
X117431258Y-57323642D01*
X117422824Y-57344002D01*
X117369971Y-57471600D01*
X117280999Y-57604757D01*
X117167757Y-57717999D01*
X117157276Y-57725002D01*
X117034602Y-57806970D01*
X116886642Y-57868258D01*
X116729575Y-57899500D01*
X116569425Y-57899500D01*
X116412358Y-57868258D01*
X116264398Y-57806970D01*
X116141724Y-57725002D01*
X116131243Y-57717999D01*
X116018001Y-57604757D01*
X115929029Y-57471600D01*
X115876176Y-57344002D01*
X115867742Y-57323642D01*
X115836500Y-57166575D01*
X115836500Y-57006425D01*
X115867742Y-56849358D01*
X115929030Y-56701398D01*
X115997946Y-56598258D01*
X116018001Y-56568243D01*
X116131243Y-56455001D01*
X116198637Y-56409970D01*
X116264398Y-56366030D01*
X116412358Y-56304742D01*
X116569425Y-56273500D01*
X116729575Y-56273500D01*
X116886642Y-56304742D01*
X116886642Y-56304742D01*
G37*
G36*
X142286642Y-55034742D02*
X142434602Y-55096030D01*
X142501630Y-55140817D01*
X142567757Y-55185001D01*
X142680999Y-55298243D01*
X142719207Y-55355426D01*
X142769970Y-55431398D01*
X142831258Y-55579358D01*
X142862500Y-55736425D01*
X142862500Y-55896575D01*
X142831258Y-56053642D01*
X142769970Y-56201602D01*
X142759509Y-56217258D01*
X142680999Y-56334757D01*
X142567757Y-56447999D01*
X142532947Y-56471258D01*
X142434602Y-56536970D01*
X142286642Y-56598258D01*
X142129575Y-56629500D01*
X141969425Y-56629500D01*
X141812358Y-56598258D01*
X141664398Y-56536970D01*
X141566053Y-56471258D01*
X141531243Y-56447999D01*
X141418001Y-56334757D01*
X141339491Y-56217258D01*
X141329030Y-56201602D01*
X141267742Y-56053642D01*
X141236500Y-55896575D01*
X141236500Y-55736425D01*
X141267742Y-55579358D01*
X141329030Y-55431398D01*
X141379793Y-55355426D01*
X141418001Y-55298243D01*
X141531243Y-55185001D01*
X141597370Y-55140817D01*
X141664398Y-55096030D01*
X141812358Y-55034742D01*
X141969425Y-55003500D01*
X142129575Y-55003500D01*
X142286642Y-55034742D01*
X142286642Y-55034742D01*
G37*
G36*
X190959142Y-54907742D02*
X191107102Y-54969030D01*
X191126513Y-54982000D01*
X191240257Y-55058001D01*
X191353499Y-55171243D01*
X191394342Y-55232370D01*
X191438357Y-55298242D01*
X191442471Y-55304400D01*
X191452353Y-55328257D01*
X191503758Y-55452358D01*
X191535000Y-55609425D01*
X191535000Y-55769575D01*
X191503758Y-55926642D01*
X191492526Y-55953757D01*
X191442471Y-56074600D01*
X191353499Y-56207757D01*
X191240257Y-56320999D01*
X191219665Y-56334758D01*
X191107102Y-56409970D01*
X190959142Y-56471258D01*
X190802075Y-56502500D01*
X190641925Y-56502500D01*
X190484858Y-56471258D01*
X190336898Y-56409970D01*
X190224335Y-56334758D01*
X190203743Y-56320999D01*
X190090501Y-56207757D01*
X190001529Y-56074600D01*
X189951474Y-55953757D01*
X189940242Y-55926642D01*
X189909000Y-55769575D01*
X189909000Y-55609425D01*
X189940242Y-55452358D01*
X189991647Y-55328257D01*
X190001529Y-55304400D01*
X190005644Y-55298242D01*
X190049658Y-55232370D01*
X190090501Y-55171243D01*
X190203743Y-55058001D01*
X190317487Y-54982000D01*
X190336898Y-54969030D01*
X190484858Y-54907742D01*
X190641925Y-54876500D01*
X190802075Y-54876500D01*
X190959142Y-54907742D01*
X190959142Y-54907742D01*
G37*
G36*
X165559142Y-54653742D02*
X165707102Y-54715030D01*
X165840258Y-54804002D01*
X165953498Y-54917242D01*
X166042470Y-55050398D01*
X166103758Y-55198358D01*
X166135000Y-55355425D01*
X166135000Y-55515575D01*
X166103758Y-55672642D01*
X166077338Y-55736425D01*
X166042471Y-55820600D01*
X165971617Y-55926642D01*
X165953498Y-55953758D01*
X165840258Y-56066998D01*
X165707102Y-56155970D01*
X165559142Y-56217258D01*
X165402075Y-56248500D01*
X165241925Y-56248500D01*
X165084858Y-56217258D01*
X164936898Y-56155970D01*
X164803742Y-56066998D01*
X164690502Y-55953758D01*
X164672384Y-55926642D01*
X164601529Y-55820600D01*
X164566662Y-55736425D01*
X164540242Y-55672642D01*
X164509000Y-55515575D01*
X164509000Y-55355425D01*
X164540242Y-55198358D01*
X164601530Y-55050398D01*
X164690502Y-54917242D01*
X164803742Y-54804002D01*
X164936898Y-54715030D01*
X165084858Y-54653742D01*
X165241925Y-54622500D01*
X165402075Y-54622500D01*
X165559142Y-54653742D01*
X165559142Y-54653742D01*
G37*
G36*
X182716924Y-51756760D02*
X182716927Y-51756761D01*
X182716928Y-51756761D01*
X182896192Y-51811140D01*
X182896194Y-51811141D01*
X182896197Y-51811142D01*
X183061404Y-51899446D01*
X183206212Y-52018288D01*
X183325052Y-52163095D01*
X183325053Y-52163097D01*
X183413360Y-52328307D01*
X183467739Y-52507571D01*
X183467740Y-52507575D01*
X183481500Y-52647282D01*
X183481500Y-54540718D01*
X183467740Y-54680425D01*
X183467739Y-54680428D01*
X183467739Y-54680429D01*
X183414784Y-54855000D01*
X183413359Y-54859695D01*
X183325052Y-55024905D01*
X183206212Y-55169712D01*
X183061405Y-55288552D01*
X182987121Y-55328258D01*
X182896193Y-55376860D01*
X182716929Y-55431239D01*
X182716928Y-55431239D01*
X182716925Y-55431240D01*
X182530500Y-55449601D01*
X182344076Y-55431240D01*
X182344073Y-55431239D01*
X182344072Y-55431239D01*
X182164808Y-55376860D01*
X182073880Y-55328258D01*
X181999596Y-55288552D01*
X181854789Y-55169712D01*
X181735949Y-55024905D01*
X181647642Y-54859695D01*
X181646218Y-54855000D01*
X181593262Y-54680429D01*
X181593262Y-54680428D01*
X181593261Y-54680425D01*
X181579500Y-54540717D01*
X181579500Y-52647283D01*
X181593260Y-52507576D01*
X181593261Y-52507572D01*
X181647640Y-52328308D01*
X181647641Y-52328306D01*
X181647642Y-52328303D01*
X181735946Y-52163096D01*
X181854788Y-52018288D01*
X181999595Y-51899448D01*
X182164805Y-51811141D01*
X182164807Y-51811140D01*
X182344071Y-51756761D01*
X182344072Y-51756761D01*
X182344075Y-51756760D01*
X182530500Y-51738399D01*
X182716924Y-51756760D01*
X182716924Y-51756760D01*
G37*
G36*
X178906924Y-51756760D02*
X178906927Y-51756761D01*
X178906928Y-51756761D01*
X179086192Y-51811140D01*
X179086194Y-51811141D01*
X179086197Y-51811142D01*
X179251404Y-51899446D01*
X179396212Y-52018288D01*
X179515052Y-52163095D01*
X179515053Y-52163097D01*
X179603360Y-52328307D01*
X179657739Y-52507571D01*
X179657740Y-52507575D01*
X179671500Y-52647282D01*
X179671500Y-54540718D01*
X179657740Y-54680425D01*
X179657739Y-54680428D01*
X179657739Y-54680429D01*
X179604784Y-54855000D01*
X179603359Y-54859695D01*
X179515052Y-55024905D01*
X179396212Y-55169712D01*
X179251405Y-55288552D01*
X179177121Y-55328258D01*
X179086193Y-55376860D01*
X178906929Y-55431239D01*
X178906928Y-55431239D01*
X178906925Y-55431240D01*
X178720500Y-55449601D01*
X178534076Y-55431240D01*
X178534073Y-55431239D01*
X178534072Y-55431239D01*
X178354808Y-55376860D01*
X178263880Y-55328258D01*
X178189596Y-55288552D01*
X178044789Y-55169712D01*
X177925949Y-55024905D01*
X177837642Y-54859695D01*
X177836218Y-54855000D01*
X177783262Y-54680429D01*
X177783262Y-54680428D01*
X177783261Y-54680425D01*
X177769500Y-54540717D01*
X177769500Y-52647283D01*
X177783260Y-52507576D01*
X177783261Y-52507572D01*
X177837640Y-52328308D01*
X177837641Y-52328306D01*
X177837642Y-52328303D01*
X177925946Y-52163096D01*
X178044788Y-52018288D01*
X178189595Y-51899448D01*
X178354805Y-51811141D01*
X178354807Y-51811140D01*
X178534071Y-51756761D01*
X178534072Y-51756761D01*
X178534075Y-51756760D01*
X178720500Y-51738399D01*
X178906924Y-51756760D01*
X178906924Y-51756760D01*
G37*
G36*
X175721418Y-51746934D02*
X175753924Y-51756795D01*
X175783883Y-51772808D01*
X175810141Y-51794359D01*
X175831692Y-51820617D01*
X175847705Y-51850576D01*
X175857566Y-51883082D01*
X175861500Y-51923029D01*
X175861500Y-55264971D01*
X175857566Y-55304918D01*
X175847705Y-55337424D01*
X175831692Y-55367383D01*
X175810141Y-55393641D01*
X175783883Y-55415192D01*
X175753924Y-55431205D01*
X175721418Y-55441066D01*
X175681471Y-55445000D01*
X174139529Y-55445000D01*
X174099582Y-55441066D01*
X174067076Y-55431205D01*
X174037117Y-55415192D01*
X174010859Y-55393641D01*
X173989308Y-55367383D01*
X173973295Y-55337424D01*
X173963434Y-55304918D01*
X173959500Y-55264971D01*
X173959500Y-51923029D01*
X173963434Y-51883082D01*
X173973295Y-51850576D01*
X173989308Y-51820617D01*
X174010859Y-51794359D01*
X174037117Y-51772808D01*
X174067076Y-51756795D01*
X174099582Y-51746934D01*
X174139529Y-51743000D01*
X175681471Y-51743000D01*
X175721418Y-51746934D01*
X175721418Y-51746934D01*
G37*
G36*
X116886642Y-53764742D02*
X117034602Y-53826030D01*
X117100363Y-53869970D01*
X117167757Y-53915001D01*
X117280999Y-54028243D01*
X117301054Y-54058258D01*
X117369970Y-54161398D01*
X117431258Y-54309358D01*
X117462500Y-54466425D01*
X117462500Y-54626575D01*
X117431258Y-54783642D01*
X117409599Y-54835930D01*
X117369971Y-54931600D01*
X117280999Y-55064757D01*
X117167757Y-55177999D01*
X117157276Y-55185002D01*
X117034602Y-55266970D01*
X116886642Y-55328258D01*
X116729575Y-55359500D01*
X116569425Y-55359500D01*
X116412358Y-55328258D01*
X116264398Y-55266970D01*
X116141724Y-55185002D01*
X116131243Y-55177999D01*
X116018001Y-55064757D01*
X115929029Y-54931600D01*
X115889401Y-54835930D01*
X115867742Y-54783642D01*
X115836500Y-54626575D01*
X115836500Y-54466425D01*
X115867742Y-54309358D01*
X115929030Y-54161398D01*
X115997946Y-54058258D01*
X116018001Y-54028243D01*
X116131243Y-53915001D01*
X116198637Y-53869970D01*
X116264398Y-53826030D01*
X116412358Y-53764742D01*
X116569425Y-53733500D01*
X116729575Y-53733500D01*
X116886642Y-53764742D01*
X116886642Y-53764742D01*
G37*
G36*
X148619210Y-47526070D02*
X149310947Y-47812597D01*
X149933499Y-48228573D01*
X150462927Y-48758001D01*
X150878903Y-49380553D01*
X151165430Y-50072290D01*
X151311500Y-50806633D01*
X151311500Y-51555367D01*
X151165430Y-52289710D01*
X150878903Y-52981447D01*
X150462927Y-53603999D01*
X149933499Y-54133427D01*
X149310947Y-54549403D01*
X148619210Y-54835930D01*
X147884867Y-54982000D01*
X147136133Y-54982000D01*
X146401790Y-54835930D01*
X145710053Y-54549403D01*
X145087501Y-54133427D01*
X144558073Y-53603999D01*
X144142097Y-52981447D01*
X143855570Y-52289710D01*
X143709500Y-51555367D01*
X143709500Y-50806633D01*
X143855570Y-50072290D01*
X144142097Y-49380553D01*
X144558073Y-48758001D01*
X145087501Y-48228573D01*
X145710053Y-47812597D01*
X146401790Y-47526070D01*
X147136133Y-47380000D01*
X147884867Y-47380000D01*
X148619210Y-47526070D01*
X148619210Y-47526070D01*
G37*
G36*
X112551210Y-47526070D02*
X113242947Y-47812597D01*
X113865499Y-48228573D01*
X114394927Y-48758001D01*
X114810903Y-49380553D01*
X115097430Y-50072290D01*
X115243500Y-50806633D01*
X115243500Y-51555367D01*
X115097430Y-52289710D01*
X114810903Y-52981447D01*
X114394927Y-53603999D01*
X113865499Y-54133427D01*
X113242947Y-54549403D01*
X112551210Y-54835930D01*
X111816867Y-54982000D01*
X111068133Y-54982000D01*
X110333790Y-54835930D01*
X109642053Y-54549403D01*
X109019501Y-54133427D01*
X108490073Y-53603999D01*
X108074097Y-52981447D01*
X107787570Y-52289710D01*
X107641500Y-51555367D01*
X107641500Y-50806633D01*
X107787570Y-50072290D01*
X108074097Y-49380553D01*
X108490073Y-48758001D01*
X109019501Y-48228573D01*
X109642053Y-47812597D01*
X110333790Y-47526070D01*
X111068133Y-47380000D01*
X111816867Y-47380000D01*
X112551210Y-47526070D01*
X112551210Y-47526070D01*
G37*
G36*
X199958710Y-47399070D02*
X200650447Y-47685597D01*
X201272999Y-48101573D01*
X201802427Y-48631001D01*
X202218403Y-49253553D01*
X202504930Y-49945290D01*
X202651000Y-50679633D01*
X202651000Y-51428367D01*
X202504930Y-52162710D01*
X202218403Y-52854447D01*
X201802427Y-53476999D01*
X201272999Y-54006427D01*
X200650447Y-54422403D01*
X199958710Y-54708930D01*
X199224367Y-54855000D01*
X198475633Y-54855000D01*
X197741290Y-54708930D01*
X197049553Y-54422403D01*
X196427001Y-54006427D01*
X195897573Y-53476999D01*
X195481597Y-52854447D01*
X195195070Y-52162710D01*
X195049000Y-51428367D01*
X195049000Y-50679633D01*
X195195070Y-49945290D01*
X195481597Y-49253553D01*
X195897573Y-48631001D01*
X196427001Y-48101573D01*
X197049553Y-47685597D01*
X197741290Y-47399070D01*
X198475633Y-47253000D01*
X199224367Y-47253000D01*
X199958710Y-47399070D01*
X199958710Y-47399070D01*
G37*
G36*
X159953710Y-47399070D02*
X160645447Y-47685597D01*
X161267999Y-48101573D01*
X161797427Y-48631001D01*
X162213403Y-49253553D01*
X162499930Y-49945290D01*
X162646000Y-50679633D01*
X162646000Y-51428367D01*
X162499930Y-52162710D01*
X162213403Y-52854447D01*
X161797427Y-53476999D01*
X161267999Y-54006427D01*
X160645447Y-54422403D01*
X159953710Y-54708930D01*
X159219367Y-54855000D01*
X158470633Y-54855000D01*
X157736290Y-54708930D01*
X157044553Y-54422403D01*
X156422001Y-54006427D01*
X155892573Y-53476999D01*
X155476597Y-52854447D01*
X155190070Y-52162710D01*
X155044000Y-51428367D01*
X155044000Y-50679633D01*
X155190070Y-49945290D01*
X155476597Y-49253553D01*
X155892573Y-48631001D01*
X156422001Y-48101573D01*
X157044553Y-47685597D01*
X157736290Y-47399070D01*
X158470633Y-47253000D01*
X159219367Y-47253000D01*
X159953710Y-47399070D01*
X159953710Y-47399070D01*
G37*
G36*
X142286642Y-52494742D02*
X142434602Y-52556030D01*
X142501630Y-52600817D01*
X142567757Y-52645001D01*
X142680999Y-52758243D01*
X142719207Y-52815426D01*
X142769970Y-52891398D01*
X142831258Y-53039358D01*
X142862500Y-53196425D01*
X142862500Y-53356575D01*
X142831258Y-53513642D01*
X142769970Y-53661602D01*
X142759509Y-53677258D01*
X142680999Y-53794757D01*
X142567757Y-53907999D01*
X142532947Y-53931258D01*
X142434602Y-53996970D01*
X142286642Y-54058258D01*
X142129575Y-54089500D01*
X141969425Y-54089500D01*
X141812358Y-54058258D01*
X141664398Y-53996970D01*
X141566053Y-53931258D01*
X141531243Y-53907999D01*
X141418001Y-53794757D01*
X141339491Y-53677258D01*
X141329030Y-53661602D01*
X141267742Y-53513642D01*
X141236500Y-53356575D01*
X141236500Y-53196425D01*
X141267742Y-53039358D01*
X141329030Y-52891398D01*
X141379793Y-52815426D01*
X141418001Y-52758243D01*
X141531243Y-52645001D01*
X141597370Y-52600817D01*
X141664398Y-52556030D01*
X141812358Y-52494742D01*
X141969425Y-52463500D01*
X142129575Y-52463500D01*
X142286642Y-52494742D01*
X142286642Y-52494742D01*
G37*
G36*
X190959142Y-52367742D02*
X191107102Y-52429030D01*
X191158690Y-52463500D01*
X191240257Y-52518001D01*
X191353499Y-52631243D01*
X191397683Y-52697370D01*
X191442470Y-52764398D01*
X191503758Y-52912358D01*
X191535000Y-53069425D01*
X191535000Y-53229575D01*
X191503758Y-53386642D01*
X191466330Y-53476999D01*
X191442471Y-53534600D01*
X191353499Y-53667757D01*
X191240257Y-53780999D01*
X191219665Y-53794758D01*
X191107102Y-53869970D01*
X190959142Y-53931258D01*
X190802075Y-53962500D01*
X190641925Y-53962500D01*
X190484858Y-53931258D01*
X190336898Y-53869970D01*
X190224335Y-53794758D01*
X190203743Y-53780999D01*
X190090501Y-53667757D01*
X190001529Y-53534600D01*
X189977670Y-53476999D01*
X189940242Y-53386642D01*
X189909000Y-53229575D01*
X189909000Y-53069425D01*
X189940242Y-52912358D01*
X190001530Y-52764398D01*
X190046317Y-52697370D01*
X190090501Y-52631243D01*
X190203743Y-52518001D01*
X190285310Y-52463500D01*
X190336898Y-52429030D01*
X190484858Y-52367742D01*
X190641925Y-52336500D01*
X190802075Y-52336500D01*
X190959142Y-52367742D01*
X190959142Y-52367742D01*
G37*
G36*
X165559142Y-52113742D02*
X165707102Y-52175030D01*
X165840258Y-52264002D01*
X165953498Y-52377242D01*
X166042470Y-52510398D01*
X166103758Y-52658358D01*
X166135000Y-52815425D01*
X166135000Y-52975575D01*
X166103758Y-53132642D01*
X166077338Y-53196425D01*
X166042471Y-53280600D01*
X165971617Y-53386642D01*
X165953498Y-53413758D01*
X165840258Y-53526998D01*
X165707102Y-53615970D01*
X165559142Y-53677258D01*
X165402075Y-53708500D01*
X165241925Y-53708500D01*
X165084858Y-53677258D01*
X164936898Y-53615970D01*
X164803742Y-53526998D01*
X164690502Y-53413758D01*
X164672384Y-53386642D01*
X164601529Y-53280600D01*
X164566662Y-53196425D01*
X164540242Y-53132642D01*
X164509000Y-52975575D01*
X164509000Y-52815425D01*
X164540242Y-52658358D01*
X164601530Y-52510398D01*
X164690502Y-52377242D01*
X164803742Y-52264002D01*
X164936898Y-52175030D01*
X165084858Y-52113742D01*
X165241925Y-52082500D01*
X165402075Y-52082500D01*
X165559142Y-52113742D01*
X165559142Y-52113742D01*
G37*
G36*
X116886642Y-51224742D02*
X117034602Y-51286030D01*
X117101630Y-51330817D01*
X117167757Y-51375001D01*
X117280999Y-51488243D01*
X117301054Y-51518258D01*
X117369970Y-51621398D01*
X117431258Y-51769358D01*
X117462500Y-51926425D01*
X117462500Y-52086575D01*
X117431258Y-52243642D01*
X117392794Y-52336500D01*
X117369971Y-52391600D01*
X117280999Y-52524757D01*
X117167757Y-52637999D01*
X117157276Y-52645002D01*
X117034602Y-52726970D01*
X116886642Y-52788258D01*
X116729575Y-52819500D01*
X116569425Y-52819500D01*
X116412358Y-52788258D01*
X116264398Y-52726970D01*
X116141724Y-52645002D01*
X116131243Y-52637999D01*
X116018001Y-52524757D01*
X115929029Y-52391600D01*
X115906206Y-52336500D01*
X115867742Y-52243642D01*
X115836500Y-52086575D01*
X115836500Y-51926425D01*
X115867742Y-51769358D01*
X115929030Y-51621398D01*
X115997946Y-51518258D01*
X116018001Y-51488243D01*
X116131243Y-51375001D01*
X116197370Y-51330817D01*
X116264398Y-51286030D01*
X116412358Y-51224742D01*
X116569425Y-51193500D01*
X116729575Y-51193500D01*
X116886642Y-51224742D01*
X116886642Y-51224742D01*
G37*
G36*
X142286642Y-49954742D02*
X142434602Y-50016030D01*
X142567758Y-50105002D01*
X142680998Y-50218242D01*
X142769970Y-50351398D01*
X142831258Y-50499358D01*
X142862500Y-50656425D01*
X142862500Y-50816575D01*
X142831258Y-50973642D01*
X142783854Y-51088083D01*
X142769971Y-51121600D01*
X142680999Y-51254757D01*
X142567757Y-51367999D01*
X142557276Y-51375002D01*
X142434602Y-51456970D01*
X142286642Y-51518258D01*
X142129575Y-51549500D01*
X141969425Y-51549500D01*
X141812358Y-51518258D01*
X141664398Y-51456970D01*
X141541724Y-51375002D01*
X141531243Y-51367999D01*
X141418001Y-51254757D01*
X141329029Y-51121600D01*
X141315146Y-51088083D01*
X141267742Y-50973642D01*
X141236500Y-50816575D01*
X141236500Y-50656425D01*
X141267742Y-50499358D01*
X141329030Y-50351398D01*
X141418002Y-50218242D01*
X141531242Y-50105002D01*
X141664398Y-50016030D01*
X141812358Y-49954742D01*
X141969425Y-49923500D01*
X142129575Y-49923500D01*
X142286642Y-49954742D01*
X142286642Y-49954742D01*
G37*
M02*
